<svg width="92" height="92" viewBox="0 0 92 92" fill="none" xmlns="http://www.w3.org/2000/svg">
<g clip-path="url(#clip0_1203:28396)">
<rect width="92" height="92" rx="32" fill="#EDF1FA"/>
<g filter="url(#filter0_d_1203:28396)">
<path d="M46 15C28.95 15 15 28.95 15 46C15 63.05 28.95 77 46 77C63.05 77 77 63.05 77 46C77 28.95 63.05 15 46 15Z" fill="#4B7FFB" fill-opacity="0.01"/>
</g>
<path d="M45.9996 14.801C28.8405 14.801 14.8013 28.8403 14.8013 45.9994C14.8013 63.1585 28.8405 77.1977 45.9996 77.1977C63.1587 77.1977 77.198 63.1585 77.198 45.9994C77.198 28.8403 63.1587 14.801 45.9996 14.801Z" fill="#4B7FFB"/>
<path d="M46.0384 28.4512C48.3783 28.4512 50.4062 30.4791 50.4062 32.8189C50.4062 35.1588 48.3783 37.1867 46.0384 37.1867C43.6985 37.1867 41.6706 35.1588 41.6706 32.8189C41.6706 30.4791 43.6985 28.4512 46.0384 28.4512ZM58.8297 40.7745C56.1779 41.2425 53.37 41.3985 50.7181 41.5545C49.7822 41.5545 49.1582 42.1784 49.1582 42.8024C48.8462 51.226 52.2781 61.3654 52.4341 61.3654C52.746 62.1454 52.2781 63.0813 51.4981 63.3933C51.3421 63.3933 51.1861 63.5493 51.0301 63.5493C50.4062 63.5493 49.7822 63.0813 49.6262 62.4574C49.4702 62.1454 48.2223 57.9336 47.1303 52.4739C46.8183 51.07 45.8824 51.226 45.7264 52.4739C44.7905 57.9336 43.2305 62.1454 43.2305 62.4574C42.6066 63.2373 42.1386 63.5493 41.3586 63.5493C41.2026 63.5493 41.0467 63.5493 40.8907 63.3933C40.1107 63.0813 39.6427 62.1454 39.9547 61.3654C39.9547 61.2094 43.3865 51.226 43.2305 42.8024C43.2305 42.1784 42.6066 41.7105 41.6706 41.5545C36.8349 41.3985 33.559 40.9305 33.2471 40.9305C32.4671 40.7745 31.8431 39.9946 31.8431 39.2146C31.9991 38.2787 32.7791 37.8107 33.559 37.8107C33.715 37.8107 46.9743 39.3706 58.3617 37.4987C59.1417 37.3427 60.0776 37.9667 60.0776 38.7466C60.3896 39.8386 59.7657 40.7745 58.8297 40.7745Z" fill="white"/>
<path opacity="0.3" d="M45.9978 72.5191C31.3346 72.5191 19.4792 60.6638 19.4792 46.0005C19.4792 31.3373 31.3346 19.4819 45.9978 19.4819C60.6611 19.4819 72.5164 31.3373 72.5164 46.0005C72.5164 60.6638 60.6611 72.5191 45.9978 72.5191ZM45.9978 22.6018C33.0505 22.6018 22.5991 33.0532 22.5991 46.0005C22.5991 58.9478 33.0505 69.3993 45.9978 69.3993C58.9452 69.3993 69.3966 58.9478 69.3966 46.0005C69.3966 33.0532 58.9452 22.6018 45.9978 22.6018Z" fill="white"/>
</g>
<defs>
<filter id="filter0_d_1203:28396" x="-3.76777" y="3.27014" width="99.5355" height="99.5355" filterUnits="userSpaceOnUse" color-interpolation-filters="sRGB">
<feFlood flood-opacity="0" result="BackgroundImageFix"/>
<feColorMatrix in="SourceAlpha" type="matrix" values="0 0 0 0 0 0 0 0 0 0 0 0 0 0 0 0 0 0 127 0" result="hardAlpha"/>
<feOffset dy="7.03791"/>
<feGaussianBlur stdDeviation="9.38388"/>
<feColorMatrix type="matrix" values="0 0 0 0 0.294118 0 0 0 0 0.501961 0 0 0 0 0.984314 0 0 0 0.25 0"/>
<feBlend mode="normal" in2="BackgroundImageFix" result="effect1_dropShadow_1203:28396"/>
<feBlend mode="normal" in="SourceGraphic" in2="effect1_dropShadow_1203:28396" result="shape"/>
</filter>
<clipPath id="clip0_1203:28396">
<rect width="92" height="92" fill="white"/>
</clipPath>
</defs>
</svg>
