<svg width="92" height="92" viewBox="0 0 92 92" fill="none" xmlns="http://www.w3.org/2000/svg">
<rect width="92" height="92" rx="32" fill="#EDF1FA"/>
<g filter="url(#filter0_d_1203:28393)">
<path d="M48.6788 68.03C47.5072 68.03 46.5573 67.0802 46.5573 65.9085V62.929L43.6747 63.5161C40.5189 64.1616 37.5085 61.9057 37.2419 58.697L36.6416 51.5152L33.4517 50.1857C32.348 49.7264 31.9096 48.3947 32.5242 47.3692L36.6416 40.5057C37.3345 32.1817 42.0588 23.97 54.2899 23.97C66.8823 23.97 73 33.2666 73 42.7032C73 46.7248 71.5152 50.2694 69.3177 53.2953C67.3416 56.0116 66.3866 59.3381 66.3866 62.6977V65.9085C66.3866 67.0802 65.4367 68.03 64.2651 68.03H48.6788Z" fill="white"/>
<path d="M43.3219 68.03C44.4936 68.03 45.4434 67.0802 45.4434 65.9085V62.929L48.326 63.5161C51.4818 64.1616 54.4922 61.9057 54.7588 58.697L55.3591 51.5152L58.5491 50.1857C59.6528 49.7264 60.0912 48.3947 59.4765 47.3692L55.3591 40.5057C54.6663 32.1817 49.9419 23.97 37.7109 23.97C25.1185 23.97 19.0007 33.2666 19.0007 42.7032C19.0007 46.7248 20.4856 50.2694 22.6831 53.2953C24.6592 56.0116 25.6142 59.3381 25.6142 62.6977V65.9085C25.6142 67.0802 26.564 68.03 27.7357 68.03H43.3219Z" fill="white"/>
<path fill-rule="evenodd" clip-rule="evenodd" d="M45.9992 25.835C39.8139 28.6325 37.1485 34.6631 36.6415 40.7539L32.5241 47.6174C31.9094 48.6429 32.3478 49.9746 33.4515 50.4339L36.6415 51.7634L37.2418 58.9452C37.5084 62.1539 40.5188 64.4098 43.6746 63.7643L45.4413 63.4045V63.1772L45.9992 63.2908L46.5572 63.1772V63.4045L48.3239 63.7643C51.4797 64.4098 54.4901 62.1539 54.7567 58.9452L55.357 51.7634L58.5469 50.4339C59.6506 49.9746 60.089 48.6429 59.4744 47.6174L55.357 40.7539C54.85 34.6631 52.1846 28.6325 45.9992 25.835Z" fill="white"/>
<path d="M49.8942 41.3877C48.9423 41.9155 46.0521 42.6544 42.1062 41.3877" stroke="white" stroke-width="1.90935" stroke-linecap="round"/>
</g>
<path d="M48.7039 69.022C47.5323 69.022 46.5824 68.0722 46.5824 66.9005V63.6913L43.57 64.3048C40.2721 64.9794 37.1261 62.6219 36.8476 59.2688L36.2202 51.7636L32.8866 50.3742C31.7332 49.8942 31.2751 48.5025 31.9174 47.4308L36.2202 40.2583C36.9443 31.5595 41.8813 22.978 54.6631 22.978C67.8225 22.978 74.2157 32.6933 74.2157 42.5548C74.2157 46.7575 72.6641 50.4617 70.3676 53.6238C68.3025 56.4624 67.3045 59.9387 67.3045 63.4496V66.9005C67.3045 68.0722 66.3547 69.022 65.183 69.022H48.7039Z" fill="#4B7FFB"/>
<path d="M43.2968 69.022C44.4685 69.022 45.4183 68.0722 45.4183 66.9005V63.6913L48.4307 64.3048C51.7286 64.9794 54.8746 62.6219 55.1532 59.2688L55.7805 51.7636L59.1141 50.3742C60.2675 49.8942 60.7256 48.5025 60.0833 47.4308L55.7805 40.2583C55.0565 31.5595 50.1194 22.978 37.3376 22.978C24.1782 22.978 17.785 32.6933 17.785 42.5548C17.785 46.7575 19.3367 50.4617 21.6331 53.6238C23.6982 56.4624 24.6962 59.9387 24.6962 63.4496V66.9005C24.6962 68.0722 25.646 69.022 26.8177 69.022H43.2968Z" fill="#4B7FFB"/>
<path fill-rule="evenodd" clip-rule="evenodd" d="M45.9992 24.927C39.5353 27.8505 36.7499 34.1527 36.2201 40.5177L31.9173 47.6902C31.275 48.7619 31.7331 50.1536 32.8865 50.6336L36.2201 52.023L36.8474 59.5281C37.126 62.8813 40.272 65.2388 43.5699 64.5642L45.4161 64.1882V63.9507L45.9992 64.0694L46.5823 63.9507V64.1882L48.4286 64.5642C51.7265 65.2388 54.8724 62.8813 55.151 59.5281L55.7783 52.023L59.1119 50.6336C60.2653 50.1536 60.7235 48.7619 60.0811 47.6902L55.7783 40.5177C55.2485 34.1527 52.4631 27.8505 45.9992 24.927Z" fill="#739CFC"/>
<path d="M50.0695 41.1799C49.0748 41.7315 46.0545 42.5037 41.9309 41.1799" stroke="#4B7FFB" stroke-width="1.90935" stroke-linecap="round"/>
<defs>
<filter id="filter0_d_1203:28393" x="9.84644" y="20.3104" width="72.3078" height="62.3686" filterUnits="userSpaceOnUse" color-interpolation-filters="sRGB">
<feFlood flood-opacity="0" result="BackgroundImageFix"/>
<feColorMatrix in="SourceAlpha" type="matrix" values="0 0 0 0 0 0 0 0 0 0 0 0 0 0 0 0 0 0 127 0" result="hardAlpha"/>
<feOffset dy="5.4947"/>
<feGaussianBlur stdDeviation="4.57715"/>
<feColorMatrix type="matrix" values="0 0 0 0 0.294118 0 0 0 0 0.501961 0 0 0 0 0.984314 0 0 0 0.26 0"/>
<feBlend mode="normal" in2="BackgroundImageFix" result="effect1_dropShadow_1203:28393"/>
<feBlend mode="normal" in="SourceGraphic" in2="effect1_dropShadow_1203:28393" result="shape"/>
</filter>
</defs>
</svg>
