<svg width="798" height="777" viewBox="0 0 798 777" fill="none" xmlns="http://www.w3.org/2000/svg">
<g clip-path="url(#clip0)">
<path opacity="0.12" fill-rule="evenodd" clip-rule="evenodd" d="M51.4517 334.647C71.5573 215.079 87.1889 75.5537 195.033 20.142C301.441 -34.5313 420.244 39.5841 529.087 89.2329C631.99 136.172 746.588 181.141 782.846 288.274C820.819 400.474 779.032 522.892 707.912 617.616C638.716 709.778 533.364 763.097 418.582 773.436C297.017 784.385 163.459 767.322 85.1346 673.709C8.45504 582.063 31.6367 452.487 51.4517 334.647Z" fill="#4B80FB"/>
<path d="M702.142 254.738H539.002V464.758H702.142V254.738Z" fill="#FAFAFA"/>
<path d="M660.402 285.625C660.402 285.625 660.322 285.775 660.112 286.045L659.182 287.215C658.657 287.851 658.173 288.519 657.732 289.215C657.084 290.107 656.484 291.031 655.932 291.985C654.382 294.585 653.092 297.332 652.082 300.185C650.737 303.961 649.733 307.85 649.082 311.805C648.316 316.593 647.829 321.421 647.622 326.265C647.322 331.505 647.292 337.125 647.022 343.045C646.807 349.249 646.138 355.429 645.022 361.535C644.377 364.769 643.505 367.954 642.412 371.065C641.255 374.266 639.763 377.337 637.962 380.225C634.312 385.896 629.375 390.624 623.552 394.025C618.15 397.131 612.391 399.569 606.402 401.285C600.722 403.015 595.222 404.235 590.092 405.395C584.962 406.555 580.212 407.695 575.932 408.945C572.074 410.054 568.296 411.42 564.622 413.035C561.846 414.255 559.171 415.693 556.622 417.335C555.622 418.015 554.622 418.635 553.912 419.235C553.202 419.835 552.492 420.295 552.002 420.725L550.852 421.725C550.582 421.935 550.442 422.045 550.432 422.025C550.537 421.891 550.654 421.767 550.782 421.655L551.872 420.655C552.352 420.195 552.982 419.655 553.742 419.085C554.502 418.515 555.392 417.815 556.422 417.085C558.959 415.372 561.635 413.873 564.422 412.605C568.101 410.937 571.89 409.52 575.762 408.365C580.052 407.065 584.812 405.885 589.942 404.685C595.072 403.485 600.542 402.245 606.172 400.515C612.082 398.79 617.765 396.366 623.102 393.295C628.794 389.956 633.62 385.324 637.192 379.775C638.956 376.934 640.42 373.918 641.562 370.775C642.637 367.707 643.502 364.57 644.152 361.385C645.261 355.321 645.93 349.185 646.152 343.025C646.452 337.135 646.512 331.505 646.852 326.245C647.106 321.36 647.65 316.495 648.482 311.675C649.168 307.681 650.219 303.758 651.622 299.955C652.672 297.089 654.013 294.339 655.622 291.745C656.196 290.794 656.823 289.875 657.502 288.995C657.974 288.329 658.488 287.695 659.042 287.095L660.042 285.975C660.149 285.846 660.27 285.729 660.402 285.625V285.625Z" fill="#FFCB67"/>
<path d="M683.621 310.406C683.574 310.574 683.507 310.735 683.421 310.886L682.761 312.236C681.821 313.93 680.723 315.53 679.481 317.016C677.491 319.354 675.217 321.433 672.711 323.206C669.393 325.553 665.812 327.503 662.041 329.016C657.464 330.8 652.752 332.218 647.951 333.256C642.801 334.446 637.251 335.446 631.491 336.786C625.45 338.069 619.582 340.063 614.011 342.726C608.022 345.525 602.856 349.82 599.011 355.196C595.211 360.816 593.501 367.416 592.901 373.766C592.425 379.927 592.593 386.12 593.401 392.246C594.061 398.126 594.881 403.716 595.291 408.986C595.748 413.888 595.711 418.822 595.181 423.716C594.695 427.753 593.666 431.705 592.121 435.466C590.962 438.312 589.399 440.976 587.481 443.376C586.269 444.89 584.894 446.265 583.381 447.476L582.151 448.356C582.017 448.46 581.873 448.551 581.721 448.626C581.721 448.626 581.841 448.496 582.101 448.276L583.261 447.336C584.702 446.072 586.018 444.673 587.191 443.156C589.032 440.745 590.529 438.089 591.641 435.266C593.113 431.535 594.081 427.624 594.521 423.636C595.002 418.788 595.002 413.904 594.521 409.056C594.071 403.816 593.231 398.246 592.521 392.336C591.676 386.153 591.488 379.899 591.961 373.676C592.551 367.226 594.291 360.466 598.211 354.676C602.148 349.162 607.447 344.763 613.591 341.906C619.228 339.211 625.167 337.196 631.281 335.906C637.081 334.586 642.631 333.606 647.771 332.456C652.538 331.46 657.219 330.089 661.771 328.356C665.515 326.897 669.078 325.011 672.391 322.736C674.891 321.022 677.172 319.007 679.181 316.736C680.442 315.291 681.58 313.743 682.581 312.106L683.321 310.796C683.409 310.658 683.509 310.527 683.621 310.406V310.406Z" fill="#FFCB67"/>
<path d="M624.721 392.105C623.087 391.188 621.532 390.138 620.071 388.965C617.261 386.965 613.431 384.065 609.231 380.855C605.031 377.645 601.231 374.695 598.571 372.525C597.051 371.423 595.626 370.195 594.311 368.855C595.95 369.769 597.508 370.819 598.971 371.995C601.771 373.995 605.601 376.895 609.801 380.105C614.001 383.315 617.801 386.265 620.471 388.435C621.989 389.536 623.41 390.764 624.721 392.105V392.105Z" fill="#FFCB67"/>
<path d="M637.62 380.177C637.068 379.928 636.55 379.609 636.08 379.227C635.13 378.567 633.76 377.587 632.08 376.367C628.74 373.917 624.16 370.487 619.14 366.647C614.12 362.807 609.6 359.287 606.37 356.707C604.75 355.407 603.44 354.357 602.56 353.607C602.066 353.256 601.622 352.838 601.24 352.367C601.797 352.628 602.315 352.965 602.78 353.367C603.78 354.027 605.1 355.007 606.78 356.227C610.12 358.677 614.7 362.107 619.72 365.947C624.74 369.787 629.26 373.307 632.5 375.887C634.11 377.177 635.42 378.237 636.3 378.987C636.791 379.323 637.235 379.724 637.62 380.177V380.177Z" fill="#FFCB67"/>
<path d="M642.62 365.588C641.047 364.713 639.548 363.71 638.14 362.588C635.45 360.638 631.77 357.888 627.73 354.798C623.69 351.708 620.08 348.878 617.49 346.798C616.027 345.742 614.662 344.557 613.41 343.258C614.986 344.129 616.484 345.133 617.89 346.258C620.58 348.208 624.27 350.958 628.3 354.048C632.33 357.138 635.95 359.968 638.55 362.048C640.009 363.105 641.371 364.29 642.62 365.588Z" fill="#FFCB67"/>
<path d="M646.291 349.026C646.131 349.236 642.531 346.746 638.291 343.476C634.051 340.206 630.671 337.386 630.821 337.176C630.971 336.966 634.581 339.456 638.821 342.736C643.061 346.016 646.441 348.826 646.291 349.026Z" fill="#FFCB67"/>
<path d="M665.852 327.105C665.692 327.305 661.702 324.515 656.922 320.865C652.142 317.215 648.402 314.095 648.562 313.865C648.722 313.635 652.722 316.455 657.492 320.105C662.262 323.755 666.012 326.935 665.852 327.105Z" fill="#FFCB67"/>
<path d="M682.302 317.988C682.222 318.098 680.512 316.988 677.822 314.988C675.132 312.988 671.442 310.278 667.412 307.198C663.382 304.118 659.752 301.278 657.162 299.198C655.704 298.14 654.339 296.959 653.082 295.668C654.662 296.532 656.161 297.536 657.562 298.668C660.262 300.668 663.942 303.368 667.982 306.458C672.022 309.548 675.632 312.368 678.222 314.458C679.68 315.516 681.045 316.697 682.302 317.988V317.988Z" fill="#FFCB67"/>
<path d="M609.361 397.327C609.201 397.537 605.211 394.737 600.431 391.087C595.651 387.437 591.911 384.317 592.071 384.087C592.231 383.857 596.221 386.677 601.001 390.327C605.781 393.977 609.521 397.107 609.361 397.327Z" fill="#FFCB67"/>
<path d="M590.072 421.318C589.922 421.518 586.192 418.938 581.742 415.538C577.292 412.138 573.822 409.218 573.982 409.008C574.142 408.798 577.862 411.388 582.312 414.788C586.762 418.188 590.232 421.108 590.072 421.318Z" fill="#FFCB67"/>
<path d="M589.381 440.106C587.773 439.214 586.244 438.187 584.811 437.036C582.061 435.036 578.301 432.226 574.191 429.086C570.081 425.946 566.371 423.086 563.731 420.916C562.243 419.834 560.848 418.63 559.561 417.316C561.168 418.208 562.697 419.235 564.131 420.386C566.881 422.386 570.641 425.196 574.751 428.386C578.861 431.576 582.561 434.386 585.211 436.556C586.696 437.623 588.091 438.81 589.381 440.106Z" fill="#FFCB67"/>
<path d="M557.041 267.105C557.041 267.748 556.85 268.377 556.493 268.911C556.136 269.446 555.629 269.862 555.035 270.108C554.441 270.354 553.787 270.418 553.157 270.293C552.527 270.168 551.947 269.858 551.493 269.404C551.038 268.949 550.729 268.37 550.603 267.74C550.478 267.109 550.542 266.456 550.788 265.862C551.034 265.268 551.451 264.76 551.985 264.403C552.52 264.046 553.148 263.855 553.791 263.855C554.218 263.854 554.641 263.937 555.036 264.1C555.431 264.263 555.79 264.502 556.092 264.804C556.394 265.106 556.633 265.465 556.796 265.86C556.959 266.255 557.042 266.678 557.041 267.105V267.105Z" fill="white"/>
<path d="M690.621 267.105C690.621 267.748 690.43 268.377 690.073 268.911C689.716 269.446 689.209 269.862 688.615 270.108C688.021 270.354 687.368 270.418 686.737 270.293C686.107 270.168 685.528 269.858 685.073 269.404C684.618 268.949 684.309 268.37 684.184 267.74C684.058 267.109 684.122 266.456 684.368 265.862C684.614 265.268 685.031 264.76 685.566 264.403C686.1 264.046 686.728 263.855 687.371 263.855C688.233 263.855 689.06 264.198 689.669 264.807C690.279 265.417 690.621 266.244 690.621 267.105Z" fill="white"/>
<path d="M152.621 449.827C152.621 449.827 152.621 449.547 152.621 449.017C152.621 448.487 152.621 447.697 152.621 446.677C152.621 444.607 152.621 441.567 152.621 437.677C152.621 429.777 152.561 418.247 152.521 403.677C152.521 374.587 152.421 333.387 152.341 284.867L152.711 285.227H43.5115L43.9015 284.837C43.9015 347.077 43.9015 404.467 43.8215 449.837L43.5115 449.527L123.001 449.687L145.001 449.767H150.761H152.761H150.831H145.121L123.231 449.847L43.4215 450.107H43.1015V449.787C43.1015 404.417 43.1015 347.027 43.0215 284.787V284.387H43.4315H152.631H152.991V284.757C152.921 333.367 152.851 374.657 152.811 403.807C152.811 418.327 152.731 429.807 152.711 437.717C152.711 441.627 152.711 444.637 152.711 446.717C152.711 447.717 152.711 448.477 152.711 449.017C152.711 449.557 152.621 449.827 152.621 449.827Z" fill="white"/>
<path d="M25.3418 472.478L44.3418 448.988Z" fill="white"/>
<mask id="mask0" mask-type="alpha" maskUnits="userSpaceOnUse" x="-17" y="-31" width="869" height="880">
<path fill-rule="evenodd" clip-rule="evenodd" d="M51.4517 334.647C71.5573 215.079 87.1889 75.5537 195.033 20.1421C301.441 -34.5313 420.244 39.5841 529.087 89.2329C631.99 136.172 746.588 181.141 782.846 288.274C820.819 400.474 779.032 522.892 707.912 617.616C638.716 709.778 533.364 763.097 418.582 773.436C297.017 784.385 163.459 767.322 85.1346 673.709C8.45504 582.063 31.6367 452.487 51.4517 334.647Z" fill="#4B80FB"/>
</mask>
<g mask="url(#mask0)">
<path d="M508.472 288.836C509.922 277.076 522.362 268.496 534.172 269.486C545.982 270.476 556.172 279.486 560.572 290.486C562.732 295.896 563.662 302.056 561.722 307.546C559.672 313.326 554.642 317.686 549.012 320.116C543.954 322.305 538.404 323.105 532.933 322.435C527.463 321.765 522.27 319.649 517.889 316.305C513.509 312.96 510.099 308.508 508.011 303.408C505.924 298.307 505.233 292.742 506.012 287.286" fill="#1E1C61"/>
<path d="M552.531 278.275C552.506 278.832 552.374 279.379 552.141 279.885C551.652 281.309 551.04 282.688 550.311 284.005C547.901 288.407 544.482 292.176 540.335 295.002C536.187 297.828 531.429 299.632 526.451 300.265C524.956 300.46 523.447 300.527 521.941 300.465C521.385 300.491 520.828 300.413 520.301 300.235C520.301 300.045 522.651 300.135 526.301 299.485C531.099 298.669 535.666 296.829 539.69 294.091C543.714 291.352 547.101 287.779 549.621 283.615C551.621 280.425 552.351 278.205 552.531 278.275Z" fill="#455A64"/>
<path d="M560.401 289.105C560.461 289.105 560.151 289.665 559.531 290.545C558.646 291.785 557.691 292.973 556.671 294.105C553.314 297.887 549.303 301.034 544.831 303.395C542.342 304.652 539.709 305.602 536.991 306.225C534.767 306.706 532.497 306.941 530.221 306.925C528.695 306.931 527.172 306.793 525.671 306.515C525.107 306.47 524.556 306.328 524.041 306.095C524.041 305.885 526.421 306.285 530.201 306.095C532.412 305.998 534.609 305.69 536.761 305.175C539.381 304.52 541.92 303.574 544.331 302.355C548.686 300.036 552.656 297.058 556.101 293.525C558.771 290.815 560.251 288.965 560.401 289.105Z" fill="#455A64"/>
<path d="M406.2 350.786C365.51 301.896 418.2 257.296 453.73 257.576C487.1 257.836 504.53 269.636 515.3 288.956C526.07 308.276 531.98 330.796 529.3 352.756C527.96 363.586 523.45 375.446 513.3 379.526" fill="#1E1C61"/>
<path d="M499.082 292.105L496.912 281.785L432.522 284.265C413.032 286.635 396.862 310.445 400.052 329.805C403.612 351.325 408.792 377.455 414.952 392.705C427.342 423.365 452.622 421.785 452.622 421.785L460.042 453.345L530.622 438.005L499.082 292.105Z" fill="#FCC6AB"/>
<path d="M413.351 352.006C413.587 353.073 414.23 354.006 415.143 354.606C416.057 355.205 417.168 355.424 418.241 355.216C418.77 355.139 419.279 354.956 419.736 354.678C420.193 354.401 420.59 354.035 420.904 353.601C421.217 353.168 421.44 352.676 421.56 352.154C421.68 351.633 421.694 351.093 421.601 350.566C421.366 349.501 420.724 348.57 419.813 347.971C418.901 347.371 417.792 347.151 416.721 347.356C416.191 347.433 415.682 347.615 415.223 347.891C414.765 348.168 414.366 348.534 414.052 348.968C413.738 349.402 413.514 349.894 413.393 350.416C413.273 350.938 413.259 351.479 413.351 352.006Z" fill="#1E1C61"/>
<path d="M409.312 342.106C409.802 342.476 413.052 341.666 417.502 342.316C421.952 342.966 425.122 344.666 425.632 344.436C425.882 344.336 425.402 343.726 424.032 342.956C422.01 341.894 419.816 341.197 417.552 340.896C415.376 340.551 413.154 340.619 411.002 341.096C409.622 341.486 409.072 341.946 409.312 342.106Z" fill="#1E1C61"/>
<path d="M454.252 343.305C454.487 344.37 455.129 345.301 456.04 345.901C456.951 346.5 458.06 346.721 459.132 346.515C459.661 346.438 460.169 346.255 460.626 345.977C461.084 345.7 461.481 345.334 461.794 344.9C462.107 344.467 462.33 343.975 462.45 343.453C462.57 342.932 462.584 342.392 462.492 341.865C462.256 340.8 461.615 339.868 460.704 339.267C459.793 338.666 458.684 338.443 457.612 338.645C457.081 338.723 456.572 338.906 456.114 339.184C455.656 339.462 455.258 339.829 454.945 340.264C454.631 340.698 454.409 341.192 454.29 341.714C454.17 342.237 454.157 342.778 454.252 343.305Z" fill="#1E1C61"/>
<path d="M452.272 336.796C452.872 336.796 455.022 334.256 458.972 332.106C462.922 329.956 466.432 329.326 466.712 328.856C466.852 328.636 466.132 328.466 464.582 328.716C462.343 329.132 460.188 329.912 458.202 331.026C456.258 332.037 454.513 333.393 453.052 335.026C452.122 336.166 451.982 336.816 452.272 336.796Z" fill="#1E1C61"/>
<path d="M444.821 368.886C444.821 368.636 441.951 368.796 437.391 369.246C436.251 369.386 435.131 369.406 434.771 368.686C434.411 367.966 434.511 366.626 434.771 365.196L436.121 355.886C437.921 342.666 438.951 331.886 438.421 331.836C437.891 331.786 435.991 342.426 434.191 355.646C433.771 358.899 433.371 362.006 432.991 364.966C432.861 366.346 432.461 367.966 433.421 369.506C433.675 369.865 434.008 370.161 434.395 370.371C434.781 370.581 435.211 370.699 435.651 370.716C436.322 370.747 436.994 370.689 437.651 370.546C442.101 369.756 444.861 369.106 444.821 368.886Z" fill="#1E1C61"/>
<path d="M452.701 421.865C452.701 421.865 475.491 417.995 493.761 400.365C493.761 400.365 488.151 425.125 454.541 429.795L452.701 421.865Z" fill="#CC8F75"/>
<path d="M449.122 379.045C449.716 377.8 450.617 376.727 451.74 375.926C452.863 375.125 454.172 374.622 455.542 374.465C456.53 374.33 457.536 374.395 458.498 374.658C459.461 374.921 460.36 375.376 461.142 375.995C461.899 376.59 462.455 377.403 462.734 378.324C463.013 379.246 463.002 380.23 462.702 381.145C461.902 383.085 459.512 384.045 457.272 383.935C455.031 383.674 452.863 382.974 450.892 381.875C450.316 381.64 449.787 381.301 449.332 380.875C449.117 380.67 448.969 380.405 448.904 380.115C448.84 379.825 448.864 379.522 448.972 379.245" fill="#CC8F75"/>
<path d="M448.151 315.695C448.861 316.795 453.151 315.215 458.411 314.695C463.671 314.175 468.201 314.575 468.631 313.345C468.821 312.765 467.841 311.805 465.891 311.045C463.334 310.112 460.59 309.807 457.891 310.155C455.181 310.443 452.579 311.372 450.301 312.865C448.621 314.015 447.841 315.175 448.151 315.695Z" fill="#1E1C61"/>
<path d="M408.621 328.695C409.621 329.515 412.411 327.785 416.041 326.895C419.671 326.005 422.911 326.015 423.381 324.805C423.571 324.235 422.861 323.345 421.291 322.715C419.223 321.994 416.987 321.906 414.868 322.464C412.75 323.022 410.846 324.199 409.401 325.845C408.311 327.165 408.131 328.285 408.621 328.695Z" fill="#1E1C61"/>
<path d="M463.311 374.155C463.651 374.805 460.531 377.055 456.961 380.035C453.391 383.015 450.591 385.635 449.961 385.175C449.331 384.715 451.421 381.175 455.261 378.025C459.101 374.875 463.001 373.525 463.311 374.155Z" fill="#1E1C61"/>
<path d="M499.941 331.925C500.321 331.595 514.011 320.435 519.101 338.305C524.191 356.175 505.201 357.595 505.031 357.095C504.861 356.595 499.941 331.925 499.941 331.925Z" fill="#FCC6AB"/>
<path d="M508.552 348.765C508.622 348.685 508.932 348.895 509.552 348.985C510.381 349.091 511.22 348.872 511.892 348.375C513.582 347.145 514.322 343.695 513.492 340.445C513.099 338.903 512.368 337.468 511.352 336.245C511.028 335.737 510.586 335.316 510.063 335.016C509.541 334.716 508.954 334.548 508.352 334.525C507.969 334.533 507.601 334.674 507.311 334.924C507.021 335.174 506.827 335.517 506.762 335.895C506.662 336.465 506.882 336.785 506.762 336.895C506.642 337.005 506.292 336.705 506.232 335.895C506.205 335.424 506.339 334.959 506.612 334.575C506.997 334.063 507.569 333.725 508.202 333.635C508.97 333.575 509.741 333.713 510.441 334.035C511.141 334.357 511.747 334.852 512.202 335.475C513.407 336.802 514.265 338.406 514.702 340.145C515.612 343.785 514.702 347.675 512.362 349.145C511.921 349.426 511.421 349.602 510.901 349.661C510.381 349.72 509.855 349.66 509.362 349.485C508.712 349.195 508.502 348.815 508.552 348.765Z" fill="#CC8F75"/>
<path d="M462.011 272.796C461.196 272.34 460.298 272.052 459.371 271.946C447.961 269.946 435.911 270.946 425.311 275.606C414.711 280.266 405.621 288.756 401.111 299.416C396.601 310.076 392.411 326.706 398.111 336.796L402.621 344.466C401.541 336.646 403.191 321.826 406.321 314.576C409.39 307.212 415.095 301.258 422.321 297.876C429.551 294.666 437.751 294.676 445.491 293.016C453.231 291.356 461.401 287.106 463.621 279.516C464.271 277.106 464.081 274.106 462.011 272.796Z" fill="#1E1C61"/>
<path d="M395.911 327.805C395.667 327.54 395.458 327.244 395.291 326.925C394.747 326.054 394.278 325.137 393.891 324.185C392.434 320.656 391.768 316.85 391.941 313.035C392.158 307.328 394 301.802 397.251 297.105C401.268 291.433 406.735 286.943 413.081 284.105C419.404 281.289 426.221 279.747 433.141 279.565C436.143 279.457 439.148 279.534 442.141 279.795C444.951 280.035 447.521 280.445 449.861 280.435C454.521 280.135 458.441 279.655 460.751 278.435C461.96 277.818 462.993 276.902 463.751 275.775C463.658 276.137 463.495 276.477 463.271 276.775C462.677 277.644 461.881 278.355 460.951 278.845C458.531 280.215 454.651 280.845 449.861 281.215C447.431 281.275 444.861 280.905 442.051 280.715C439.099 280.494 436.137 280.451 433.181 280.585C426.405 280.824 419.739 282.358 413.541 285.105C407.369 287.888 402.04 292.247 398.091 297.745C394.906 302.266 393.046 307.585 392.721 313.105C392.482 316.841 393.017 320.586 394.291 324.105C395.211 326.495 396.011 327.755 395.911 327.805Z" fill="#455A64"/>
<path d="M416.121 271.676C416.669 271.293 417.273 270.997 417.911 270.796C419.602 270.143 421.354 269.661 423.141 269.356C429.098 268.32 435.227 269.014 440.801 271.356C444.031 272.746 446.871 274.416 449.661 275.356C452.137 276.158 454.747 276.464 457.341 276.256C459.097 276.199 460.832 275.862 462.481 275.256C463.631 274.786 464.151 274.256 464.211 274.366C464.271 274.476 463.821 275.016 462.671 275.646C461.023 276.462 459.234 276.958 457.401 277.106C454.691 277.44 451.941 277.198 449.331 276.396C446.401 275.456 443.501 273.776 440.331 272.396C434.944 270.135 429.054 269.345 423.261 270.106C418.801 270.736 416.191 271.876 416.121 271.676Z" fill="#455A64"/>
<path d="M464.731 272.795C462.821 278.555 460.901 284.415 460.731 290.475C460.561 296.535 462.491 302.945 467.111 306.875C471.531 310.645 477.601 311.585 483.251 312.935C488.901 314.285 494.951 316.575 497.671 321.715C498.521 323.315 499.431 329.485 501.041 330.325C503.251 331.485 506.041 329.625 506.861 327.265C507.681 324.905 506.721 318.095 506.091 315.685C504.151 308.195 503.551 296.865 501.611 289.375C499.971 283.045 496.761 280.375 492.471 275.375C486.471 268.465 477.831 268.095 466.421 271.825" fill="#1E1C61"/>
<path d="M521.771 301.805C521.681 301.875 521.161 301.205 519.981 300.295C518.274 299.067 516.3 298.262 514.221 297.945C511.135 297.468 507.981 297.687 504.991 298.585C501.325 299.796 497.767 301.308 494.351 303.105C490.858 304.948 487.125 306.294 483.261 307.105C480.083 307.685 476.837 307.783 473.631 307.395C471.476 307.15 469.356 306.663 467.311 305.945C466.54 305.727 465.808 305.39 465.141 304.945C465.211 304.735 468.341 306.125 473.711 306.595C476.84 306.861 479.99 306.686 483.071 306.075C486.83 305.244 490.462 303.916 493.871 302.125C497.34 300.287 500.968 298.764 504.711 297.575C507.851 296.688 511.155 296.544 514.361 297.155C516.534 297.556 518.564 298.518 520.251 299.945C520.695 300.339 521.098 300.778 521.451 301.255C521.691 301.595 521.801 301.785 521.771 301.805Z" fill="#455A64"/>
<path d="M514.621 288.325C514.541 288.385 514.031 287.735 512.851 286.875C511.146 285.729 509.185 285.022 507.141 284.815C504.103 284.558 501.05 285.057 498.251 286.265C495.011 287.495 491.711 289.485 488.031 291.265C484.351 293.045 480.491 294.265 476.831 294.145C473.631 294.041 470.512 293.119 467.771 291.465C465.923 290.385 464.292 288.971 462.961 287.295C462.587 286.851 462.253 286.376 461.961 285.875C461.761 285.525 461.671 285.345 461.701 285.315C461.891 285.135 463.521 288.235 468.131 290.785C470.795 292.267 473.783 293.071 476.831 293.125C480.251 293.235 483.921 292.025 487.521 290.275C491.121 288.525 494.521 286.535 497.851 285.275C500.811 284.057 504.034 283.62 507.211 284.005C509.359 284.287 511.389 285.152 513.081 286.505C513.734 286.979 514.262 287.603 514.621 288.325V288.325Z" fill="#455A64"/>
<path d="M395.151 340.696L395.201 340.866L395.331 341.366C395.451 341.826 395.611 342.476 395.831 343.366C396.271 345.096 396.911 347.646 397.831 350.916C398.751 354.186 399.831 358.186 401.301 362.756C402.035 365.209 402.992 367.589 404.161 369.866C404.341 370.136 404.521 370.426 404.711 370.696C404.901 370.966 405.161 371.216 405.421 371.446C405.921 371.937 406.467 372.379 407.051 372.766C408.278 373.578 409.629 374.186 411.051 374.566C414.106 375.338 417.305 375.338 420.361 374.566C421.99 374.218 423.545 373.581 424.951 372.686C426.376 371.719 427.619 370.507 428.621 369.106C430.727 366.111 432.172 362.703 432.861 359.106C433.008 358.139 433.287 357.197 433.691 356.306C434.101 355.365 434.802 354.58 435.691 354.066C436.166 353.855 436.683 353.756 437.203 353.775C437.723 353.794 438.232 353.931 438.691 354.176C439.608 354.641 440.424 355.284 441.091 356.066C441.801 356.786 442.351 357.696 442.991 358.436C443.616 359.212 444.339 359.904 445.141 360.496C446.808 361.697 448.64 362.65 450.581 363.326C454.599 364.737 458.822 365.477 463.081 365.516C465.269 365.575 467.457 365.438 469.621 365.106C470.166 365.034 470.707 364.93 471.241 364.796C471.771 364.656 472.331 364.576 472.851 364.396L474.431 363.896C474.931 363.666 475.431 363.476 475.931 363.206C479.853 360.905 483.564 358.261 487.021 355.306C489.771 353.066 492.441 350.776 495.021 348.466L494.951 348.726C492.231 338.996 489.621 329.616 487.161 320.796L487.451 320.976L421.301 335.186L402.101 339.276L396.951 340.356L395.611 340.636L395.151 340.716L395.581 340.606L396.881 340.316L401.961 339.176L421.081 334.966L487.341 320.486H487.571L487.641 320.716C490.101 329.536 492.731 338.916 495.451 348.636V348.786L495.331 348.896C492.741 351.226 490.061 353.506 487.331 355.766C483.842 358.736 480.101 361.396 476.151 363.716C475.651 363.996 475.151 364.196 474.591 364.426L472.971 364.946C472.441 365.126 471.881 365.206 471.331 365.346C470.787 365.484 470.236 365.591 469.681 365.666C467.495 366.013 465.283 366.167 463.071 366.126C458.757 366.083 454.48 365.329 450.411 363.896C448.426 363.205 446.553 362.228 444.851 360.996C444.018 360.371 443.266 359.645 442.611 358.836C441.931 358.036 441.431 357.196 440.741 356.486C440.112 355.751 439.349 355.143 438.491 354.696C438.089 354.479 437.644 354.357 437.188 354.337C436.733 354.318 436.279 354.404 435.861 354.586C435.066 355.048 434.436 355.747 434.061 356.586C433.68 357.444 433.415 358.349 433.271 359.276C432.564 362.936 431.084 366.404 428.931 369.446C427.873 370.874 426.573 372.106 425.091 373.086C423.642 374.005 422.04 374.655 420.361 375.006C417.238 375.78 413.971 375.756 410.861 374.936C409.412 374.541 408.038 373.913 406.791 373.076C406.191 372.675 405.631 372.216 405.121 371.706C404.861 371.466 404.641 371.186 404.401 370.936C404.161 370.686 404.011 370.346 403.811 370.056C402.642 367.752 401.688 365.345 400.961 362.866C399.481 358.276 398.441 354.266 397.581 350.986C396.721 347.706 396.111 345.146 395.711 343.406C395.511 342.546 395.361 341.88 395.261 341.406L395.151 340.896C395.145 340.83 395.145 340.763 395.151 340.696V340.696Z" fill="#1E1C61"/>
<path d="M405.051 370.106C404.911 370.106 403.251 364.196 401.331 356.836C399.411 349.476 397.971 343.466 398.111 343.426C398.251 343.386 399.911 349.336 401.831 356.706C403.751 364.076 405.191 370.026 405.051 370.106Z" fill="#FAFAFA"/>
<path d="M429.201 346.975C429.331 347.035 427.511 351.575 425.121 357.125C422.731 362.675 420.691 367.125 420.561 367.075C420.431 367.025 422.251 362.475 424.641 356.915C427.031 351.355 429.071 346.915 429.201 346.975Z" fill="#FAFAFA"/>
<path d="M434.431 340.346C434.234 341.335 433.943 342.302 433.561 343.236C432.941 344.996 432.021 347.406 430.921 350.026C429.821 352.646 428.731 355.026 427.921 356.646C427.517 357.57 427.031 358.457 426.471 359.296C426.764 358.332 427.138 357.395 427.591 356.496L430.461 349.816L433.231 343.106C433.557 342.155 433.958 341.232 434.431 340.346V340.346Z" fill="#FAFAFA"/>
<path d="M479.621 330.105C479.542 330.452 479.422 330.788 479.261 331.105C479.001 331.715 478.611 332.595 478.121 333.685C477.121 335.855 475.751 338.825 474.181 342.105C471.671 347.365 469.471 351.795 468.661 353.255L468.381 353.755L468.511 353.205C468.537 352.966 468.604 352.732 468.711 352.515C468.74 352.755 468.74 352.996 468.711 353.235L468.551 353.185C469.181 351.635 471.241 347.185 473.751 341.885C475.321 338.605 476.751 335.655 477.831 333.525C478.361 332.455 478.831 331.605 479.121 331.015C479.242 330.689 479.41 330.382 479.621 330.105Z" fill="#FAFAFA"/>
<path d="M481.562 334.006C480.361 337.121 478.999 340.172 477.482 343.146C476.117 346.209 474.595 349.2 472.922 352.106C474.126 348.991 475.492 345.94 477.012 342.966C478.371 339.902 479.89 336.911 481.562 334.006Z" fill="#FAFAFA"/>
<path d="M477.122 360.656C476.787 360.918 476.425 361.142 476.042 361.326C475.615 361.583 475.17 361.81 474.712 362.006C474.182 362.236 473.582 362.536 472.892 362.766C472.141 363.049 471.377 363.293 470.602 363.496C469.716 363.744 468.818 363.944 467.912 364.096C465.833 364.43 463.725 364.55 461.622 364.456C459.517 364.332 457.429 363.997 455.392 363.456C454.507 363.211 453.636 362.921 452.782 362.586C452.031 362.3 451.299 361.966 450.592 361.586C449.993 361.309 449.412 360.995 448.852 360.646C448.418 360.403 448 360.133 447.602 359.836C447.236 359.62 446.9 359.358 446.602 359.056C446.662 358.966 448.112 360.056 450.742 361.256C451.456 361.59 452.187 361.887 452.932 362.146C453.722 362.466 454.602 362.696 455.522 362.966C457.529 363.492 459.581 363.827 461.652 363.966C463.72 364.055 465.792 363.952 467.842 363.656C468.782 363.476 469.682 363.346 470.492 363.106C471.261 362.931 472.019 362.71 472.762 362.446C475.502 361.486 477.072 360.556 477.122 360.656Z" fill="#FAFAFA"/>
<path d="M495.201 348.636C495.128 348.479 495.071 348.315 495.031 348.146L494.591 346.666C494.191 345.306 493.591 343.406 492.951 341.046C491.541 336.136 489.591 329.316 487.341 321.426L487.211 320.986L487.651 321.116L498.521 324.326L506.701 326.756H506.851V326.896C508.001 332.296 509.061 337.256 509.971 341.506V341.676L509.821 341.746L499.081 346.746L496.151 348.106L495.391 348.446L495.141 348.546L495.411 348.386L496.191 347.986L499.131 346.516L509.641 341.326L509.531 341.556C508.591 337.306 507.531 332.356 506.321 326.966L506.501 327.156L498.321 324.736L487.441 321.506L487.761 321.196L493.081 340.706C493.721 343.116 494.241 345.046 494.611 346.426C494.771 347.076 494.911 347.586 495.011 347.976C495.111 348.366 495.201 348.616 495.201 348.636Z" fill="#1E1C61"/>
<path d="M395.152 341.626L393.932 336.456L486.672 315.986L488.122 321.826L395.152 341.626Z" fill="#1E1C61"/>
<path d="M486.672 315.986L505.872 322.466L507.082 327.556L488.122 321.826L486.672 315.986Z" fill="#1E1C61"/>
<path d="M420.731 448.456L448.391 438.906L528.781 416.596L601.131 437.906V579.246V746.851L414.57 778.284L430.891 616.936L420.731 448.456Z" fill="white"/>
<path d="M460.541 669.645C460.541 669.645 460.541 669.415 460.541 668.985C460.541 668.555 460.641 667.895 460.711 667.055C460.881 665.345 461.121 662.855 461.431 659.645C462.091 653.205 463.031 643.905 464.201 632.425C466.571 609.425 469.871 577.675 473.781 542.635C474.448 537.055 475.078 531.565 475.671 526.165C476.321 520.785 476.941 515.495 477.731 510.365C479.451 500.115 481.731 490.515 483.821 481.595C488.081 463.775 492.061 448.765 495.021 437.865V437.955L489.831 423.595L488.491 419.795L488.171 418.795C488.135 418.683 488.105 418.57 488.081 418.455L495.291 437.835V437.885C492.411 448.795 488.481 463.815 484.291 481.635C482.221 490.555 479.971 500.165 478.291 510.385C477.501 515.495 476.891 520.785 476.291 526.165C475.691 531.545 475.041 537.055 474.401 542.635C470.491 577.635 467.131 609.425 464.661 632.395C463.431 643.875 462.431 653.165 461.741 659.615C461.381 662.805 461.111 665.295 460.921 667.005C460.821 667.835 460.751 668.475 460.691 668.925C460.631 669.375 460.541 669.645 460.541 669.645Z" fill="#DCE6FF"/>
<path d="M444.762 537.775L435.512 610.715L478.942 620.325L489.652 541.355L444.762 537.775Z" fill="#294197"/>
<path d="M447.261 540.975C447.071 541.535 438.751 607.315 439.321 607.505C439.891 607.695 474.861 614.915 474.861 614.915L485.431 544.325L447.261 540.975Z" fill="white"/>
<path d="M475.281 615.516L474.761 615.406C471.181 614.666 439.761 608.176 439.161 607.976L438.961 607.916L438.861 607.716C438.731 607.456 438.491 606.976 442.541 574.036C444.301 559.716 446.651 541.206 446.781 540.816L446.911 540.436L486.001 543.876L485.921 544.406L475.281 615.516ZM439.791 607.106C442.621 607.736 463.021 611.956 474.441 614.316L484.851 544.786L447.681 541.516C446.961 546.896 439.911 602.246 439.791 607.106Z" fill="#1E1C61"/>
<path d="M444.762 537.775C444.762 537.775 452.122 536.285 453.162 531.775L480.082 532.945C480.975 534.956 482.293 536.75 483.945 538.203C485.597 539.657 487.544 540.735 489.652 541.365L444.762 537.775Z" fill="#294197"/>
<path d="M465.602 507.945V526.465H471.792L472.752 507.945H465.602Z" fill="#455A64"/>
<path d="M529.741 418.476L526.381 407.936L450.291 429.206L453.131 439.586L464.591 471.516L538.991 436.396L529.741 418.476Z" fill="white"/>
<path d="M443.291 439.586C443.291 440.646 465.601 507.946 465.601 507.946H472.751L543.501 420.946L535.161 418.496L469.821 500.706L450.991 438.186L443.291 439.586Z" fill="#1E1C61"/>
<path d="M474.902 519.115L472.842 535.525L463.682 534.805L463.352 519.115H474.902Z" fill="#1E1C61"/>
<path d="M601.131 437.906C601.131 437.906 587.031 430.906 574.331 460.716C561.631 490.526 561.691 567.466 561.691 567.466L558.551 598.416L487.801 574.696L473.801 634.826C473.801 634.826 549.631 662.156 575.801 666.516C601.971 670.876 613.501 668.516 617.071 658.586C620.641 648.656 626.781 583.196 626.781 583.196L632.781 524.196C633.558 516.577 633.373 508.89 632.231 501.316C629.031 480.106 620.341 439.256 601.131 437.906Z" fill="white"/>
<path d="M486.871 447.685C486.871 447.685 486.761 447.775 486.521 447.915C486.281 448.055 485.931 448.235 485.461 448.455C484.164 449.097 482.828 449.658 481.461 450.135C479.409 450.86 477.288 451.373 475.131 451.665C472.472 452.033 469.771 451.973 467.131 451.485C464.499 450.956 462 449.905 459.781 448.395C457.962 447.17 456.392 445.613 455.151 443.805C454.308 442.581 453.667 441.231 453.251 439.805C453.133 439.422 453.042 439.031 452.981 438.635C452.957 438.499 452.957 438.36 452.981 438.225C453.535 440.123 454.385 441.922 455.501 443.555C456.755 445.284 458.31 446.775 460.091 447.955C462.271 449.411 464.713 450.429 467.281 450.955C472.004 451.734 476.846 451.325 481.371 449.765C483.121 449.205 484.501 448.655 485.451 448.255C485.909 448.028 486.384 447.838 486.871 447.685V447.685Z" fill="#DCE6FF"/>
<path d="M529.431 426.725C529.191 426.974 528.919 427.189 528.621 427.365C528.081 427.745 527.281 428.275 526.271 428.895C523.643 430.511 520.921 431.97 518.121 433.265C515.315 434.556 512.433 435.675 509.491 436.615C508.371 436.965 507.491 437.235 506.801 437.395C506.477 437.501 506.141 437.568 505.801 437.595C506.974 437.09 508.172 436.646 509.391 436.265C511.601 435.465 514.641 434.265 517.911 432.785C521.181 431.305 524.051 429.785 526.101 428.585C527.176 427.904 528.288 427.283 529.431 426.725V426.725Z" fill="#DCE6FF"/>
<path d="M488.621 432.155C488.621 432.871 488.409 433.571 488.011 434.166C487.613 434.762 487.048 435.226 486.386 435.5C485.725 435.774 484.997 435.845 484.295 435.706C483.592 435.566 482.947 435.221 482.441 434.715C481.935 434.209 481.59 433.564 481.45 432.861C481.311 432.159 481.382 431.431 481.656 430.77C481.93 430.108 482.394 429.543 482.99 429.145C483.585 428.747 484.285 428.535 485.001 428.535C485.961 428.535 486.882 428.917 487.561 429.595C488.239 430.274 488.621 431.195 488.621 432.155V432.155Z" fill="#DCE6FF"/>
<path d="M481.382 471.136C483.381 471.136 485.002 469.516 485.002 467.516C485.002 465.517 483.381 463.896 481.382 463.896C479.382 463.896 477.762 465.517 477.762 467.516C477.762 469.516 479.382 471.136 481.382 471.136Z" fill="#DCE6FF"/>
<path d="M485.001 635.615C487 635.615 488.621 633.994 488.621 631.995C488.621 629.996 487 628.375 485.001 628.375C483.002 628.375 481.381 629.996 481.381 631.995C481.381 633.994 483.002 635.615 485.001 635.615Z" fill="#DCE6FF"/>
<path d="M633.861 513.895C633.861 513.895 633.861 514.355 633.751 515.235C633.641 516.115 633.541 517.455 633.371 519.175C633.031 522.645 632.521 527.745 631.881 534.315C630.561 547.465 628.661 566.485 626.311 589.975C625.161 601.735 623.841 614.605 622.181 628.395C621.331 635.285 620.441 642.395 619.231 649.725L618.751 652.465L618.181 655.225C617.829 657.102 617.231 658.925 616.401 660.645C615.475 662.366 614.181 663.862 612.611 665.025L611.381 665.845C610.961 666.085 610.511 666.285 610.071 666.515L609.401 666.835L608.711 667.075L607.311 667.575C603.453 668.547 599.477 668.972 595.501 668.835C591.449 668.729 587.406 668.395 583.391 667.835C579.321 667.345 575.251 666.645 571.141 665.835C567.031 665.025 562.951 664.105 558.821 663.105C542.311 659.055 525.371 654.265 508.071 649.235C496.071 645.742 484.331 642.228 472.851 638.695L472.621 638.625L472.681 638.395C477.681 616.815 482.541 596.145 487.071 576.775L487.121 576.525L487.371 576.595L558.621 598.235L558.371 598.405C561.091 571.845 563.301 550.315 564.831 535.405C565.611 527.975 566.211 522.195 566.621 518.265L567.101 513.795C567.211 512.795 567.281 512.285 567.281 512.285C567.281 512.285 567.281 512.795 567.161 513.805C567.041 514.815 566.921 516.315 566.731 518.275C566.351 522.205 565.731 527.985 565.051 535.435C563.561 550.335 561.411 571.865 558.751 598.435V598.675L558.531 598.605L487.231 577.105L487.531 576.935C483.021 596.305 478.211 616.935 473.181 638.555L473.011 638.255C484.471 641.775 496.208 645.285 508.221 648.785C525.521 653.785 542.451 658.605 558.941 662.665C563.061 663.665 567.161 664.615 571.241 665.455C575.321 666.295 579.401 666.945 583.451 667.455C587.429 668.018 591.435 668.351 595.451 668.455C599.405 668.56 603.354 668.105 607.181 667.105C609.021 666.567 610.76 665.733 612.331 664.635C613.845 663.515 615.091 662.074 615.981 660.415C616.796 658.734 617.385 656.951 617.731 655.115L618.301 652.375C618.461 651.455 618.621 650.545 618.771 649.635C620.001 642.345 620.901 635.225 621.771 628.335C623.451 614.555 624.771 601.685 625.961 589.935C628.381 566.445 630.341 547.435 631.691 534.285C632.381 527.725 632.921 522.625 633.291 519.155C633.471 517.435 633.621 516.155 633.711 515.225C633.801 514.295 633.861 513.895 633.861 513.895Z" fill="#DCE6FF"/>
<path d="M576.772 625.456C576.672 625.456 576.322 623.596 575.342 620.686C574.777 618.981 574.109 617.311 573.342 615.686C572.375 613.712 571.272 611.808 570.042 609.986C568.787 608.175 567.407 606.454 565.912 604.836C564.686 603.524 563.38 602.289 562.002 601.136C559.642 599.136 558.002 598.136 558.062 598.076C558.477 598.251 558.873 598.469 559.242 598.726C559.612 598.946 560.062 599.236 560.552 599.596C561.042 599.956 561.642 600.346 562.232 600.846C563.648 601.973 564.985 603.196 566.232 604.506C567.764 606.124 569.172 607.856 570.442 609.686C571.686 611.536 572.793 613.474 573.752 615.486C574.536 617.131 575.204 618.829 575.752 620.566C576.002 621.306 576.152 621.986 576.312 622.566C576.442 623.074 576.546 623.588 576.622 624.106C576.717 624.55 576.767 625.002 576.772 625.456Z" fill="#DCE6FF"/>
<path d="M596.432 437.445C596.283 437.569 596.118 437.674 595.942 437.755C595.552 437.955 595.072 438.225 594.492 438.545L593.432 439.105C593.062 439.315 592.662 439.575 592.232 439.845C591.372 440.385 590.352 440.955 589.332 441.725L587.702 442.895C587.142 443.305 586.592 443.785 586.012 444.255C584.822 445.175 583.672 446.255 582.442 447.455C579.851 450.048 577.507 452.877 575.442 455.905C573.422 458.962 571.688 462.199 570.262 465.575C569.662 467.155 569.042 468.645 568.642 470.095C568.432 470.815 568.182 471.495 568.022 472.175C567.862 472.855 567.702 473.505 567.552 474.125C567.222 475.365 567.082 476.515 566.902 477.515C566.812 478.015 566.722 478.515 566.662 478.915C566.602 479.315 566.582 479.735 566.542 480.105C566.472 480.765 566.412 481.305 566.362 481.745C566.351 481.939 566.317 482.13 566.262 482.315C566.238 482.123 566.238 481.928 566.262 481.735C566.262 481.309 566.292 480.759 566.352 480.085C566.352 479.715 566.352 479.315 566.432 478.885C566.512 478.455 566.552 477.985 566.622 477.475C566.757 476.326 566.951 475.185 567.202 474.055C567.342 473.415 567.492 472.765 567.642 472.055C567.792 471.345 568.032 470.675 568.242 469.945C568.632 468.475 569.242 466.945 569.822 465.375C572.606 458.501 576.788 452.279 582.102 447.105C583.362 445.955 584.522 444.825 585.742 443.915C586.332 443.445 586.892 442.965 587.462 442.565L589.132 441.415C590.099 440.753 591.101 440.142 592.132 439.585C592.572 439.325 592.982 439.075 593.362 438.875L594.442 438.355L595.942 437.645C596.098 437.561 596.262 437.494 596.432 437.445V437.445Z" fill="#DCE6FF"/>
<path d="M301.621 513.526L306.981 557.386C306.981 557.386 311.421 620.326 332.981 620.326C355.221 620.326 378.811 610.266 384.101 602.626C389.391 594.986 429.991 544.626 429.991 544.626L420.701 448.506C420.701 448.506 405.621 460.836 399.041 475.986C392.461 491.136 356.901 540.036 356.901 540.036L350.321 509.496L301.621 513.526Z" fill="white"/>
<path d="M359.811 547.996C359.93 548.177 360.034 548.367 360.121 548.566C360.341 548.996 360.611 549.566 360.951 550.226C361.291 550.886 361.741 551.846 362.151 552.916C362.561 553.986 363.151 555.176 363.561 556.556C363.791 557.246 364.041 557.956 364.301 558.706C364.561 559.456 364.741 560.246 364.981 561.066C365.481 562.696 365.851 564.476 366.261 566.346C367.916 574.503 368.183 582.88 367.051 591.126C366.751 593.016 366.501 594.816 366.101 596.466C365.921 597.296 365.771 598.106 365.571 598.876L364.971 601.066C364.621 602.466 364.151 603.696 363.791 604.786C363.506 605.72 363.173 606.638 362.791 607.536C362.501 608.246 362.261 608.816 362.071 609.256C362.006 609.462 361.912 609.657 361.791 609.836C361.837 609.625 361.901 609.417 361.981 609.216C362.141 608.766 362.351 608.216 362.601 607.466C362.851 606.716 363.231 605.786 363.551 604.686C363.871 603.586 364.321 602.366 364.641 600.966L365.211 598.776C365.401 598.016 365.531 597.206 365.711 596.386C366.081 594.736 366.321 592.936 366.601 591.056C367.104 586.963 367.307 582.839 367.211 578.716C367.051 574.594 366.587 570.489 365.821 566.436C365.421 564.576 365.071 562.806 364.601 561.176C364.371 560.366 364.181 559.566 363.941 558.826C363.701 558.086 363.461 557.356 363.241 556.676C362.831 555.296 362.311 554.096 361.911 553.026C361.511 551.956 361.131 551.026 360.801 550.316C360.471 549.606 360.251 549.046 360.061 548.606C359.952 548.414 359.868 548.209 359.811 547.996Z" fill="#DCE6FF"/>
<path d="M426.742 536.106C426.602 536.106 424.332 525.476 421.672 512.316C419.012 499.156 416.972 488.446 417.112 488.426C417.252 488.406 419.522 499.046 422.182 512.206C424.842 525.366 426.882 536.106 426.742 536.106Z" fill="#DCE6FF"/>
<path d="M316.22 523.466C316.22 524.182 316.008 524.882 315.61 525.477C315.213 526.072 314.647 526.536 313.986 526.81C313.324 527.084 312.596 527.156 311.894 527.016C311.192 526.876 310.547 526.532 310.041 526.025C309.534 525.519 309.19 524.874 309.05 524.172C308.91 523.47 308.982 522.742 309.256 522.08C309.53 521.419 309.994 520.854 310.589 520.456C311.185 520.058 311.885 519.846 312.6 519.846C313.561 519.846 314.481 520.227 315.16 520.906C315.839 521.585 316.22 522.506 316.22 523.466Z" fill="#DCE6FF"/>
<path d="M349.392 510.786L343.202 477.246L307.102 471.516C307.682 471.516 306.992 513.076 306.992 513.076L349.392 510.786Z" fill="#FFD1BD"/>
<path d="M304.791 396.646L293.261 409.646L290.701 411.246C289.938 411.726 289.285 412.362 288.784 413.111C288.282 413.861 287.944 414.707 287.791 415.596L287.231 418.876C287.231 418.876 284.741 418.516 284.391 421.716C284.041 424.916 284.391 428.006 286.521 430.226C289.161 433.056 295.701 438.766 295.701 438.766C295.701 438.766 305.171 451.826 305.301 453.396C305.941 461.136 305.751 490.956 305.751 490.956L346.681 488.956L332.071 433.526C332.071 433.526 333.641 432.526 333.351 427.956C334.17 425.962 334.273 423.746 333.641 421.686C333.641 421.686 334.491 415.976 333.071 413.556C334.462 412.537 335.466 411.078 335.921 409.416C336.491 406.846 334.491 404.416 330.641 401.856C326.791 399.296 320.511 394.726 318.231 394.156C316.871 393.816 313.121 393.926 310.321 394.076C308.211 394.169 306.223 395.092 304.791 396.646V396.646Z" fill="#A1D9F2"/>
<path d="M313.422 436.786L318.532 450.656C319.531 451.341 320.721 451.691 321.932 451.656C324.122 451.656 328.382 450.916 330.302 448.986C331.416 447.662 332.076 446.014 332.182 444.286L326.312 428.796L319.742 427.576L315.122 431.226L313.422 436.786Z" fill="#294197"/>
<path d="M321.141 448.106L355.711 533.446L359.811 531.996L329.751 445.776C329.751 445.776 324.901 442.896 321.141 448.106Z" fill="#F57E71"/>
<path d="M329.411 436.936C328.609 436.827 327.814 436.667 327.031 436.456C325.148 436.067 323.197 436.146 321.351 436.686C320.354 437.018 319.413 437.5 318.561 438.116C317.876 438.638 317.252 439.235 316.701 439.896C315.701 441.036 315.351 441.896 315.281 441.896C315.483 441.092 315.87 440.345 316.411 439.716C316.948 438.997 317.573 438.349 318.271 437.786C319.151 437.113 320.138 436.592 321.191 436.246C323.117 435.665 325.167 435.63 327.111 436.146C327.692 436.283 328.26 436.467 328.811 436.696C329.211 436.796 329.421 436.896 329.411 436.936Z" fill="#FAFAFA"/>
<path d="M332.491 445.106C331.729 444.731 330.948 444.397 330.151 444.106C328.206 443.416 326.08 443.439 324.151 444.172C322.222 444.905 320.617 446.299 319.621 448.106C319.245 448.867 318.911 449.648 318.621 450.446C318.594 450.211 318.614 449.973 318.681 449.746C318.82 449.115 319.038 448.503 319.331 447.926C320.293 445.965 321.964 444.442 324.006 443.665C326.047 442.887 328.307 442.913 330.331 443.736C330.932 443.968 331.5 444.277 332.021 444.656C332.341 444.906 332.511 445.106 332.491 445.106Z" fill="#FAFAFA"/>
<path d="M332.621 431.106C332.554 429.247 332.133 427.417 331.381 425.716C330.538 423.894 329.322 422.269 327.811 420.946C325.938 419.347 323.731 418.189 321.351 417.556C318.97 416.921 316.496 416.708 314.041 416.926C312.03 417.104 310.042 417.492 308.111 418.086C306.461 418.596 305.161 419.086 304.271 419.476C303.817 419.696 303.345 419.88 302.861 420.026C303.276 419.74 303.719 419.496 304.181 419.296C305.42 418.696 306.696 418.175 308.001 417.736C309.946 417.082 311.959 416.649 314.001 416.446C316.514 416.197 319.052 416.404 321.491 417.056C323.943 417.707 326.212 418.915 328.121 420.586C329.67 421.971 330.899 423.677 331.721 425.586C332.278 426.853 332.617 428.206 332.721 429.586C332.748 429.962 332.748 430.34 332.721 430.716C332.713 430.851 332.679 430.983 332.621 431.106Z" fill="#70C5EB"/>
<path d="M320.511 425.746C320.35 426.38 320.046 426.969 319.621 427.466C318.666 428.73 317.432 429.756 316.014 430.464C314.597 431.172 313.035 431.542 311.451 431.546C310.799 431.581 310.146 431.472 309.541 431.226C309.541 431.136 310.281 431.226 311.441 431.176C312.953 431.079 314.43 430.681 315.785 430.004C317.14 429.328 318.346 428.386 319.331 427.236C320.081 426.346 320.441 425.706 320.511 425.746Z" fill="#70C5EB"/>
<path d="M332.622 432.465C332.622 432.465 332.292 432.835 331.552 433.035C330.568 433.292 329.522 433.164 328.628 432.677C327.735 432.191 327.06 431.381 326.742 430.415C326.502 429.695 326.572 429.215 326.632 429.215C326.692 429.215 326.782 429.655 327.082 430.285C327.456 431.107 328.088 431.785 328.882 432.215C329.677 432.644 330.59 432.802 331.482 432.665C332.152 432.575 332.622 432.385 332.622 432.465Z" fill="#70C5EB"/>
<path d="M332.991 420.625C332.629 420.282 332.295 419.911 331.991 419.515C331.381 418.785 330.481 417.735 329.321 416.515C326.303 413.272 322.951 410.356 319.321 407.815C318.862 407.427 318.323 407.144 317.742 406.987C317.162 406.83 316.554 406.802 315.961 406.905C314.852 407.263 313.766 407.691 312.711 408.185L307.191 410.525L303.451 412.065C302.996 412.273 302.525 412.44 302.041 412.565C302.458 412.293 302.9 412.062 303.361 411.875C304.361 411.435 305.561 410.875 307.041 410.185L312.521 407.745L314.111 407.045C314.67 406.778 315.252 406.564 315.851 406.405C316.511 406.24 317.204 406.264 317.851 406.475C318.486 406.689 319.086 406.996 319.631 407.385C323.304 409.939 326.661 412.92 329.631 416.265C330.761 417.555 331.631 418.635 332.191 419.405C332.497 419.785 332.765 420.194 332.991 420.625Z" fill="#70C5EB"/>
<path d="M333.071 413.476C332.632 413.176 332.217 412.842 331.831 412.476L328.621 409.786C325.063 406.758 321.337 403.934 317.461 401.326C316.363 400.618 315.152 400.104 313.881 399.806C312.695 399.566 311.467 399.642 310.321 400.026C308.377 400.763 306.549 401.773 304.891 403.026C303.739 403.868 302.53 404.627 301.271 405.296C300.926 405.468 300.572 405.622 300.211 405.756C299.951 405.846 299.821 405.886 299.811 405.866C299.801 405.846 300.311 405.606 301.181 405.116C302.389 404.383 303.558 403.585 304.681 402.726C306.336 401.382 308.192 400.306 310.181 399.536C311.399 399.103 312.713 399.01 313.981 399.266C315.313 399.57 316.582 400.105 317.731 400.846C321.637 403.458 325.356 406.338 328.861 409.466C330.211 410.646 331.281 411.626 332.021 412.316C332.405 412.671 332.756 413.059 333.071 413.476Z" fill="#70C5EB"/>
<path d="M312.622 436.396C312.09 437.399 311.271 438.22 310.27 438.755C309.269 439.289 308.131 439.513 307.002 439.396C308.024 439.092 309.026 438.725 310.002 438.296C310.913 437.717 311.788 437.083 312.622 436.396V436.396Z" fill="#70C5EB"/>
<path d="M313.302 448.455C312.584 448.498 311.863 448.417 311.172 448.215C309.485 447.849 307.847 447.285 306.292 446.535C304.729 445.796 303.262 444.869 301.922 443.775C301.335 443.364 300.821 442.857 300.402 442.275C302.342 443.689 304.384 444.956 306.512 446.065C308.714 447.026 310.984 447.825 313.302 448.455Z" fill="#70C5EB"/>
<path d="M296.092 421.415C296.092 421.495 295.452 421.235 294.422 421.155C293.093 421.053 291.766 421.364 290.622 422.045C289.497 422.759 288.626 423.808 288.132 425.045C287.742 426.045 287.702 426.655 287.612 426.655C287.494 426.071 287.553 425.465 287.782 424.915C288.213 423.537 289.127 422.36 290.356 421.602C291.585 420.843 293.046 420.553 294.472 420.785C295.063 420.826 295.628 421.045 296.092 421.415V421.415Z" fill="#70C5EB"/>
<path d="M356.391 540.185L384.231 603.545C385.026 605.243 386.451 606.564 388.204 607.229C389.957 607.893 391.9 607.849 393.621 607.105V607.105C394.51 606.728 395.314 606.176 395.986 605.482C396.658 604.788 397.184 603.967 397.533 603.066C397.881 602.165 398.046 601.204 398.016 600.238C397.987 599.273 397.764 598.323 397.361 597.445L370.481 534.365L356.391 540.185Z" fill="#F5F5F5"/>
<path d="M356.391 540.185L356.621 540.105L357.311 539.805L360.031 538.645L370.391 534.275L370.521 534.215L370.581 534.345L382.771 562.735C385.211 568.435 387.821 574.555 390.571 580.975L394.771 590.835L396.941 595.915C397.324 596.772 397.658 597.65 397.941 598.545C398.202 599.488 398.27 600.475 398.141 601.445C397.945 603.005 397.263 604.464 396.191 605.615C395.659 606.173 395.05 606.651 394.381 607.035C393.702 607.394 392.979 607.663 392.231 607.835C390.744 608.13 389.203 607.969 387.809 607.373C386.416 606.777 385.235 605.774 384.421 604.495C384.06 603.867 383.743 603.216 383.471 602.545C383.191 601.895 382.901 601.245 382.621 600.605C382.051 599.315 381.501 598.035 380.941 596.775C379.841 594.245 378.751 591.775 377.701 589.365C373.491 579.725 369.701 571.045 366.521 563.735C363.341 556.425 360.811 550.595 359.041 546.505C358.171 544.505 357.501 542.925 357.041 541.825L356.531 540.625C356.465 540.493 356.412 540.356 356.371 540.215C356.371 540.215 356.451 540.365 356.581 540.645L357.141 541.865C357.631 542.965 358.331 544.545 359.241 546.565L366.901 563.775L378.171 589.245L381.421 596.605C381.971 597.865 382.531 599.125 383.101 600.405L383.941 602.335C384.205 602.985 384.513 603.616 384.861 604.225C385.62 605.414 386.72 606.346 388.017 606.899C389.314 607.452 390.748 607.601 392.131 607.325C392.83 607.171 393.503 606.918 394.131 606.575C394.757 606.222 395.327 605.777 395.821 605.255C396.631 604.39 397.206 603.332 397.491 602.182C397.777 601.032 397.763 599.828 397.451 598.685C397.165 597.814 396.831 596.959 396.451 596.125C395.731 594.415 395.011 592.715 394.291 591.045L390.091 581.175L382.341 562.915L370.341 534.465L370.531 534.545L360.191 538.725L357.411 539.845L356.621 540.105L356.391 540.185Z" fill="#1E1C61"/>
<path d="M372.102 572.106L385.102 602.396C385.778 603.82 386.979 604.928 388.453 605.487C389.928 606.046 391.561 606.013 393.012 605.396V605.396C393.764 605.078 394.444 604.611 395.013 604.024C395.581 603.437 396.026 602.742 396.321 601.98C396.616 601.218 396.754 600.405 396.729 599.588C396.703 598.771 396.514 597.968 396.172 597.226L383.242 567.486L372.102 572.106Z" fill="#F57E71"/>
<path d="M453.002 563.846L485.602 584.266L474.902 628.986L443.502 600.046L453.002 563.846Z" fill="#FFD1BD"/>
<path d="M353.622 542.676C353.622 542.676 351.252 538.676 353.702 535.876C355.992 533.276 368.272 522.816 373.112 518.726C374.36 517.641 375.969 517.064 377.622 517.106L400.472 517.816C400.472 517.816 411.652 516.546 412.722 517.816C413.792 519.086 420.362 526.816 420.362 526.816L437.952 553.176L466.862 571.126C466.862 571.126 471.232 596.106 448.332 606.106L431.822 593.816C427.239 593.808 422.767 592.413 418.992 589.816C413.102 585.536 394.532 555.356 394.532 555.356C394.532 555.356 377.532 555.666 374.262 556.056C370.992 556.446 366.012 555.436 365.822 552.946C365.822 552.946 362.452 555.016 360.312 554.816C359.394 554.817 358.503 554.503 357.79 553.926C357.076 553.349 356.582 552.544 356.392 551.646C355.486 551.415 354.667 550.927 354.033 550.24C353.399 549.553 352.979 548.697 352.822 547.776C352.372 544.046 353.622 542.676 353.622 542.676Z" fill="#A1D9F2"/>
<path d="M418.971 526.965C418.722 527.92 418.355 528.84 417.881 529.705C415.774 534 412.766 537.789 409.061 540.815C408.323 541.473 407.507 542.037 406.631 542.495C407.324 541.789 408.055 541.121 408.821 540.495C410.57 538.922 412.188 537.209 413.661 535.375C415.118 533.526 416.419 531.559 417.551 529.495C417.977 528.626 418.451 527.781 418.971 526.965V526.965Z" fill="#70C5EB"/>
<path d="M421.36 531.766C421.374 532.102 421.344 532.438 421.27 532.766C421.18 533.426 421 534.376 420.74 535.546C419.359 541.642 416.977 547.468 413.69 552.786C413.05 553.786 412.51 554.606 412.11 555.146C411.927 555.441 411.705 555.71 411.45 555.946C411.39 555.946 412.19 554.666 413.37 552.596C414.905 549.908 416.268 547.126 417.45 544.266C418.616 541.395 419.595 538.452 420.38 535.456C420.99 533.196 421.28 531.756 421.36 531.766Z" fill="#70C5EB"/>
<path d="M427.682 537.305C427.732 537.636 427.732 537.973 427.682 538.305C427.682 538.965 427.502 539.905 427.292 541.065C426.719 544.076 425.785 547.007 424.512 549.795C423.236 552.584 421.634 555.212 419.742 557.625C419.173 558.357 418.565 559.058 417.922 559.725C417.698 559.985 417.446 560.22 417.172 560.425C417.102 560.365 418.072 559.285 419.442 557.425C423.051 552.531 425.602 546.939 426.932 541.005C427.412 538.735 427.622 537.295 427.682 537.305Z" fill="#70C5EB"/>
<path d="M444.702 571.035C444.693 571.374 444.643 571.709 444.552 572.035C444.361 572.945 444.121 573.843 443.832 574.725C442.89 577.647 441.565 580.432 439.892 583.005C438.204 585.575 436.187 587.911 433.892 589.955C433.203 590.58 432.478 591.165 431.722 591.705C431.463 591.926 431.173 592.108 430.862 592.245C430.802 592.175 431.962 591.295 433.642 589.685C438.035 585.486 441.393 580.324 443.452 574.605C444.272 572.425 444.622 571.015 444.702 571.035Z" fill="#70C5EB"/>
<path d="M446.181 576.826C445.922 577.783 445.56 578.708 445.101 579.586C444.111 581.757 442.975 583.858 441.701 585.876C440.439 587.898 439.046 589.836 437.531 591.676C436.946 592.468 436.276 593.192 435.531 593.836C436.053 593.001 436.631 592.203 437.261 591.446C438.351 589.986 439.811 587.946 441.261 585.596C442.711 583.246 443.941 581.046 444.771 579.426C445.177 578.526 445.649 577.657 446.181 576.826V576.826Z" fill="#70C5EB"/>
<path d="M392.732 524.375C392.14 524.469 391.541 524.519 390.942 524.525L386.072 524.765L378.842 525.035L376.752 525.115H375.682H375.132L374.802 525.365C373.632 526.255 372.452 527.235 371.232 528.235L358.812 538.475L355.022 541.555C354.575 541.95 354.096 542.307 353.592 542.625C353.994 542.184 354.429 541.773 354.892 541.395L358.572 538.195C361.702 535.515 366.042 531.825 370.902 527.825C372.122 526.825 373.302 525.825 374.492 524.955C374.672 524.81 374.875 524.695 375.092 524.615H375.642H376.722L378.812 524.555L386.052 524.395L390.942 524.325C391.539 524.295 392.137 524.312 392.732 524.375V524.375Z" fill="#70C5EB"/>
<path d="M394.382 533.355C393.964 533.44 393.539 533.487 393.112 533.495L389.612 533.715L377.612 534.315L377.762 534.255L373.662 537.665C368.942 541.575 364.662 545.085 361.542 547.605L357.822 550.605C357.382 550.974 356.914 551.309 356.422 551.605C356.816 551.175 357.244 550.777 357.702 550.415L361.302 547.325C364.362 544.725 368.612 541.175 373.302 537.265L377.422 533.865L377.492 533.815H377.572L389.572 533.405L393.092 533.335C393.522 533.302 393.953 533.309 394.382 533.355V533.355Z" fill="#70C5EB"/>
<path d="M404.371 523.465C403.983 524.155 403.509 524.793 402.961 525.365C402.021 526.485 400.661 527.985 399.071 529.545C397.481 531.105 395.951 532.435 394.811 533.355C394.229 533.892 393.58 534.353 392.881 534.725C393.409 534.131 393.991 533.589 394.621 533.105C395.691 532.105 397.171 530.755 398.751 529.205C400.331 527.655 401.751 526.205 402.751 525.155C403.236 524.542 403.779 523.976 404.371 523.465V523.465Z" fill="#70C5EB"/>
<path d="M405.922 547.306C405.922 547.306 405.462 546.846 404.552 546.116C403.252 545.111 401.786 544.34 400.222 543.836C397.895 543.108 395.458 542.794 393.022 542.906C390.034 543.09 387.072 543.576 384.182 544.356C381.082 545.116 378.112 545.876 375.352 546.286C374.058 546.463 372.776 546.716 371.512 547.046C370.426 547.336 369.407 547.835 368.512 548.516C367.877 549.016 367.358 549.647 366.992 550.368C366.626 551.088 366.421 551.879 366.392 552.686C366.429 553.284 366.574 553.871 366.822 554.416C366.822 554.416 366.712 554.296 366.552 554.026C366.347 553.61 366.225 553.159 366.192 552.696C366.18 551.843 366.362 550.999 366.724 550.226C367.086 549.454 367.619 548.773 368.282 548.236C369.952 546.786 372.542 546.236 375.282 545.816C378.022 545.396 380.952 544.606 384.072 543.816C386.997 543.031 389.997 542.555 393.022 542.396C395.509 542.306 397.992 542.665 400.352 543.456C401.942 544.003 403.414 544.844 404.692 545.936C405.05 546.244 405.384 546.579 405.692 546.936C405.842 547.166 405.942 547.296 405.922 547.306Z" fill="#70C5EB"/>
</g>
<path d="M206.071 517.027L219.361 518.577L221.471 521.247L220.391 529.567L217.591 531.707L204.801 529.367L206.071 517.027Z" fill="#1E1C61"/>
<path d="M219.232 518.479C219.197 520.626 218.983 522.767 218.592 524.879C218.375 527.019 217.987 529.139 217.432 531.219C217.471 529.068 217.685 526.924 218.072 524.809C218.291 522.671 218.678 520.555 219.232 518.479V518.479Z" fill="#5A4980"/>
<path d="M215.391 531.278C215.475 529.104 215.732 526.941 216.161 524.808C216.409 522.646 216.837 520.509 217.441 518.418C217.357 520.592 217.099 522.755 216.671 524.888C216.416 527.049 215.987 529.186 215.391 531.278V531.278Z" fill="#5A4980"/>
<path d="M193.262 537.887C193.262 538.647 201.772 550.797 201.772 550.797H209.542L212.542 548.617L213.862 541.087L204.572 529.027L193.262 537.887Z" fill="#1E1C61"/>
<path d="M213.85 541.107C213.284 541.622 212.671 542.084 212.02 542.487C210.87 543.307 209.32 544.487 207.65 545.837C204.31 548.557 201.79 550.987 201.65 550.837C202.081 550.198 202.592 549.617 203.17 549.107C204.17 548.107 205.61 546.767 207.29 545.387C208.722 544.212 210.225 543.127 211.79 542.137C212.426 541.7 213.119 541.354 213.85 541.107V541.107Z" fill="#5A4980"/>
<path d="M212.952 539.908C213.022 540.058 209.862 541.548 206.542 544.258C204.582 545.935 202.735 547.739 201.012 549.658C201.33 548.958 201.759 548.313 202.282 547.748C203.456 546.318 204.773 545.012 206.212 543.848C207.655 542.687 209.205 541.666 210.842 540.798C211.498 540.4 212.209 540.1 212.952 539.908V539.908Z" fill="#5A4980"/>
<path d="M192.462 536.768H178.182V556.238H192.462V536.768Z" fill="#1E1C61"/>
<path d="M192.621 554.048C190.257 554.305 187.877 554.392 185.501 554.308C183.127 554.392 180.751 554.305 178.391 554.048C180.751 553.785 183.127 553.698 185.501 553.788C187.877 553.698 190.257 553.785 192.621 554.048V554.048Z" fill="#5A4980"/>
<path d="M192.741 552.287C190.381 552.551 188.005 552.638 185.631 552.547C183.258 552.638 180.882 552.551 178.521 552.287C180.882 552.03 183.258 551.943 185.631 552.027C188.005 551.943 190.381 552.03 192.741 552.287V552.287Z" fill="#5A4980"/>
<path d="M171.121 531.297C173.61 535.046 177.312 537.825 181.607 539.167C185.902 540.51 190.528 540.335 194.709 538.671C198.889 537.007 202.371 533.957 204.569 530.03C206.767 526.104 207.548 521.541 206.781 517.107L199.241 522.027L171.121 531.297Z" fill="#EDF1FA"/>
<path d="M134.922 610.269H154.132V591.469H194.542C195.807 591.469 197.02 590.966 197.915 590.072C198.809 589.177 199.312 587.964 199.312 586.699V586.699C199.309 585.434 198.806 584.223 197.912 583.329C197.018 582.435 195.806 581.931 194.542 581.929H170.972V575.479H213.482C214.709 575.476 215.885 574.987 216.753 574.12C217.621 573.252 218.109 572.076 218.112 570.849V570.849C218.112 569.621 217.624 568.443 216.756 567.575C215.887 566.707 214.71 566.219 213.482 566.219H143.192V573.509H135.332L134.922 610.269Z" fill="#526ED0"/>
<path d="M143.141 610.268C142.991 610.268 142.891 600.408 142.901 588.268C142.911 576.128 143.041 566.268 143.191 566.268C143.341 566.268 143.441 576.128 143.421 588.268C143.401 600.408 143.281 610.268 143.141 610.268Z" fill="#3453C1"/>
<path d="M154.071 566.857C154.211 566.857 154.331 572.427 154.331 579.287C154.331 586.147 154.211 591.717 154.071 591.717C153.931 591.717 153.811 586.147 153.811 579.287C153.811 572.427 153.921 566.857 154.071 566.857Z" fill="#3453C1"/>
<path d="M218.11 647.608C216.79 643.243 214.258 639.343 210.807 636.361C207.357 633.38 203.131 631.44 198.62 630.768H134.72L133.32 648.718L218.11 647.608Z" fill="#526ED0"/>
<path d="M101.141 605.227V532.717C101.133 531.577 101.516 530.468 102.225 529.575C102.935 528.682 103.928 528.058 105.041 527.807L165.101 510.717L165.691 486.927L201.601 486.337L212.711 476.107L230.241 496.107L206.981 521.507L135.681 543.627L134.501 647.627H217.941C218.915 647.63 219.848 648.019 220.536 648.709C221.224 649.399 221.611 650.333 221.611 651.307V664.897H101.141V605.227Z" fill="#294197"/>
<path d="M207.771 559.898H175.101C173.416 559.898 172.051 561.264 172.051 562.948V563.168C172.051 564.853 173.416 566.218 175.101 566.218H207.771C209.455 566.218 210.821 564.853 210.821 563.168V562.948C210.821 561.264 209.455 559.898 207.771 559.898Z" fill="white"/>
<path d="M207.772 566.218C208.055 566.174 208.336 566.114 208.612 566.038C208.995 565.917 209.351 565.72 209.656 565.459C209.962 565.197 210.212 564.878 210.392 564.518C210.646 563.996 210.75 563.415 210.692 562.838C210.669 562.151 210.395 561.496 209.922 560.998C209.66 560.714 209.343 560.486 208.991 560.326C208.639 560.166 208.258 560.078 207.872 560.068H205.132L175.132 560.148C174.464 560.152 173.82 560.394 173.314 560.83C172.808 561.266 172.474 561.868 172.372 562.528C172.266 563.178 172.364 563.845 172.652 564.438C172.952 565.01 173.439 565.462 174.032 565.718C174.647 565.934 175.303 566.012 175.952 565.948H181.862L195.362 565.998L204.472 566.088H206.942C207.23 566.082 207.518 566.102 207.802 566.148C207.517 566.186 207.229 566.203 206.942 566.198H204.472L195.362 566.278L181.862 566.338H175.922C175.201 566.403 174.474 566.311 173.792 566.068C173.094 565.766 172.522 565.233 172.172 564.558C171.832 563.867 171.713 563.088 171.832 562.328C171.951 561.545 172.346 560.831 172.946 560.314C173.545 559.796 174.31 559.511 175.102 559.508L205.102 559.578H207.852C208.281 559.594 208.703 559.697 209.092 559.881C209.48 560.065 209.827 560.326 210.112 560.648C210.61 561.197 210.894 561.907 210.912 562.648C210.958 563.264 210.83 563.881 210.542 564.428C210.362 564.83 210.097 565.188 209.766 565.478C209.435 565.768 209.044 565.983 208.622 566.108C208.348 566.199 208.06 566.237 207.772 566.218V566.218Z" fill="#1E1C61"/>
<path d="M117.831 623.228C128.109 623.228 136.441 614.896 136.441 604.618C136.441 594.34 128.109 586.008 117.831 586.008C107.553 586.008 99.2207 594.34 99.2207 604.618C99.2207 614.896 107.553 623.228 117.831 623.228Z" fill="#526ED0"/>
<path d="M128.172 605.218C128.078 604.377 127.938 603.543 127.752 602.718C127.15 600.491 125.819 598.53 123.972 597.148C122.715 596.197 121.252 595.556 119.702 595.278C117.922 594.956 116.089 595.115 114.392 595.738C112.516 596.423 110.884 597.648 109.702 599.258C108.434 600.986 107.751 603.074 107.751 605.218C107.751 607.361 108.434 609.449 109.702 611.178C110.291 612.004 111.011 612.73 111.832 613.328C112.61 613.914 113.473 614.38 114.392 614.708C115.979 615.293 117.688 615.471 119.361 615.224C121.035 614.978 122.62 614.315 123.972 613.298C125.818 611.91 127.148 609.947 127.752 607.718C127.938 606.893 128.079 606.058 128.172 605.218C128.233 606.074 128.156 606.936 127.942 607.768C127.402 610.08 126.081 612.136 124.202 613.588C122.906 614.592 121.391 615.277 119.782 615.588C117.923 615.944 116.003 615.796 114.222 615.158C113.259 614.823 112.355 614.341 111.542 613.728C110.679 613.103 109.92 612.347 109.292 611.488C107.948 609.675 107.223 607.479 107.223 605.223C107.223 602.966 107.948 600.77 109.292 598.958C109.914 598.093 110.674 597.336 111.542 596.718C112.357 596.105 113.261 595.619 114.222 595.278C116.001 594.645 117.916 594.497 119.772 594.848C121.383 595.155 122.898 595.84 124.192 596.848C126.078 598.29 127.404 600.344 127.942 602.658C128.157 603.493 128.234 604.357 128.172 605.218Z" fill="#3453C1"/>
<path d="M207.031 478.838L228.371 502.048L235.831 494.418L214.641 471.818L207.031 478.838Z" fill="#1E1C61"/>
<path d="M239.541 458.218L229.801 467.508C229.483 467.813 229.299 468.231 229.288 468.671C229.276 469.111 229.439 469.537 229.741 469.858L238.021 478.648C238.177 478.807 238.363 478.934 238.568 479.02C238.773 479.107 238.993 479.151 239.216 479.151C239.439 479.151 239.659 479.107 239.865 479.02C240.07 478.934 240.256 478.807 240.411 478.648L250.271 468.908C250.427 468.753 250.552 468.568 250.636 468.365C250.721 468.161 250.764 467.943 250.764 467.723C250.764 467.503 250.721 467.285 250.636 467.081C250.552 466.878 250.427 466.693 250.271 466.538L241.871 458.198C241.558 457.895 241.138 457.727 240.702 457.731C240.266 457.734 239.849 457.909 239.541 458.218Z" fill="#1E1C61"/>
<path d="M230.621 469.488C230.381 469.838 219.711 480.188 219.711 480.188L228.181 488.848L238.921 478.178L230.621 469.488Z" fill="#1E1C61"/>
<path d="M232.371 664.879H88.291V670.379H232.371V664.879Z" fill="#1E1C61"/>
<path d="M198.611 615.559H165.691V630.769H198.611V615.559Z" fill="#1E1C61"/>
<path d="M169.261 630.768C168.916 625.774 168.916 620.762 169.261 615.768C169.607 620.762 169.607 625.774 169.261 630.768V630.768Z" fill="#526ED0"/>
<path d="M174.771 630.768C174.425 625.774 174.425 620.762 174.771 615.768C175.117 620.762 175.117 625.774 174.771 630.768V630.768Z" fill="#526ED0"/>
<path d="M180.271 630.768C179.925 625.774 179.925 620.762 180.271 615.768C180.617 620.762 180.617 625.774 180.271 630.768V630.768Z" fill="#526ED0"/>
<path d="M185.781 630.768C185.435 625.774 185.435 620.762 185.781 615.768C186.127 620.762 186.127 625.774 185.781 630.768V630.768Z" fill="#526ED0"/>
<path d="M191.291 630.768C190.945 625.774 190.945 620.762 191.291 615.768C191.636 620.762 191.636 625.774 191.291 630.768V630.768Z" fill="#526ED0"/>
<path d="M196.791 630.768C196.445 625.774 196.445 620.762 196.791 615.768C197.136 620.762 197.136 625.774 196.791 630.768V630.768Z" fill="#526ED0"/>
<path d="M364.77 601.945L365.43 661.025C365.489 662.618 366.162 664.126 367.309 665.233C368.455 666.341 369.986 666.961 371.58 666.965V666.965C372.405 666.967 373.222 666.803 373.982 666.483C374.743 666.163 375.431 665.693 376.007 665.102C376.582 664.51 377.033 663.809 377.332 663.04C377.632 662.271 377.774 661.45 377.75 660.625V602.105L364.77 601.945Z" fill="white"/>
<path d="M364.77 601.945H368.15H377.75H377.9V602.105C377.9 608.855 377.95 617.905 377.98 628.475C377.98 633.775 377.98 639.475 377.98 645.415C377.98 648.415 377.98 651.415 377.98 654.565V659.275C377.98 660.065 377.98 660.865 377.92 661.705C377.766 662.788 377.34 663.815 376.683 664.689C376.025 665.563 375.157 666.257 374.16 666.705C373.262 667.104 372.285 667.29 371.304 667.251C370.322 667.212 369.363 666.948 368.5 666.479C367.637 666.01 366.894 665.35 366.327 664.548C365.759 663.746 365.384 662.825 365.23 661.855C365.151 661.242 365.121 660.623 365.14 660.005C365.14 659.395 365.14 658.795 365.14 658.195C365.14 656.995 365.14 655.805 365.14 654.625C365.14 652.265 365.12 649.962 365.08 647.715C365.01 638.715 364.94 630.645 364.89 623.835C364.84 617.025 364.82 611.615 364.79 607.835C364.79 605.975 364.79 604.515 364.79 603.495C364.79 603.025 364.79 602.655 364.79 602.385C364.79 602.115 364.79 602.005 364.79 602.015C364.802 602.148 364.802 602.282 364.79 602.415C364.79 602.705 364.79 603.085 364.79 603.575C364.79 604.575 364.84 606.085 364.88 607.965C364.94 611.795 365.03 617.285 365.14 624.055C365.25 630.825 365.35 638.885 365.48 647.825C365.48 650.065 365.51 652.355 365.57 654.695C365.57 655.865 365.57 657.045 365.57 658.235C365.57 658.835 365.57 659.435 365.57 660.035C365.558 660.63 365.588 661.225 365.66 661.815C365.864 662.994 366.416 664.084 367.244 664.946C368.073 665.809 369.14 666.404 370.31 666.655C371.51 666.896 372.756 666.763 373.88 666.275C375.011 665.767 375.955 664.917 376.58 663.845C376.97 663.182 377.225 662.448 377.33 661.685C377.395 660.904 377.415 660.119 377.39 659.335V654.625C377.39 651.505 377.39 648.455 377.39 645.465C377.39 639.465 377.39 633.825 377.39 628.525C377.39 617.955 377.45 608.905 377.48 602.155L377.62 602.295L368.1 602.115L365.55 602.055H364.88L364.77 601.945Z" fill="#1E1C61"/>
<path d="M366.439 632.234L366.509 660.374C366.564 661.718 367.135 662.988 368.104 663.92C369.073 664.852 370.365 665.373 371.709 665.374V665.374C372.407 665.375 373.097 665.235 373.74 664.964C374.383 664.693 374.964 664.296 375.451 663.796C375.938 663.297 376.319 662.705 376.573 662.055C376.827 661.405 376.948 660.712 376.929 660.014L376.719 632.314L366.439 632.234Z" fill="#F57E71"/>
<path d="M379.379 597.715H363.129C361.92 597.715 360.939 598.695 360.939 599.905V608.195C360.939 609.404 361.92 610.385 363.129 610.385H379.379C380.589 610.385 381.569 609.404 381.569 608.195V599.905C381.569 598.695 380.589 597.715 379.379 597.715Z" fill="#F57E71"/>
<path d="M362.42 610.235C362.073 606.069 362.073 601.881 362.42 597.715C362.767 601.881 362.767 606.069 362.42 610.235Z" fill="#1E1C61"/>
<path d="M365.321 610.235C364.974 606.069 364.974 601.881 365.321 597.715C365.667 601.881 365.667 606.069 365.321 610.235V610.235Z" fill="#1E1C61"/>
<path d="M368.221 610.235C367.874 606.069 367.874 601.881 368.221 597.715C368.568 601.881 368.568 606.069 368.221 610.235V610.235Z" fill="#1E1C61"/>
<path d="M371.119 610.235C370.773 606.069 370.773 601.881 371.119 597.715C371.466 601.881 371.466 606.069 371.119 610.235V610.235Z" fill="#1E1C61"/>
<path d="M374.03 610.235C373.683 606.069 373.683 601.881 374.03 597.715C374.376 601.881 374.376 606.069 374.03 610.235Z" fill="#1E1C61"/>
<path d="M376.93 610.235C376.583 606.069 376.583 601.881 376.93 597.715C377.277 601.881 377.277 606.069 376.93 610.235V610.235Z" fill="#1E1C61"/>
<path d="M379.83 610.235C379.484 606.069 379.484 601.881 379.83 597.715C380.177 601.881 380.177 606.069 379.83 610.235V610.235Z" fill="#1E1C61"/>
<path d="M337.461 601.945L338.121 661.025C338.18 662.618 338.854 664.126 340 665.233C341.147 666.341 342.677 666.961 344.271 666.965V666.965C345.096 666.967 345.913 666.803 346.674 666.483C347.434 666.163 348.123 665.693 348.698 665.102C349.274 664.51 349.724 663.809 350.024 663.04C350.323 662.271 350.465 661.45 350.441 660.625V602.105L337.461 601.945Z" fill="white"/>
<path d="M337.461 601.945H340.841H350.441H350.621V602.105C350.621 608.855 350.621 617.905 350.701 628.475C350.701 633.775 350.701 639.475 350.701 645.415C350.701 648.415 350.701 651.415 350.701 654.565V659.275C350.701 660.065 350.701 660.865 350.641 661.705C350.487 662.788 350.062 663.815 349.404 664.689C348.747 665.563 347.879 666.257 346.881 666.705C345.983 667.104 345.006 667.29 344.025 667.251C343.044 667.212 342.085 666.948 341.222 666.479C340.359 666.01 339.615 665.35 339.048 664.548C338.481 663.746 338.106 662.825 337.951 661.855C337.872 661.242 337.842 660.623 337.861 660.005C337.861 659.395 337.861 658.795 337.861 658.195C337.861 656.995 337.861 655.805 337.861 654.625C337.861 652.265 337.841 649.962 337.801 647.715C337.731 638.715 337.661 630.645 337.611 623.835C337.561 617.025 337.531 611.615 337.511 607.835C337.511 605.975 337.511 604.515 337.511 603.495C337.511 603.025 337.511 602.655 337.511 602.385C337.511 602.115 337.511 602.005 337.511 602.015C337.524 602.148 337.524 602.282 337.511 602.415C337.511 602.705 337.511 603.085 337.511 603.575C337.511 604.575 337.561 606.085 337.601 607.965C337.661 611.795 337.751 617.285 337.861 624.055C337.971 630.825 338.071 638.885 338.201 647.825C338.201 650.065 338.231 652.355 338.291 654.695C338.291 655.865 338.291 657.045 338.291 658.235C338.291 658.835 338.291 659.435 338.291 660.035C338.28 660.63 338.31 661.225 338.381 661.815C338.585 662.994 339.137 664.084 339.966 664.946C340.794 665.809 341.862 666.404 343.031 666.655C344.232 666.896 345.478 666.763 346.601 666.275C347.733 665.767 348.677 664.917 349.301 663.845C349.692 663.182 349.947 662.448 350.051 661.685C350.117 660.904 350.137 660.119 350.111 659.335V654.625C350.111 651.505 350.111 648.455 350.111 645.465C350.111 639.465 350.111 633.825 350.111 628.525C350.111 617.955 350.171 608.905 350.201 602.155L350.341 602.295L340.821 602.115L338.271 602.055H337.601L337.461 601.945Z" fill="#1E1C61"/>
<path d="M339.131 632.234L339.201 660.374C339.255 661.718 339.826 662.988 340.796 663.92C341.765 664.852 343.056 665.373 344.401 665.374V665.374C345.098 665.375 345.789 665.235 346.431 664.964C347.074 664.693 347.656 664.296 348.142 663.796C348.629 663.297 349.01 662.705 349.264 662.055C349.518 661.405 349.64 660.712 349.621 660.014L349.411 632.314L339.131 632.234Z" fill="#F57E71"/>
<path d="M352.071 597.715H335.821C334.611 597.715 333.631 598.695 333.631 599.905V608.195C333.631 609.404 334.611 610.385 335.821 610.385H352.071C353.28 610.385 354.261 609.404 354.261 608.195V599.905C354.261 598.695 353.28 597.715 352.071 597.715Z" fill="#F57E71"/>
<path d="M335.11 610.235C334.763 606.069 334.763 601.881 335.11 597.715C335.456 601.881 335.456 606.069 335.11 610.235Z" fill="#1E1C61"/>
<path d="M338.01 610.235C337.663 606.069 337.663 601.881 338.01 597.715C338.357 601.881 338.357 606.069 338.01 610.235Z" fill="#1E1C61"/>
<path d="M340.91 610.235C340.564 606.069 340.564 601.881 340.91 597.715C341.257 601.881 341.257 606.069 340.91 610.235Z" fill="#1E1C61"/>
<path d="M343.811 610.235C343.464 606.069 343.464 601.881 343.811 597.715C344.157 601.881 344.157 606.069 343.811 610.235Z" fill="#1E1C61"/>
<path d="M346.721 610.235C346.374 606.069 346.374 601.881 346.721 597.715C347.068 601.881 347.068 606.069 346.721 610.235Z" fill="#1E1C61"/>
<path d="M349.619 610.235C349.273 606.069 349.273 601.881 349.619 597.715C349.966 601.881 349.966 606.069 349.619 610.235Z" fill="#1E1C61"/>
<path d="M352.52 610.235C352.173 606.069 352.173 601.881 352.52 597.715C352.866 601.881 352.866 606.069 352.52 610.235V610.235Z" fill="#1E1C61"/>
<path d="M310.619 601.945L311.279 661.025C311.339 662.618 312.012 664.126 313.158 665.233C314.305 666.341 315.835 666.961 317.429 666.965V666.965C318.254 666.967 319.071 666.803 319.832 666.483C320.592 666.163 321.281 665.693 321.856 665.102C322.432 664.51 322.883 663.809 323.182 663.04C323.481 662.271 323.623 661.45 323.599 660.625V602.105L310.619 601.945Z" fill="white"/>
<path d="M310.619 601.945H313.999H323.599H323.749V602.105C323.749 608.855 323.799 617.905 323.829 628.475C323.829 633.775 323.829 639.475 323.829 645.415C323.829 648.415 323.829 651.415 323.829 654.565V659.275C323.854 660.086 323.833 660.897 323.769 661.705C323.615 662.788 323.19 663.815 322.533 664.689C321.875 665.563 321.007 666.257 320.009 666.705C319.112 667.104 318.134 667.29 317.153 667.251C316.172 667.212 315.213 666.948 314.35 666.479C313.487 666.01 312.743 665.35 312.176 664.548C311.609 663.746 311.234 662.825 311.079 661.855C311.005 661.242 310.975 660.623 310.989 660.005C310.989 659.395 310.989 658.795 310.989 658.195C310.989 656.995 310.989 655.805 310.989 654.625C310.989 652.265 310.969 649.962 310.929 647.715C310.859 638.715 310.789 630.645 310.739 623.835C310.689 617.025 310.669 611.615 310.639 607.835C310.639 605.975 310.639 604.515 310.639 603.495C310.639 603.025 310.639 602.655 310.639 602.385C310.639 602.115 310.639 602.005 310.639 602.015C310.652 602.148 310.652 602.282 310.639 602.415C310.639 602.705 310.639 603.085 310.639 603.575C310.639 604.575 310.689 606.085 310.729 607.965C310.789 611.795 310.879 617.285 310.989 624.055C311.099 630.825 311.199 638.885 311.329 647.825C311.329 650.065 311.359 652.355 311.419 654.695C311.419 655.865 311.419 657.045 311.419 658.235C311.419 658.835 311.419 659.435 311.419 660.035C311.408 660.63 311.438 661.225 311.509 661.815C311.714 662.994 312.266 664.084 313.094 664.946C313.923 665.809 314.99 666.404 316.159 666.655C317.36 666.896 318.606 666.763 319.729 666.275C320.861 665.767 321.805 664.917 322.429 663.845C322.82 663.182 323.075 662.448 323.179 661.685C323.245 660.904 323.265 660.119 323.239 659.335V654.625C323.239 651.505 323.239 648.455 323.239 645.465C323.239 639.465 323.239 633.825 323.239 628.525C323.239 617.955 323.309 608.905 323.329 602.155L323.469 602.295L313.949 602.115L311.399 602.055H310.729L310.619 601.945Z" fill="#1E1C61"/>
<path d="M312.25 632.234L312.32 660.374C312.374 661.718 312.946 662.988 313.915 663.92C314.884 664.852 316.176 665.373 317.52 665.374V665.374C318.217 665.375 318.908 665.235 319.55 664.964C320.193 664.693 320.775 664.296 321.261 663.796C321.748 663.297 322.13 662.705 322.384 662.055C322.638 661.405 322.759 660.712 322.74 660.014L322.53 632.314L312.25 632.234Z" fill="#F57E71"/>
<path d="M325.19 597.715H308.94C307.73 597.715 306.75 598.695 306.75 599.905V608.195C306.75 609.404 307.73 610.385 308.94 610.385H325.19C326.4 610.385 327.38 609.404 327.38 608.195V599.905C327.38 598.695 326.4 597.715 325.19 597.715Z" fill="#F57E71"/>
<path d="M308.231 610.235C307.884 606.069 307.884 601.881 308.231 597.715C308.577 601.881 308.577 606.069 308.231 610.235Z" fill="#1E1C61"/>
<path d="M311.129 610.235C310.782 606.069 310.782 601.881 311.129 597.715C311.476 601.881 311.476 606.069 311.129 610.235Z" fill="#1E1C61"/>
<path d="M314.03 610.235C313.683 606.069 313.683 601.881 314.03 597.715C314.376 601.881 314.376 606.069 314.03 610.235V610.235Z" fill="#1E1C61"/>
<path d="M316.93 610.235C316.583 606.069 316.583 601.881 316.93 597.715C317.277 601.881 317.277 606.069 316.93 610.235Z" fill="#1E1C61"/>
<path d="M319.84 610.235C319.493 606.069 319.493 601.881 319.84 597.715C320.187 601.881 320.187 606.069 319.84 610.235Z" fill="#1E1C61"/>
<path d="M322.74 610.235C322.394 606.069 322.394 601.881 322.74 597.715C323.087 601.881 323.087 606.069 322.74 610.235Z" fill="#1E1C61"/>
<path d="M325.619 610.235C325.273 606.069 325.273 601.881 325.619 597.715C325.966 601.881 325.966 606.069 325.619 610.235Z" fill="#1E1C61"/>
<path d="M283.711 601.945L284.361 661.025C284.42 662.618 285.094 664.126 286.24 665.233C287.387 666.341 288.917 666.961 290.511 666.965V666.965C291.336 666.967 292.153 666.803 292.914 666.483C293.674 666.163 294.363 665.693 294.938 665.102C295.514 664.51 295.964 663.809 296.264 663.04C296.563 662.271 296.705 661.45 296.681 660.625V602.105L283.711 601.945Z" fill="white"/>
<path d="M283.709 601.945C283.709 601.945 283.769 601.945 283.909 601.945H287.079H296.689H296.829V602.105C296.829 608.855 296.879 617.905 296.909 628.475C296.909 633.775 296.909 639.475 296.909 645.415C296.909 648.415 296.909 651.415 296.909 654.565V659.275C296.934 660.086 296.914 660.897 296.849 661.705C296.696 662.788 296.27 663.815 295.613 664.689C294.955 665.563 294.087 666.257 293.089 666.705C292.192 667.104 291.215 667.29 290.233 667.251C289.252 667.212 288.293 666.948 287.43 666.479C286.567 666.01 285.824 665.35 285.256 664.548C284.689 663.746 284.314 662.825 284.159 661.855C284.085 661.242 284.055 660.623 284.069 660.005C284.069 659.395 284.069 658.795 284.069 658.195C284.069 656.995 284.069 655.805 284.069 654.625C284.069 652.265 284.049 649.962 284.009 647.715C283.939 638.715 283.869 630.645 283.819 623.835C283.769 617.025 283.749 611.615 283.719 607.835C283.719 605.975 283.719 604.515 283.719 603.495C283.719 603.025 283.719 602.655 283.719 602.385C283.703 602.263 283.703 602.138 283.719 602.015C283.719 602.015 283.719 602.155 283.719 602.415C283.719 602.675 283.719 603.085 283.719 603.575C283.719 604.575 283.769 606.085 283.809 607.965C283.869 611.795 283.959 617.285 284.069 624.055C284.179 630.825 284.279 638.885 284.409 647.825C284.409 650.065 284.439 652.355 284.499 654.695C284.499 655.865 284.499 657.045 284.499 658.235V660.035C284.478 660.63 284.508 661.226 284.589 661.815C284.783 662.997 285.33 664.091 286.158 664.956C286.987 665.82 288.057 666.412 289.229 666.655C290.43 666.896 291.676 666.763 292.799 666.275C293.931 665.767 294.875 664.917 295.499 663.845C295.89 663.182 296.145 662.448 296.249 661.685C296.315 660.904 296.335 660.119 296.309 659.335V654.625C296.309 651.505 296.309 648.452 296.309 645.465C296.309 639.465 296.309 633.825 296.309 628.525C296.309 617.955 296.379 608.905 296.399 602.155L296.539 602.295L287.019 602.115L284.469 602.055H283.799L283.709 601.945Z" fill="#1E1C61"/>
<path d="M285.369 632.234L285.439 660.374C285.493 661.718 286.065 662.988 287.034 663.92C288.003 664.852 289.295 665.373 290.639 665.374V665.374C291.337 665.375 292.027 665.235 292.67 664.964C293.312 664.693 293.894 664.296 294.381 663.796C294.867 663.297 295.249 662.705 295.503 662.055C295.757 661.405 295.878 660.712 295.859 660.014L295.649 632.314L285.369 632.234Z" fill="#F57E71"/>
<path d="M298.309 597.715H282.059C280.85 597.715 279.869 598.695 279.869 599.905V608.195C279.869 609.404 280.85 610.385 282.059 610.385H298.309C299.519 610.385 300.499 609.404 300.499 608.195V599.905C300.499 598.695 299.519 597.715 298.309 597.715Z" fill="#F57E71"/>
<path d="M281.35 610.235C281.003 606.069 281.003 601.881 281.35 597.715C281.697 601.881 281.697 606.069 281.35 610.235Z" fill="#1E1C61"/>
<path d="M284.25 610.235C283.904 606.069 283.904 601.881 284.25 597.715C284.597 601.881 284.597 606.069 284.25 610.235Z" fill="#1E1C61"/>
<path d="M287.151 610.235C286.804 606.069 286.804 601.881 287.151 597.715C287.497 601.881 287.497 606.069 287.151 610.235Z" fill="#1E1C61"/>
<path d="M290.061 610.235C289.701 606.069 289.701 601.88 290.061 597.715C290.408 601.881 290.408 606.069 290.061 610.235Z" fill="#1E1C61"/>
<path d="M292.959 610.235C292.613 606.069 292.613 601.881 292.959 597.715C293.306 601.881 293.306 606.069 292.959 610.235Z" fill="#1E1C61"/>
<path d="M295.86 610.235C295.513 606.069 295.513 601.881 295.86 597.715C296.206 601.881 296.206 606.069 295.86 610.235Z" fill="#1E1C61"/>
<path d="M298.76 610.235C298.413 606.069 298.413 601.881 298.76 597.715C299.107 601.881 299.107 606.069 298.76 610.235Z" fill="#1E1C61"/>
<path d="M256.83 601.945L257.48 661.025C257.539 662.618 258.213 664.126 259.359 665.233C260.506 666.341 262.036 666.961 263.63 666.965V666.965C264.455 666.967 265.272 666.803 266.033 666.483C266.793 666.163 267.482 665.693 268.057 665.102C268.633 664.51 269.084 663.809 269.383 663.04C269.682 662.271 269.824 661.45 269.8 660.625V602.105L256.83 601.945Z" fill="white"/>
<path d="M256.83 601.945C256.83 601.945 256.89 601.945 257.03 601.945H260.2H269.81H269.95V602.105C269.95 608.855 270 617.905 270.03 628.475C270.03 633.775 270.03 639.475 270.03 645.415C270.03 648.415 270.03 651.415 270.03 654.565V659.275C270.055 660.086 270.035 660.897 269.97 661.705C269.817 662.788 269.391 663.815 268.734 664.689C268.076 665.563 267.208 666.257 266.21 666.705C265.313 667.104 264.336 667.29 263.355 667.251C262.373 667.212 261.414 666.948 260.551 666.479C259.688 666.01 258.945 665.35 258.378 664.548C257.81 663.746 257.435 662.825 257.28 661.855C257.207 661.242 257.176 660.623 257.19 660.005C257.19 659.395 257.19 658.795 257.19 658.195C257.19 656.995 257.19 655.805 257.19 654.625C257.19 652.265 257.17 649.962 257.13 647.715C257.06 638.715 256.99 630.645 256.94 623.835C256.89 617.025 256.87 611.615 256.84 607.835C256.84 605.975 256.84 604.515 256.84 603.495C256.84 603.025 256.84 602.655 256.84 602.385C256.824 602.263 256.824 602.138 256.84 602.015C256.84 602.015 256.84 602.155 256.84 602.415C256.84 602.675 256.84 603.085 256.84 603.575C256.84 604.575 256.89 606.085 256.93 607.965C256.99 611.795 257.08 617.285 257.19 624.055C257.3 630.825 257.41 638.885 257.53 647.825C257.53 650.065 257.56 652.355 257.62 654.695C257.62 655.865 257.62 657.045 257.62 658.235V660.035C257.599 660.63 257.629 661.226 257.71 661.815C257.904 662.997 258.451 664.091 259.279 664.956C260.108 665.82 261.178 666.412 262.351 666.655C263.551 666.896 264.797 666.763 265.92 666.275C267.052 665.767 267.996 664.917 268.62 663.845C269.011 663.182 269.266 662.448 269.37 661.685C269.436 660.904 269.456 660.119 269.43 659.335V654.625C269.43 651.505 269.43 648.452 269.43 645.465C269.43 639.465 269.43 633.825 269.43 628.525C269.43 617.955 269.5 608.905 269.52 602.155L269.66 602.295L260.14 602.115L257.59 602.055H256.92L256.83 601.945Z" fill="#1E1C61"/>
<path d="M258.49 632.234L258.56 660.374C258.614 661.718 259.186 662.988 260.155 663.92C261.124 664.852 262.416 665.373 263.76 665.374V665.374C264.458 665.375 265.148 665.235 265.791 664.964C266.433 664.693 267.015 664.296 267.502 663.796C267.988 663.297 268.37 662.705 268.624 662.055C268.878 661.405 268.999 660.712 268.98 660.014L268.77 632.314L258.49 632.234Z" fill="#F57E71"/>
<path d="M271.43 597.715H255.18C253.971 597.715 252.99 598.695 252.99 599.905V608.195C252.99 609.404 253.971 610.385 255.18 610.385H271.43C272.64 610.385 273.62 609.404 273.62 608.195V599.905C273.62 598.695 272.64 597.715 271.43 597.715Z" fill="#F57E71"/>
<path d="M254.471 610.235C254.124 606.069 254.124 601.881 254.471 597.715C254.818 601.881 254.818 606.069 254.471 610.235Z" fill="#1E1C61"/>
<path d="M257.369 610.235C257.023 606.069 257.023 601.881 257.369 597.715C257.716 601.881 257.716 606.069 257.369 610.235Z" fill="#1E1C61"/>
<path d="M260.27 610.235C259.923 606.069 259.923 601.881 260.27 597.715C260.616 601.881 260.616 606.069 260.27 610.235Z" fill="#1E1C61"/>
<path d="M263.18 610.235C262.833 606.069 262.833 601.881 263.18 597.715C263.527 601.881 263.527 606.069 263.18 610.235Z" fill="#1E1C61"/>
<path d="M266.08 610.235C265.734 606.069 265.734 601.881 266.08 597.715C266.427 601.881 266.427 606.069 266.08 610.235Z" fill="#1E1C61"/>
<path d="M268.981 610.235C268.634 606.069 268.634 601.881 268.981 597.715C269.327 601.881 269.327 606.069 268.981 610.235Z" fill="#1E1C61"/>
<path d="M271.879 610.235C271.532 606.069 271.532 601.881 271.879 597.715C272.226 601.881 272.226 606.069 271.879 610.235Z" fill="#1E1C61"/>
<path d="M250.39 618.266H245.83V668.606H250.39V618.266Z" fill="#1E3070"/>
<path d="M387.521 618.266H382.961V668.606H387.521V618.266Z" fill="#1E3070"/>
<path d="M43.9897 544.158C46.9764 545.402 49.6839 547.231 51.9528 549.537C54.2216 551.843 56.0058 554.58 57.2001 557.587C59.521 563.628 60.441 570.118 59.8907 576.566C59.1635 589.05 52.8128 601.921 45.7592 612.247C34.8273 603.714 31.5792 588.007 30.4157 579.863C28.5978 567.064 33.0578 542.825 43.9897 544.158Z" fill="#FFCB67"/>
<path d="M58.9909 632.024C58.0913 628.521 58.1331 624.843 59.1121 621.361C60.0911 617.879 61.9725 614.718 64.5659 612.197C67.206 609.741 70.3074 607.833 73.6902 606.585C77.073 605.337 80.6699 604.773 84.2724 604.925C85.9371 604.812 87.6064 605.063 89.1639 605.662C90.7213 606.261 92.1292 607.192 93.2895 608.391C94.1731 609.681 94.6972 611.182 94.808 612.741C94.9188 614.301 94.6122 615.861 93.9197 617.263C92.4764 620.046 90.3285 622.403 87.6902 624.098C78.964 630.255 69.3895 634.618 58.9909 632.121" fill="#FFCB67"/>
<path d="M47.6938 670.733C47.6868 669.871 47.768 669.01 47.9362 668.164C48.1543 666.37 48.4452 664.019 48.8088 661.231C49.5588 653.503 51.5561 645.948 54.7232 638.858C58.0159 631.765 63.1461 625.68 69.5819 621.237C71.5392 619.938 73.6371 618.864 75.8356 618.037C76.6113 617.746 77.2657 617.601 77.6778 617.479C77.8865 617.396 78.1076 617.346 78.3322 617.334C75.39 618.533 72.5727 620.019 69.9212 621.77C63.7242 626.287 58.7711 632.299 55.5231 639.246C52.4135 646.265 50.3631 653.707 49.439 661.328C48.9785 664.237 48.5906 666.588 48.2755 668.212C48.1523 669.067 47.9578 669.911 47.6938 670.733V670.733Z" fill="#AD7200"/>
<path d="M42.2394 562.92C42.322 563.279 42.3787 563.643 42.409 564.011C42.506 564.835 42.6272 565.901 42.7726 567.21C43.0877 569.974 43.4513 573.973 43.8876 578.918C44.7602 588.832 45.754 602.551 46.5297 617.701C47.3054 632.85 47.6447 646.594 47.7902 656.484C47.7902 661.453 47.7902 665.476 47.7902 668.24C47.7902 669.573 47.7902 670.664 47.7902 671.464C47.8211 671.835 47.8211 672.207 47.7902 672.578C47.7144 672.212 47.6738 671.838 47.669 671.464V668.264C47.669 665.355 47.475 661.38 47.3296 656.484C47.0145 646.546 46.5539 632.826 45.7783 617.701C45.0026 602.575 44.13 588.856 43.3544 578.918C43.015 574.07 42.7241 570.07 42.5302 567.186C42.5302 565.877 42.3848 564.762 42.3363 563.986C42.2456 563.639 42.2129 563.278 42.2394 562.92V562.92Z" fill="#AD7200"/>
<path d="M41.3687 640.557C39.7 633.119 36.2836 626.186 31.4025 620.331C26.5213 614.476 20.3158 609.868 13.2996 606.889C9.71222 605.41 5.10677 604.465 2.36772 607.301C-0.371317 610.137 0.549767 614.573 2.14956 618.208C5.62272 625.52 11.1816 631.64 18.1261 635.798C25.0705 639.956 33.0901 641.966 41.1748 641.575" fill="#FFCB67"/>
<path d="M15.5762 618.547C16.3549 618.74 17.1107 619.016 17.8304 619.371C18.5576 619.686 19.4302 620.05 20.3998 620.583C21.3694 621.116 22.5328 621.625 23.6963 622.401C25.007 623.185 26.2771 624.034 27.5019 624.946C28.9152 625.983 30.2744 627.091 31.5741 628.267C34.5468 630.992 37.2055 634.041 39.5004 637.357C41.7163 640.711 43.5459 644.305 44.9542 648.07C45.546 649.723 46.0477 651.406 46.457 653.112C46.8347 654.589 47.126 656.086 47.3297 657.596C47.5222 658.833 47.6436 660.079 47.6932 661.329C47.7625 662.273 47.7625 663.221 47.6932 664.165C47.7607 664.972 47.7607 665.783 47.6932 666.589C47.4751 666.589 47.6932 663.123 46.7479 657.693C46.4813 656.336 46.2389 654.833 45.7783 653.282C45.3399 651.639 44.814 650.021 44.2028 648.434C42.7843 644.751 40.972 641.232 38.7974 637.938C36.5519 634.692 33.9681 631.694 31.0893 628.994C29.8288 627.822 28.5102 626.713 27.1383 625.673C25.9578 624.735 24.7279 623.862 23.4539 623.055C18.7515 619.977 15.5762 618.717 15.5762 618.547Z" fill="#AD7200"/>
<path d="M20.7168 146.424L20.7168 374.039H304.479V146.424L20.7168 146.424Z" fill="#4B7FFB"/>
<path d="M305.542 375.16H19.6211V145.303H305.542V375.16ZM21.7795 372.918H303.383V147.545H21.7795V372.918Z" fill="#E0E0E0"/>
<path d="M273.725 169.803H51.4355V344.074H273.725V169.803Z" fill="white"/>
<path d="M273.727 169.801H272.662H269.523H257.413L211.834 169.941L51.4382 170.193L51.9428 169.66C51.9428 221.939 51.9428 281.282 51.9428 343.932L51.3822 343.343H273.671L273.223 343.82C273.223 291.177 273.391 247.672 273.447 217.286C273.447 202.093 273.447 190.179 273.447 182.05C273.447 178.014 273.447 174.902 273.447 172.772C273.447 170.642 273.447 169.548 273.447 169.548C273.447 169.548 273.447 170.614 273.447 172.66C273.447 174.706 273.447 177.846 273.447 181.854C273.447 189.983 273.447 201.841 273.447 216.978C273.447 247.42 273.447 291.037 273.699 343.82V344.296H273.223H50.9337H50.373V343.708C50.373 281.057 50.373 221.715 50.373 169.436V168.932H50.8776L211.61 169.184L257.077 169.324H269.074H273.167L273.727 169.801Z" fill="#E0E0E0"/>
<path d="M214.048 201.955C214.048 202.291 192.044 202.543 164.937 202.543C137.831 202.543 115.826 202.291 115.826 201.955C115.826 201.618 137.803 201.338 164.937 201.338C192.072 201.338 214.048 201.618 214.048 201.955Z" fill="#1E1C61"/>
<path d="M236.163 259.561C236.163 259.898 203.226 260.178 162.581 260.178C121.935 260.178 88.998 259.898 88.998 259.561C88.998 259.225 121.935 258.973 162.581 258.973C203.226 258.973 236.163 259.225 236.163 259.561Z" fill="#1E1C61"/>
<path d="M236.163 273.796C236.163 274.133 203.226 274.413 162.581 274.413C121.935 274.413 88.998 274.133 88.998 273.796C88.998 273.46 121.935 273.18 162.581 273.18C203.226 273.18 236.163 273.46 236.163 273.796Z" fill="#1E1C61"/>
<path d="M164.768 327.058C174.227 327.058 181.895 319.063 181.895 309.202C181.895 299.34 174.227 291.346 164.768 291.346C155.309 291.346 147.641 299.34 147.641 309.202C147.641 319.063 155.309 327.058 164.768 327.058Z" fill="#FFCB67"/>
<path d="M164.77 327.089C161.198 327.234 157.665 326.308 154.625 324.429C151.584 322.55 149.175 319.804 147.708 316.545C146.241 313.286 145.782 309.662 146.391 306.14C147 302.618 148.648 299.359 151.125 296.781C153.601 294.204 156.792 292.426 160.287 291.677C163.782 290.928 167.421 291.242 170.736 292.578C174.051 293.914 176.891 296.211 178.89 299.174C180.889 302.137 181.956 305.63 181.953 309.205C182.043 313.854 180.284 318.349 177.062 321.702C173.84 325.056 169.419 326.993 164.77 327.089V327.089ZM164.77 291.405C161.222 291.259 157.712 292.178 154.69 294.044C151.669 295.909 149.274 298.636 147.814 301.873C146.355 305.11 145.897 308.709 146.499 312.209C147.101 315.708 148.736 318.948 151.194 321.51C153.652 324.073 156.82 325.842 160.292 326.59C163.763 327.338 167.378 327.031 170.674 325.708C173.969 324.385 176.793 322.106 178.783 319.165C180.773 316.224 181.838 312.756 181.841 309.205C181.931 304.582 180.185 300.113 176.985 296.776C173.785 293.439 169.392 291.508 164.77 291.405Z" fill="#E0E0E0"/>
<path d="M129.926 309.202C123.066 309.796 116.178 309.993 109.295 309.791C102.413 309.994 95.5239 309.797 88.6641 309.202C95.5228 308.588 102.412 308.382 109.295 308.585C116.178 308.383 123.067 308.589 129.926 309.202V309.202Z" fill="#1E1C61"/>
<path d="M243.06 309.202C235.386 309.797 227.685 309.994 219.99 309.791C212.286 309.993 204.577 309.797 196.893 309.202C204.576 308.589 212.286 308.383 219.99 308.585C227.686 308.382 235.387 308.588 243.06 309.202V309.202Z" fill="#1E1C61"/>
<path d="M119.274 305.839C119.12 305.358 119.035 304.858 119.022 304.354C118.715 300.614 119.705 296.882 121.825 293.786C122.264 293.194 122.884 292.761 123.591 292.552C123.983 292.453 124.392 292.446 124.787 292.534C125.181 292.622 125.549 292.801 125.862 293.057C126.563 293.613 127.079 294.369 127.339 295.226C127.6 296.082 127.593 296.998 127.319 297.85C126.782 299.547 125.925 301.127 124.797 302.503C123.704 304.031 122.434 305.424 121.012 306.652C119.472 308.001 117.591 308.903 115.574 309.259C113.416 309.533 111.236 308.961 109.491 307.661C108.523 306.931 107.758 305.966 107.267 304.858C106.777 303.749 106.577 302.533 106.688 301.326C106.903 298.923 107.519 296.574 108.51 294.374C109.011 293.188 109.79 292.14 110.781 291.319C111.297 290.891 111.901 290.582 112.55 290.412C113.199 290.243 113.877 290.217 114.537 290.338C115.219 290.497 115.843 290.844 116.339 291.339C116.834 291.835 117.181 292.459 117.34 293.141C117.595 294.485 117.518 295.87 117.116 297.177C116.34 299.608 115.196 301.905 113.724 303.989C112.355 306.111 110.475 307.855 108.258 309.063C106.117 310.133 103.677 310.449 101.334 309.96C100.17 309.726 99.0679 309.247 98.1016 308.556C97.1353 307.865 96.3263 306.978 95.728 305.951C94.6393 303.984 94.1337 301.748 94.2703 299.504C94.4115 297.43 94.9242 295.398 95.784 293.505C96.5409 291.795 97.4939 289.749 99.5683 289.16C100.087 289.078 100.618 289.158 101.09 289.389C101.561 289.619 101.95 289.99 102.203 290.45C102.64 291.26 102.871 292.165 102.876 293.085C103.017 296.086 102.4 299.075 101.082 301.775C100.062 303.789 98.6625 305.588 96.9613 307.073C95.9248 308.011 94.7647 308.803 93.5135 309.427C93.0875 309.65 92.6356 309.82 92.168 309.932C93.7824 309.031 95.2954 307.96 96.681 306.736C98.259 305.224 99.5505 303.438 100.493 301.466C101.782 298.856 102.398 295.966 102.287 293.057C102.259 292.284 102.058 291.527 101.699 290.842C101.542 290.537 101.291 290.291 100.983 290.139C100.675 289.988 100.326 289.939 99.9887 290.001C99.2198 290.239 98.5627 290.747 98.1387 291.431C97.6294 292.185 97.2063 292.994 96.8772 293.842C95.9913 295.618 95.5301 297.575 95.5301 299.56C95.5301 301.545 95.9913 303.503 96.8772 305.279C97.3813 306.161 98.0666 306.927 98.8879 307.527C99.7092 308.126 100.648 308.544 101.643 308.754C103.747 309.166 105.928 308.86 107.838 307.885C111.869 305.422 114.807 301.511 116.051 296.953C116.387 295.855 116.463 294.694 116.275 293.561C116.186 293.07 115.955 292.614 115.612 292.251C115.268 291.888 114.827 291.632 114.341 291.515C113.847 291.446 113.344 291.477 112.862 291.607C112.38 291.737 111.93 291.963 111.538 292.272C110.714 292.986 110.062 293.877 109.632 294.879C108.7 296.939 108.104 299.134 107.866 301.382C107.756 302.396 107.904 303.42 108.296 304.361C108.688 305.302 109.312 306.128 110.108 306.764C111.697 307.879 113.654 308.341 115.574 308.054C117.422 307.758 119.15 306.953 120.564 305.727C121.937 304.557 123.17 303.23 124.236 301.775C125.304 300.506 126.131 299.052 126.675 297.486C126.891 296.814 126.903 296.092 126.708 295.413C126.513 294.735 126.121 294.129 125.581 293.674C125.348 293.492 125.079 293.362 124.792 293.291C124.504 293.221 124.205 293.211 123.914 293.264C123.623 293.317 123.347 293.431 123.103 293.598C122.859 293.765 122.653 293.982 122.498 294.234C121.155 295.995 120.2 298.02 119.695 300.177C119.329 302.041 119.188 303.942 119.274 305.839V305.839Z" fill="#1E1C61"/>
<path d="M237.679 302.98C237.542 303.085 237.391 303.17 237.23 303.232C236.922 303.232 236.474 303.625 235.857 303.877C231.238 305.855 226.339 307.103 221.337 307.577C219.427 307.755 217.508 307.83 215.59 307.802C213.474 307.619 211.35 307.563 209.227 307.633C208.141 307.745 207.139 308.266 206.424 309.091C206.071 309.515 205.85 310.033 205.79 310.582C205.731 311.13 205.834 311.684 206.088 312.174C206.654 313.297 207.36 314.342 208.19 315.286C208.975 316.332 209.816 317.37 210.713 318.397C211.61 319.435 212.535 320.444 213.516 321.481C214.356 322.544 215.43 323.398 216.655 323.976C217.251 324.171 217.895 324.162 218.484 323.948C219.074 323.735 219.575 323.33 219.907 322.798C220.675 321.58 221.011 320.138 220.86 318.706C219.491 304.94 220.96 291.039 225.177 277.864L225.654 276.322L226.242 277.808C227.571 281.215 228.356 284.809 228.569 288.46C229.019 295.995 227.055 303.477 222.962 309.82C221.808 312.061 219.859 313.79 217.496 314.669C216.847 314.851 216.157 314.824 215.523 314.593C214.889 314.361 214.344 313.937 213.964 313.38C213.362 312.289 213.044 311.065 213.039 309.82C212.905 307.511 212.961 305.195 213.208 302.896C213.712 298.641 214.925 294.501 216.796 290.646L217.16 289.861L217.665 290.562C218.311 291.499 218.767 292.554 219.005 293.667C219.244 294.78 219.261 295.929 219.055 297.048C218.85 298.167 218.425 299.235 217.807 300.191C217.188 301.146 216.387 301.97 215.45 302.616C213.719 303.641 211.66 303.963 209.699 303.515C207.737 303.066 206.023 301.881 204.91 300.205C203.972 298.668 203.533 296.878 203.653 295.081C203.774 293.284 204.448 291.568 205.583 290.17C206.105 289.522 206.793 289.028 207.573 288.74C207.979 288.601 208.418 288.591 208.829 288.711C209.241 288.832 209.605 289.077 209.872 289.413C210.318 290.071 210.516 290.865 210.432 291.655C210.376 292.364 210.225 293.061 209.984 293.73C208.71 297.617 206.54 301.151 203.649 304.045C202.898 304.785 202.102 305.477 201.266 306.12C200.998 306.36 200.696 306.558 200.369 306.708C200.369 306.708 200.621 306.428 201.182 305.98C201.967 305.291 202.716 304.561 203.425 303.793C206.168 300.866 208.219 297.36 209.423 293.534C209.688 292.958 209.825 292.331 209.825 291.698C209.825 291.064 209.688 290.437 209.423 289.861C208.638 288.824 207.041 289.525 206.2 290.674C205.192 291.946 204.601 293.498 204.506 295.117C204.41 296.737 204.816 298.347 205.667 299.729C206.672 301.2 208.201 302.232 209.942 302.612C211.682 302.993 213.503 302.693 215.03 301.775C216.672 300.617 217.791 298.856 218.143 296.877C218.495 294.898 218.051 292.86 216.908 291.207H217.749C215.963 294.962 214.817 298.988 214.357 303.12C214.104 305.297 214.047 307.493 214.189 309.68C214.167 310.717 214.418 311.742 214.917 312.651C215.171 313.021 215.536 313.302 215.958 313.453C216.381 313.604 216.841 313.618 217.272 313.492C218.273 313.18 219.179 312.62 219.907 311.866C220.685 310.999 221.379 310.06 221.981 309.063C223.262 307.096 224.333 305.001 225.177 302.812C226.926 298.249 227.691 293.367 227.419 288.488C227.234 284.972 226.486 281.508 225.205 278.228H226.298C222.127 291.279 220.64 305.038 221.925 318.678C222.071 320.353 221.657 322.029 220.748 323.443C220.255 324.134 219.574 324.67 218.786 324.985C218 325.279 217.133 325.279 216.347 324.985C214.989 324.329 213.8 323.37 212.871 322.182C211.89 321.145 210.965 320.079 210.068 319.042C209.171 318.005 208.33 316.94 207.545 315.875C206.68 314.852 205.937 313.733 205.331 312.539C205.034 311.89 204.924 311.171 205.013 310.463C205.102 309.755 205.387 309.086 205.835 308.53C206.683 307.564 207.864 306.953 209.143 306.82C210.261 306.694 211.389 306.694 212.507 306.82C213.572 306.82 214.609 306.989 215.618 307.017C217.485 307.128 219.357 307.128 221.225 307.017C224.264 306.776 227.276 306.26 230.223 305.475C232.124 305.008 233.997 304.428 235.829 303.737C236.427 303.441 237.045 303.188 237.679 302.98Z" fill="#1E1C61"/>
</g>
<defs>
<clipPath id="clip0">
<rect width="798" height="777" fill="white"/>
</clipPath>
</defs>
</svg>
