<svg width="816" height="728" viewBox="0 0 816 728" fill="none" xmlns="http://www.w3.org/2000/svg">
<g clip-path="url(#clip0)">
<path opacity="0.07" fill-rule="evenodd" clip-rule="evenodd" d="M696.999 473.92C658.357 582.769 604.367 679.236 494.025 713.381C385.153 747.071 302.199 689.731 208.3 625.147C119.525 564.088 19.4517 502.943 3.15803 396.435C-13.9061 284.892 45.5475 176.956 127.94 99.8539C208.103 24.8377 315.761 -7.75682 425.156 1.53182C541.015 11.3694 663.492 49.471 721.487 150.252C778.265 248.915 735.082 366.645 696.999 473.92Z" fill="#4B80FB"/>
<g clip-path="url(#clip1)">
<path d="M290.669 221.346H229.572V342.455H290.669V221.346Z" fill="#E3E9F9"/>
<path d="M359.034 221.346H293.023V342.455H359.034V221.346Z" fill="#E3E9F9"/>
<path d="M359.034 350.922H293.023V467.941H359.034V350.922Z" fill="#E3E9F9"/>
<path d="M367.502 219.253H437.028V111.814H439.368V219.253H495.943V109.436H367.502V219.253Z" fill="#E3E9F9"/>
<path d="M495.942 221.346H439.367V342.455H495.942V221.346Z" fill="#E3E9F9"/>
<path d="M495.942 350.922H439.367V467.941H495.942V350.922Z" fill="#E0E0E0"/>
<path d="M290.669 350.922H229.572V467.941H290.669V350.922Z" fill="#E3E9F9"/>
<path d="M437.028 350.922H367.502V467.941H437.028V350.922Z" fill="#E0E0E0"/>
<path d="M290.669 470.031H229.572V575.484H290.669V470.031Z" fill="#E3E9F9"/>
<path d="M495.942 470.031H439.367V575.484H495.942V470.031Z" fill="#E0E0E0"/>
<path d="M290.669 219.253V111.814H293.022V219.253H359.033V109.436H229.572V219.253H290.669Z" fill="#E3E9F9"/>
<path d="M437.028 470.031H367.502V575.484H437.028V470.031Z" fill="#E0E0E0"/>
<path d="M359.034 470.031H293.023V575.484H359.034V470.031Z" fill="#E3E9F9"/>
<path d="M437.028 221.346H367.502V342.455H437.028V221.346Z" fill="#E3E9F9"/>
<path d="M597.384 514.807L592.379 695.837H816.197V517.277L597.384 514.807Z" fill="#A1D9F2"/>
<path d="M717.971 516.18L715.984 695.838H816.197V517.277L717.971 516.18Z" fill="#207FA8"/>
<path d="M604.414 521.811V601.387H710.442V525.574L604.414 521.811Z" fill="#207FA8"/>
<path d="M640.969 543.703V555.451H673.406V542.631L640.969 543.703Z" fill="#F5F5F5"/>
<path d="M674.464 565.344H640.969V570.153H674.464V565.344Z" fill="#F5F5F5"/>
<path d="M604.414 611.516V691.079H710.442V615.266L604.414 611.516Z" fill="#207FA8"/>
<path d="M640.969 633.406V645.155H673.406V632.334L640.969 633.406Z" fill="#F5F5F5"/>
<path d="M674.464 655.035H640.969V659.844H674.464V655.035Z" fill="#F5F5F5"/>
<path d="M660.415 156.392H656.494V148.969C656.524 148.425 656.447 147.88 656.266 147.366C656.085 146.852 655.804 146.379 655.44 145.973C655.076 145.568 654.635 145.238 654.143 145.003C653.651 144.768 653.118 144.633 652.574 144.604H622.79C622.245 144.633 621.712 144.768 621.22 145.003C620.728 145.238 620.288 145.568 619.924 145.973C619.559 146.379 619.279 146.852 619.098 147.366C618.917 147.88 618.839 148.425 618.869 148.969V156.392H614.948V148.969C614.919 147.91 615.098 146.856 615.476 145.866C615.855 144.876 616.424 143.971 617.152 143.202C617.88 142.432 618.753 141.814 619.72 141.382C620.688 140.95 621.731 140.712 622.79 140.684H652.626C653.685 140.712 654.728 140.95 655.695 141.382C656.663 141.814 657.535 142.432 658.264 143.202C658.992 143.971 659.561 144.876 659.939 145.866C660.318 146.856 660.497 147.91 660.467 148.969L660.415 156.392Z" fill="#F57E71"/>
<path d="M702.653 156.393H572.147C565.557 156.393 560.215 161.735 560.215 168.324V247.679C560.215 254.269 565.557 259.611 572.147 259.611H702.653C709.242 259.611 714.585 254.269 714.585 247.679V168.324C714.585 161.735 709.242 156.393 702.653 156.393Z" fill="#F57E71"/>
<path d="M642.329 187.156H633.076V228.637H642.329V187.156Z" fill="#F5F5F5"/>
<path d="M616.975 203.271V212.523H658.455V203.271H616.975Z" fill="#F5F5F5"/>
<path d="M672.164 207.988C672.123 207.808 672.101 207.624 672.099 207.439C672.099 207.038 672.06 206.489 671.981 205.792C671.981 205.426 671.981 205.034 671.903 204.59C671.825 204.146 671.759 203.662 671.681 203.139C671.517 201.939 671.273 200.752 670.949 199.585C670.127 196.36 668.827 193.277 667.094 190.436C663.001 183.604 656.659 178.409 649.154 175.743C641.65 173.077 633.451 173.106 625.966 175.825C622.86 176.927 619.942 178.501 617.314 180.491C615.936 181.505 614.626 182.61 613.394 183.797C612.191 185.027 611.073 186.337 610.048 187.718C607.92 190.574 606.269 193.756 605.16 197.141C602.807 204.145 602.807 211.726 605.16 218.731C606.267 222.12 607.918 225.307 610.048 228.166C611.076 229.545 612.194 230.855 613.394 232.087C614.632 233.268 615.941 234.372 617.314 235.393C618.655 236.385 620.061 237.284 621.523 238.086C622.958 238.846 624.448 239.502 625.979 240.046C633.473 242.765 641.679 242.796 649.193 240.133C656.707 237.47 663.063 232.279 667.172 225.448C668.9 222.606 670.195 219.523 671.014 216.3C671.338 215.128 671.582 213.936 671.746 212.732C671.825 212.209 671.916 211.739 671.968 211.294C672.021 210.85 671.968 210.458 672.047 210.092C672.099 209.395 672.138 208.846 672.164 208.445C672.167 208.256 672.189 208.068 672.23 207.883C672.244 208.07 672.244 208.258 672.23 208.445C672.23 208.85 672.23 209.399 672.23 210.092C672.23 210.458 672.23 210.863 672.23 211.307C672.23 211.752 672.099 212.235 672.034 212.771C671.9 213.984 671.677 215.185 671.367 216.365C670.591 219.637 669.317 222.771 667.59 225.657C665.08 229.91 661.693 233.58 657.655 236.424C653.618 239.267 649.021 241.219 644.171 242.15C636.366 243.598 628.301 242.378 621.274 238.687C619.782 237.876 618.349 236.958 616.988 235.942C615.607 234.912 614.297 233.79 613.067 232.584C611.836 231.316 610.692 229.967 609.643 228.545C607.463 225.627 605.773 222.374 604.637 218.913C603.483 215.349 602.875 211.63 602.834 207.883C602.882 204.137 603.49 200.419 604.637 196.853C605.773 193.397 607.464 190.148 609.643 187.234C610.641 185.854 611.728 184.54 612.897 183.301C614.13 182.094 615.44 180.968 616.818 179.929C618.182 178.917 619.614 178 621.104 177.185C622.578 176.42 624.102 175.756 625.665 175.198C633.285 172.434 641.632 172.423 649.258 175.168C656.885 177.913 663.31 183.241 667.42 190.227C669.149 193.112 670.423 196.246 671.197 199.519C671.509 200.699 671.731 201.9 671.864 203.113C671.929 203.636 672.021 204.12 672.06 204.564C672.099 205.008 672.06 205.413 672.06 205.779C672.06 206.485 672.06 207.086 672.06 207.439C672.109 207.619 672.144 207.802 672.164 207.988Z" fill="#F5F5F5"/>
<path d="M760.785 163.985V148.381H749.807V163.985H738.764V253.259H771.031V163.985H760.785Z" fill="#FFCB67"/>
<path d="M808.748 253.26H542.443V266.851H808.748V253.26Z" fill="#DCE6FF"/>
<path d="M602.232 266.836H594.482V298.959H602.232V266.836Z" fill="#E0E0E0"/>
<path d="M757.295 266.836H749.545V298.959H757.295V266.836Z" fill="#E0E0E0"/>
<path d="M700.734 187.991V176.582H692.696V187.991H684.633V253.257H708.222V187.991H700.734Z" fill="#A1D9F2"/>
<path d="M727.511 187.991V176.582H719.487V187.991H711.41V253.257H735.013V187.991H727.511Z" fill="#207FA8"/>
<path d="M594.483 210.85H552.088V253.245H594.483V210.85Z" fill="#5A4980"/>
<path d="M594.287 221.751C594.287 222.025 584.917 222.247 573.377 222.247C561.837 222.247 552.467 222.025 552.467 221.751C552.467 221.476 561.824 221.254 573.377 221.254C584.93 221.254 594.287 221.476 594.287 221.751Z" fill="#EBEBEB"/>
<path d="M574.906 227.381C574.906 227.381 575.063 227.381 575.337 227.381C575.741 227.491 576.121 227.672 576.461 227.917C577.717 228.871 578.551 230.278 578.787 231.838C579.313 234.117 578.918 236.512 577.689 238.503C576.915 239.692 575.751 240.575 574.396 240.999C572.957 241.41 571.431 241.41 569.992 240.999C568.583 240.687 567.287 239.993 566.247 238.992C565.207 237.992 564.463 236.723 564.098 235.327C563.875 234.375 563.866 233.385 564.072 232.428C564.278 231.472 564.693 230.574 565.288 229.797C565.883 229.021 566.643 228.387 567.513 227.939C568.383 227.492 569.341 227.243 570.319 227.211C570.878 227.135 571.448 227.23 571.952 227.486C571.952 227.577 571.364 227.486 570.345 227.603C568.923 227.794 567.599 228.435 566.568 229.433C565.843 230.171 565.318 231.081 565.041 232.078C564.764 233.074 564.746 234.125 564.986 235.131C565.331 236.346 566 237.446 566.92 238.311C567.841 239.176 568.979 239.776 570.214 240.045C571.496 240.407 572.853 240.407 574.135 240.045C575.289 239.694 576.286 238.956 576.958 237.954C578.09 236.169 578.502 234.019 578.108 231.942C577.951 230.517 577.288 229.195 576.239 228.217C575.455 227.59 574.867 227.381 574.906 227.381Z" fill="#EBEBEB"/>
<path d="M481.254 216.064C480.16 202.12 473.854 189.101 463.593 179.597C453.331 170.094 439.867 164.804 425.881 164.781H423.006C391.928 166.532 376.049 193.912 378.663 224.898L384.021 349.262L455.077 377.125L454.842 321.569C454.842 321.569 484.73 316.982 485.161 287.119C485.357 272.704 483.371 242.959 481.254 216.064Z" fill="#BF9382"/>
<path d="M455.09 321.542C455.09 321.542 436.009 322.64 415.975 310.002C415.975 310.002 425.123 331.513 454.946 328.886L455.09 321.542Z" fill="#785143"/>
<path d="M472.758 237.837C472.762 238.949 472.334 240.02 471.563 240.822C470.792 241.624 469.74 242.096 468.628 242.136C468.086 242.177 467.542 242.109 467.026 241.936C466.511 241.764 466.035 241.49 465.628 241.13C465.22 240.771 464.888 240.334 464.651 239.845C464.415 239.355 464.278 238.824 464.25 238.281C464.239 237.169 464.664 236.096 465.433 235.293C466.202 234.489 467.255 234.019 468.367 233.981C468.91 233.939 469.456 234.005 469.973 234.177C470.49 234.349 470.967 234.623 471.376 234.982C471.785 235.342 472.119 235.779 472.356 236.27C472.593 236.76 472.73 237.293 472.758 237.837V237.837Z" fill="#263238"/>
<path d="M474.811 230.673C474.275 231.222 471.06 228.83 466.46 228.83C461.86 228.83 458.501 231.118 458.004 230.556C457.769 230.307 458.305 229.249 459.769 228.242C461.758 226.871 464.122 226.145 466.538 226.164C468.927 226.167 471.255 226.921 473.19 228.321C474.589 229.419 475.072 230.425 474.811 230.673Z" fill="#263238"/>
<path d="M430.949 237.837C430.957 238.948 430.531 240.018 429.763 240.821C428.994 241.624 427.943 242.095 426.833 242.136C426.29 242.177 425.745 242.109 425.229 241.937C424.713 241.764 424.236 241.49 423.827 241.131C423.418 240.772 423.085 240.335 422.847 239.846C422.609 239.356 422.471 238.824 422.442 238.281C422.431 237.169 422.855 236.096 423.624 235.293C424.394 234.489 425.447 234.019 426.558 233.981C427.101 233.939 427.647 234.005 428.164 234.177C428.681 234.349 429.158 234.623 429.568 234.982C429.977 235.342 430.31 235.779 430.547 236.27C430.785 236.76 430.921 237.293 430.949 237.837V237.837Z" fill="#263238"/>
<path d="M429.684 231.432C429.161 231.981 425.933 229.59 421.346 229.59C416.759 229.59 413.387 231.89 412.89 231.315C412.642 231.066 413.178 230.008 414.655 229.001C416.642 227.627 419.008 226.905 421.424 226.937C423.811 226.926 426.138 227.682 428.063 229.093C429.475 230.178 429.932 231.184 429.684 231.432Z" fill="#263238"/>
<path d="M446.281 265.502C446.281 265.241 449.116 264.757 453.73 264.195C454.906 264.078 456.017 263.843 456.213 263.045C456.314 261.835 456.045 260.623 455.442 259.569L451.992 250.63C447.208 237.914 443.745 227.459 444.255 227.276C444.765 227.093 449.064 237.234 453.86 249.95L457.154 258.942C457.598 260.249 458.356 261.791 457.755 263.542C457.586 263.957 457.323 264.327 456.988 264.624C456.652 264.921 456.253 265.137 455.821 265.254C455.172 265.424 454.505 265.516 453.834 265.529C449.182 265.751 446.294 265.764 446.281 265.502Z" fill="#263238"/>
<path d="M432.768 268.653C433.513 268.653 433.513 273.593 437.76 277.134C442.008 280.676 447.327 280.153 447.366 280.846C447.366 281.16 446.176 281.813 443.942 281.865C441.024 281.9 438.187 280.905 435.93 279.056C433.749 277.285 432.343 274.735 432.01 271.946C431.866 269.855 432.415 268.627 432.768 268.653Z" fill="#263238"/>
<path d="M430.913 213.45C430.455 214.757 425.868 214.091 420.458 214.757C415.047 215.424 410.721 216.861 410.003 215.737C409.689 215.202 410.447 214.025 412.211 212.823C414.559 211.35 417.21 210.429 419.965 210.13C422.72 209.831 425.508 210.162 428.116 211.098C430.116 211.869 431.109 212.849 430.913 213.45Z" fill="#263238"/>
<path d="M473.151 217.382C472.34 218.414 469.23 217.382 465.375 217.277C461.519 217.173 458.357 217.957 457.612 216.872C457.298 216.337 457.795 215.291 459.206 214.259C461.098 213.076 463.3 212.485 465.53 212.559C467.76 212.633 469.917 213.371 471.726 214.677C473.059 215.801 473.504 216.925 473.151 217.382Z" fill="#263238"/>
<path d="M478.416 202.367C478.416 202.367 470.575 183.639 461.557 179.261C450.658 173.955 445.874 185.926 435.524 182.999C425.173 180.071 414.718 174.974 404.067 182.999C392.41 191.781 397.846 197.963 397.101 211.215C394.069 264.941 384.228 280.114 381.497 254.799C381.196 252.029 373.499 249.807 372.349 238.097C370.898 222.898 370.349 204.458 373.76 193.663C376.635 184.58 381.837 178.32 391.142 171.446C405.831 160.546 425.97 160.35 439.654 161.762C453.337 163.173 479.71 178.947 478.416 202.367Z" fill="#1E1C61"/>
<path d="M383.393 253.989C383.36 252.892 383.106 251.813 382.644 250.818C382.183 249.822 381.524 248.931 380.708 248.198C379.891 247.464 378.935 246.905 377.895 246.552C376.856 246.2 375.756 246.062 374.663 246.148C369.095 246.67 362.901 249.82 363.227 261.334C363.841 281.747 384.216 276.925 384.229 276.337C384.242 275.749 383.732 262.536 383.393 253.989Z" fill="#BF9382"/>
<path d="M379.564 268.809C379.473 268.809 379.211 269.07 378.623 269.358C377.8 269.73 376.866 269.776 376.01 269.489C373.827 268.77 371.919 265.398 371.71 261.713C371.599 259.964 371.885 258.213 372.546 256.59C372.719 255.943 373.048 255.349 373.503 254.859C373.959 254.369 374.528 253.999 375.16 253.78C375.566 253.663 376 253.69 376.389 253.857C376.777 254.024 377.096 254.32 377.29 254.695C377.578 255.257 377.46 255.662 377.565 255.701C377.669 255.74 377.996 255.348 377.8 254.512C377.693 253.987 377.395 253.522 376.964 253.205C376.681 252.997 376.359 252.848 376.018 252.768C375.677 252.687 375.323 252.675 374.977 252.734C374.144 252.926 373.373 253.329 372.74 253.903C372.106 254.477 371.63 255.204 371.357 256.015C370.546 257.809 370.182 259.773 370.298 261.739C370.547 265.855 372.768 269.58 375.748 270.403C376.301 270.549 376.879 270.568 377.44 270.46C378.001 270.351 378.531 270.118 378.989 269.776C379.538 269.293 379.63 268.835 379.564 268.809Z" fill="#785143"/>
<path d="M676.045 509.827L595.998 502.626C595.998 502.626 543.906 410.87 536.652 398.99C529.399 387.11 508.345 360.685 500.752 359.182C493.159 357.679 537.816 522.739 545.605 537.481C553.394 552.223 558.268 563.815 573.271 567.539C588.274 571.264 675.627 565.867 677.548 565.867C679.469 565.867 676.045 509.827 676.045 509.827Z" fill="white"/>
<path d="M676.045 509.826C676.045 509.826 676.045 510.388 676.175 511.486C676.306 512.583 676.345 514.217 676.489 516.334C676.737 520.608 677.103 526.894 677.495 535.01C677.691 539.061 677.9 543.583 678.07 548.51C678.149 550.98 678.227 553.567 678.266 556.246C678.306 558.926 678.358 561.709 678.123 564.611C678.089 564.987 678.019 565.359 677.914 565.721C677.881 565.854 677.802 565.97 677.691 566.048C677.619 566.07 677.542 566.07 677.469 566.048H677.325H676.79L674.568 566.166L670.033 566.427L660.519 566.937L639.831 567.93C632.578 568.231 624.971 568.531 617.052 568.74C609.132 568.949 600.885 569.132 592.338 569.054C590.208 569.054 588.052 569.054 585.882 568.923C583.713 568.793 581.517 568.78 579.348 568.57C577.112 568.438 574.892 568.119 572.709 567.616C571.613 567.331 570.536 566.982 569.481 566.571C568.945 566.362 568.409 566.166 567.887 565.931L566.344 565.173C564.293 564.115 562.386 562.797 560.673 561.252C558.921 559.679 557.34 557.927 555.955 556.024C553.199 552.151 550.748 548.07 548.623 543.818L545.277 537.388C544.249 535.156 543.342 532.87 542.559 530.54C540.925 525.887 539.423 521.156 537.933 516.347C534.966 506.755 532.091 496.901 529.242 486.851C523.544 466.751 517.937 445.854 512.527 424.368C509.599 412.685 506.803 401.132 504.306 389.696C503 383.985 501.876 378.3 500.895 372.629C500.412 369.793 499.968 366.957 499.706 364.108C499.504 362.66 499.504 361.191 499.706 359.743C499.754 359.534 499.838 359.335 499.954 359.155C500.032 359.03 500.143 358.928 500.274 358.862C500.406 358.795 500.552 358.765 500.699 358.775C501.078 358.847 501.45 358.952 501.81 359.089C502.482 359.362 503.125 359.699 503.731 360.095C506.085 361.662 508.274 363.461 510.266 365.467C512.278 367.414 514.186 369.387 516.042 371.492C519.754 375.595 523.217 379.829 526.497 384.09C529.778 388.35 532.94 392.676 535.802 397.159C536.534 398.257 537.188 399.394 537.828 400.531C538.468 401.668 539.135 402.792 539.762 403.915L543.605 410.607L596.128 502.507L595.945 502.39L654.86 507.813L670.543 509.277L674.594 509.669L675.901 509.813L674.503 509.721L670.412 509.368L654.638 508.061L595.828 502.834H595.906V502.729L543.239 410.947C541.932 408.725 540.69 406.503 539.396 404.255C538.756 403.131 538.089 401.994 537.462 400.87C536.835 399.746 536.155 398.596 535.437 397.512C532.601 393.107 529.438 388.821 526.158 384.547C522.877 380.274 519.388 376.079 515.702 371.988C513.86 369.949 511.952 367.937 509.952 366.003C507.986 364.053 505.832 362.302 503.522 360.775C502.942 360.408 502.329 360.093 501.693 359.834C501.396 359.718 501.09 359.626 500.778 359.56C500.778 359.56 500.556 359.73 500.477 360.043C500.287 361.409 500.287 362.794 500.477 364.16C500.726 366.983 501.17 369.806 501.653 372.629C502.647 378.287 503.823 383.959 505.064 389.618C507.574 401.04 510.37 412.593 513.298 424.264C518.695 445.749 524.302 466.633 529.987 486.733C532.836 496.783 535.698 506.624 538.651 516.23C540.141 521.026 541.644 525.757 543.265 530.396C544.034 532.7 544.929 534.96 545.944 537.166L549.289 543.583C551.394 547.812 553.823 551.871 556.556 555.724C557.912 557.583 559.458 559.295 561.169 560.834C562.844 562.375 564.711 563.692 566.723 564.754L568.239 565.512C568.749 565.735 569.272 565.917 569.795 566.127C570.831 566.54 571.891 566.889 572.97 567.172C575.12 567.661 577.305 567.975 579.505 568.113C581.687 568.322 583.883 568.387 586.039 568.466C588.196 568.544 590.365 568.584 592.495 568.61C601.016 568.701 609.263 568.61 617.182 568.335C625.102 568.061 632.695 567.852 639.948 567.564L660.636 566.623L670.151 566.127L674.699 565.891L676.92 565.787H677.469H677.678C677.678 565.983 677.678 565.787 677.678 565.787C677.678 565.787 677.678 565.787 677.678 565.643C677.767 565.309 677.828 564.968 677.861 564.624C678.11 561.775 678.044 558.978 678.031 556.299C678.018 553.62 677.927 551.071 677.861 548.575C677.704 543.635 677.521 539.126 677.352 535.075C676.973 526.972 676.672 520.699 676.463 516.399C676.358 514.274 676.28 512.653 676.228 511.538C676.058 510.388 676.045 509.826 676.045 509.826Z" fill="#DCE6FF"/>
<path d="M548.48 507.147C546.886 509.016 574.997 695.574 574.997 695.574H500.753L446.922 441.985L455.142 338.166C455.142 338.166 494.048 349.928 500.805 359.181C507.562 368.434 548.48 507.147 548.48 507.147Z" fill="white"/>
<path d="M548.48 507.146C548.114 505.944 542.455 487.321 531.987 452.91C526.668 435.673 520.225 414.723 512.384 390.846C510.41 384.887 508.332 378.744 506.071 372.458C504.921 369.335 503.771 366.146 502.412 362.996C501.831 361.398 500.992 359.906 499.929 358.579C498.727 357.334 497.38 356.237 495.917 355.312C489.743 351.577 483.227 348.439 476.457 345.941C469.57 343.236 462.408 340.714 455.024 338.44L455.403 338.179C452.92 369.792 450.176 404.83 447.222 442.011V441.919C454.201 474.775 461.689 509.982 469.439 546.288C480.639 599.021 491.343 649.401 501.131 695.508L500.818 695.26L574.997 695.247L574.709 695.574C566.214 638.841 559.353 591.754 554.753 558.834C552.453 542.367 550.715 529.442 549.643 520.62C548.571 511.799 548.179 507.081 548.454 507.094C548.377 508.247 548.434 509.405 548.624 510.544C548.859 512.818 549.251 516.203 549.813 520.607C550.95 529.416 552.727 542.328 555.04 558.781C559.732 591.689 566.685 638.763 575.232 695.482V695.809H574.997H500.726H500.504V695.547L468.707 546.431L446.49 442.063V441.959C449.444 404.83 452.227 369.753 454.75 338.139V337.773L455.09 337.878C462.495 340.187 469.648 342.696 476.549 345.406C483.371 347.925 489.935 351.094 496.152 354.868C497.654 355.813 499.036 356.936 500.269 358.213C501.379 359.589 502.261 361.133 502.883 362.787C504.189 365.963 505.392 369.152 506.542 372.288C508.79 378.575 510.868 384.73 512.828 390.702C520.669 414.592 527.06 435.555 532.327 452.806C537.593 470.057 541.619 483.648 544.35 492.914L547.46 503.5C547.8 504.689 548.062 505.604 548.245 506.218C548.428 506.833 548.48 507.146 548.48 507.146Z" fill="#DCE6FF"/>
<path d="M375.342 328.246L380.961 316.941L445.208 359.167L455.088 331.239C455.088 331.905 461.427 371.02 461.427 371.02C461.427 371.02 484.598 467.835 486.846 486.719C489.093 505.604 487.734 580.07 487.734 580.07L485.12 566.792C485.12 566.792 474.352 514.739 473.541 511.903C472.731 509.067 437.432 403.248 431.878 395.394C426.324 387.54 375.342 328.246 375.342 328.246Z" fill="#F57E71"/>
<path d="M374.741 327.555L365.083 344.871L331.953 363.167L365.932 540.094L346.256 738.599L506.632 739.762C506.632 739.762 487.813 563.879 477.985 522.543C468.157 481.206 433.551 395.448 433.551 395.448L374.741 327.555Z" fill="white"/>
<path d="M374.741 327.554C375.709 328.678 396.318 352.385 433.734 395.277C440.269 411.705 447.627 430.563 455.324 451.474C459.153 461.929 463.1 472.985 466.982 484.538C470.863 496.091 474.718 508.206 477.907 520.961C478.704 524.15 479.319 527.404 480.051 530.671L481.867 540.603C483.004 547.295 484.115 554.091 485.108 561.004C487.16 574.831 489.029 589.089 490.845 603.713C494.466 632.948 497.85 663.66 501.052 695.457V695.823H350.041V695.457C355.648 639.43 360.888 586.985 365.58 539.937V540.015C351.204 464.477 339.442 402.949 331.758 363.063V362.945H331.862L365.018 344.727L374.768 327.463C374.467 328.025 371.709 333.004 365.188 344.818L332.098 363.115L332.176 362.945C339.861 402.805 351.714 464.32 366.26 539.845V539.924C361.594 586.972 356.38 639.417 350.812 695.444L350.472 695.078H500.765L500.425 695.444C497.236 663.647 493.89 632.948 490.27 603.713C488.467 589.089 486.598 574.844 484.559 561.017C483.566 554.104 482.455 547.308 481.344 540.616C480.726 537.288 480.12 533.982 479.528 530.697C478.796 527.456 478.221 524.163 477.398 521.013C474.222 508.297 470.353 496.182 466.524 484.642C462.695 473.103 458.683 462.059 454.919 451.565C447.248 430.59 439.968 411.744 433.421 395.369L374.741 327.554Z" fill="#DCE6FF"/>
<path d="M462.735 478.931C462.265 479.506 456.096 471.9 446.726 459.445C437.355 446.991 424.574 429.544 410.669 410.176L407.375 405.589L407.31 405.497V405.393C407.428 399.054 407.558 392.925 407.663 387.096L407.898 387.41L393.078 382.627H392.987V382.561L372.704 355.326L367.032 347.615L365.555 345.576L365.189 345.04C365.111 344.923 365.071 344.857 365.085 344.857C365.098 344.857 365.085 344.857 365.228 345.014L365.633 345.511L367.189 347.51L372.991 355.103L393.418 382.117L393.261 382.012L408.094 386.822L408.329 386.9V387.135C408.225 392.977 408.12 399.119 408.003 405.432L407.937 405.223L411.231 409.81C425.136 429.165 437.813 446.638 447.118 459.184C456.423 471.73 462.395 479.362 462.735 478.931Z" fill="#DCE6FF"/>
<path d="M365.79 551.674C368.561 557.973 376.023 561.214 382.897 560.822C389.772 560.43 396.162 557.241 402.017 553.621C421.385 541.663 437.303 525.026 453.09 508.573C458.462 502.953 464.068 496.889 465.532 489.257C466.12 486.159 465.388 482.121 462.343 481.311C460.461 480.801 458.54 481.807 456.854 482.788C423.679 502.058 392.736 524.937 364.588 551.007" fill="#E0E0E0"/>
<path d="M333.706 362.422C333.706 362.422 309.776 372.224 306.496 386.625C302.85 402.635 298.224 423.31 303.882 437.254C309.541 451.199 326.099 515.785 334.882 531.808C343.664 547.83 350.159 550.339 370.821 551.895C391.483 553.45 485.148 465.418 485.148 465.418C485.148 465.418 495.603 455.433 480.587 420.814C465.571 386.194 455.233 395.29 455.233 395.29L385.106 450.088C385.106 450.088 380.27 433.87 376.846 423.414" fill="white"/>
<path d="M376.846 423.414C376.846 423.414 377.055 423.989 377.421 425.126C377.787 426.263 378.323 427.989 379.041 430.21C380.453 434.719 382.544 441.371 385.262 450.023L385.04 449.944L419.476 422.957L441.89 405.405L454.227 395.748L455.024 395.12C455.3 394.889 455.608 394.7 455.939 394.558C456.58 394.25 457.27 394.056 457.977 393.983C459.397 393.891 460.818 394.142 462.12 394.715C464.682 395.963 466.946 397.745 468.759 399.943C472.46 404.445 475.59 409.387 478.077 414.658L479.959 418.723L480.9 420.801L481.75 422.905L483.462 427.139L484.991 431.504C487.069 437.479 488.386 443.692 488.911 449.997C489.119 453.256 488.868 456.529 488.167 459.72C487.801 461.35 487.188 462.914 486.35 464.359C486.135 464.727 485.89 465.076 485.618 465.405C485.341 465.728 485.039 466.029 484.716 466.306L482.9 467.992C473.203 477.001 463.087 486.106 452.554 495.306C442.033 504.455 431.134 513.734 419.751 522.751C411.91 528.985 404.068 534.983 395.939 540.446C391.937 543.19 387.797 545.729 383.537 548.052C381.429 549.197 379.246 550.197 377.003 551.045C374.761 551.983 372.328 552.368 369.906 552.169C365.224 551.883 360.569 551.262 355.975 550.313C354.825 550.091 353.714 549.699 352.59 549.398C351.488 549.028 350.41 548.592 349.362 548.092C348.303 547.591 347.277 547.023 346.291 546.393C345.341 545.741 344.437 545.025 343.585 544.249C340.313 541.112 337.568 537.466 335.457 533.454C333.343 529.599 331.547 525.578 330.085 521.431C318.323 488.759 311.305 458.217 302.431 433.504C301.644 430.382 301.206 427.182 301.125 423.963C301.02 422.395 301.125 420.853 301.125 419.324C301.125 417.795 301.229 416.305 301.386 414.828C301.884 409.279 302.704 403.763 303.843 398.309C304.366 395.748 304.893 393.286 305.424 390.925C305.838 388.628 306.392 386.358 307.084 384.129C308.757 380.379 311.233 377.042 314.337 374.354C316.774 372.168 319.398 370.201 322.179 368.473C324.544 366.931 326.661 365.859 328.373 364.905C330.085 363.951 331.418 363.389 332.294 362.997C333.17 362.605 333.679 362.422 333.679 362.422L332.372 363.062C331.471 363.48 330.151 364.121 328.452 365.023C326.753 365.924 324.662 367.087 322.309 368.643C319.574 370.392 316.991 372.368 314.586 374.55C311.525 377.21 309.081 380.506 307.424 384.208C306.706 386.413 306.126 388.661 305.686 390.938C305.163 393.304 304.64 395.761 304.144 398.322C303.024 403.764 302.221 409.267 301.739 414.802C301.595 416.266 301.569 417.769 301.491 419.272C301.412 420.774 301.491 422.33 301.491 423.872C301.568 427.056 302.007 430.222 302.797 433.308C311.71 457.969 318.833 488.524 330.569 521.144C332.028 525.268 333.82 529.268 335.927 533.102C338.016 537.046 340.72 540.633 343.938 543.727C344.763 544.479 345.636 545.178 346.552 545.818C347.502 546.423 348.488 546.969 349.506 547.451C350.534 547.947 351.59 548.383 352.668 548.758C353.766 549.059 354.851 549.438 355.988 549.66C360.553 550.59 365.178 551.201 369.828 551.49C372.156 551.683 374.496 551.311 376.65 550.405C378.871 549.564 381.032 548.573 383.119 547.438C387.358 545.134 391.476 542.612 395.456 539.884C403.519 534.422 411.387 528.423 419.228 522.215C430.598 513.172 441.445 503.919 452.005 494.771C462.565 485.622 472.654 476.474 482.351 467.496L484.167 465.81C484.466 465.548 484.75 465.268 485.017 464.973C485.266 464.663 485.493 464.335 485.697 463.993C486.496 462.603 487.082 461.101 487.435 459.537C488.134 456.413 488.381 453.204 488.167 450.01C487.627 443.771 486.31 437.625 484.246 431.713C483.736 430.262 483.227 428.812 482.73 427.374L481.018 423.153L480.168 421.049L479.241 419.01C478.613 417.703 477.934 416.305 477.372 414.959C474.915 409.731 471.82 404.828 468.158 400.361C466.404 398.231 464.216 396.498 461.741 395.277C460.51 394.732 459.164 394.495 457.821 394.584C457.172 394.65 456.54 394.827 455.952 395.107C455.378 395.413 454.843 395.786 454.357 396.218L441.994 405.85L419.542 423.362C405.637 434.17 393.966 443.266 384.988 450.258L384.818 450.389V450.179C382.204 441.515 380.113 434.85 378.728 430.341C378.048 428.093 377.525 426.42 377.172 425.231C376.82 424.042 376.846 423.414 376.846 423.414Z" fill="#DCE6FF"/>
<path d="M366.339 408.031C365.906 405.557 365.273 403.122 364.444 400.752C362.246 395.096 358.708 390.06 354.132 386.075C349.506 382.134 344.278 378.962 338.646 376.679C336.502 375.764 334.725 375.111 333.497 374.653C332.845 374.459 332.211 374.21 331.602 373.908C332.272 374.017 332.933 374.183 333.575 374.405C334.882 374.771 336.646 375.372 338.803 376.221C344.525 378.418 349.83 381.578 354.485 385.566C359.162 389.61 362.733 394.777 364.862 400.582C365.478 402.337 365.916 404.15 366.169 405.992C366.239 406.495 366.283 407.001 366.299 407.508C366.33 407.681 366.343 407.856 366.339 408.031V408.031Z" fill="#DCE6FF"/>
<path d="M372.089 496.9C372.033 496.248 372.033 495.592 372.089 494.94C372.089 493.633 372.219 491.881 372.429 489.647C373.003 483.823 374.079 478.06 375.644 472.422C377.213 466.782 379.259 461.287 381.76 455.994C382.727 453.969 383.563 452.361 384.191 451.276C384.482 450.688 384.828 450.128 385.223 449.604C385.011 450.223 384.745 450.822 384.426 451.394C383.877 452.518 383.119 454.151 382.204 456.19C377.442 466.83 374.309 478.126 372.912 489.699C372.638 491.908 372.455 493.711 372.35 494.926C372.326 495.591 372.238 496.252 372.089 496.9V496.9Z" fill="#DCE6FF"/>
<path d="M379.197 500.338C379.109 499.671 379.069 498.998 379.08 498.325C379.08 497.018 379.08 495.149 379.08 492.836C379.158 488.197 379.472 481.78 380.269 474.736C381.066 467.692 382.203 461.366 383.17 456.832C383.654 454.558 384.085 452.728 384.477 451.473C384.607 450.812 384.8 450.164 385.052 449.539C384.994 450.213 384.885 450.881 384.726 451.539C384.464 452.924 384.111 454.741 383.693 456.923C382.844 461.471 381.798 467.796 381.001 474.814C380.204 481.832 379.812 488.223 379.616 492.849C379.537 495.071 379.472 496.914 379.42 498.325C379.414 499.002 379.34 499.676 379.197 500.338V500.338Z" fill="#DCE6FF"/>
<path d="M482.952 617.096C479.398 616.207 475.791 620.559 477.307 623.905C478.823 627.251 484.468 627.394 486.18 624.153C487.892 620.912 484.664 616.312 481.031 616.887" fill="#EBEBEB"/>
<path d="M481.031 616.832C481.031 616.832 481.136 616.832 481.358 616.741C481.674 616.691 481.996 616.691 482.312 616.741C483.499 616.916 484.586 617.504 485.383 618.4C486.008 619.049 486.464 619.841 486.713 620.706C486.961 621.572 486.994 622.485 486.807 623.366C486.548 624.444 485.883 625.38 484.952 625.98C483.964 626.59 482.82 626.899 481.659 626.869C480.499 626.838 479.372 626.471 478.417 625.81C477.536 625.187 476.924 624.253 476.705 623.197C476.571 622.307 476.661 621.397 476.966 620.55C477.272 619.704 477.784 618.947 478.456 618.348C479.318 617.506 480.455 617.004 481.658 616.937C481.981 616.923 482.303 616.963 482.612 617.054C482.821 617.054 482.926 617.146 482.913 617.172C482.9 617.198 482.456 617.107 481.671 617.172C480.323 617.388 479.114 618.123 478.3 619.219C477.487 620.316 477.135 621.687 477.319 623.04C477.509 623.952 478.043 624.757 478.809 625.288C479.652 625.86 480.641 626.177 481.658 626.202C482.673 626.226 483.674 625.964 484.547 625.444C485.338 624.948 485.916 624.175 486.167 623.275C486.43 621.937 486.169 620.549 485.44 619.397C484.711 618.245 483.568 617.416 482.246 617.08C481.488 616.832 481.044 616.963 481.031 616.832Z" fill="#DCE6FF"/>
<path d="M469.14 533.912C467.476 535.1 465.683 536.095 463.795 536.879C462.012 537.872 460.122 538.661 458.162 539.231C461.613 537.057 465.295 535.273 469.14 533.912V533.912Z" fill="#DCE6FF"/>
<path d="M664.518 511.643C664.505 511.862 664.456 512.079 664.375 512.283C664.218 512.753 664.035 513.342 663.813 514.034C663.316 515.563 662.506 517.746 661.695 520.477C660.676 523.66 659.941 526.927 659.5 530.24C659.26 532.19 659.155 534.155 659.186 536.121C659.186 538.185 659.186 540.316 659.343 542.472C659.427 544.572 659.792 546.651 660.428 548.654C661.071 550.516 661.978 552.276 663.12 553.881C665.113 556.55 667.496 558.902 670.19 560.86C672.464 562.585 674.411 563.827 675.758 564.715C676.474 565.136 677.16 565.608 677.809 566.127C677.603 566.059 677.406 565.967 677.221 565.852L675.614 564.938C674.229 564.127 672.242 562.938 669.903 561.252C667.12 559.314 664.659 556.95 662.61 554.247C661.428 552.615 660.483 550.824 659.8 548.928C659.14 546.871 658.758 544.735 658.663 542.577C658.533 540.368 658.559 538.238 658.52 536.173C658.5 534.176 658.622 532.18 658.886 530.2C659.349 526.86 660.137 523.573 661.238 520.386C662.153 517.667 662.989 515.498 663.564 514.008L664.244 512.283C664.303 512.057 664.395 511.841 664.518 511.643V511.643Z" fill="#DCE6FF"/>
<path d="M458.135 644.84H457.73H452.28L436.192 644.762L381.303 644.331L381.604 644.135L373.736 660.654L373.527 660.183C375.396 660.667 377.448 661.229 379.421 661.725C395.109 665.28 411.225 666.574 427.279 665.568C439.13 664.848 450.927 663.413 462.605 661.268L462.448 661.503C461.141 656.276 459.925 652.094 459.194 649.218C458.828 647.794 458.566 646.683 458.396 645.951C458.318 645.598 458.253 645.324 458.213 645.102C458.2 645.002 458.2 644.901 458.213 644.801L458.292 645.076L458.54 645.912C458.762 646.683 459.063 647.781 459.442 649.166C460.226 652.015 461.546 656.119 462.879 661.412V661.608H462.683C450.988 663.847 439.163 665.34 427.279 666.077C411.167 667.151 394.984 665.879 379.238 662.3C377.199 661.804 375.2 661.242 373.318 660.758L372.926 660.654L373.109 660.288L381.094 643.808L381.185 643.625H381.394L436.428 644.344L452.45 644.605L456.71 644.697H457.808L458.135 644.84Z" fill="#DCE6FF"/>
<path d="M553.173 640.608C553.477 640.574 553.784 640.574 554.088 640.608L556.845 640.686C559.237 640.751 562.713 640.869 566.947 641.065H567.157V641.287C567.81 645.548 568.568 650.579 569.391 655.977V656.303L569.078 656.369L567.522 656.682L555.904 659.048L555.577 659.126V658.799C554.767 653.376 554.14 648.789 553.722 645.587C553.513 644.071 553.356 642.842 553.238 641.875C553.156 641.444 553.112 641.007 553.107 640.568C553.107 640.568 553.225 641.078 553.395 641.967C553.565 642.855 553.774 644.188 554.048 645.731C554.597 648.932 555.355 653.402 556.192 658.656L555.813 658.407L567.431 655.977L568.973 655.663L568.712 656.042C567.928 650.631 567.196 645.587 566.581 641.339L566.843 641.575C562.765 641.339 559.367 641.078 556.963 640.908L554.153 640.686L553.173 640.608Z" fill="#DCE6FF"/>
<path d="M455.259 395.289C455.141 395.068 455.045 394.836 454.971 394.596L454.265 392.558C453.651 390.702 452.789 388.14 451.743 384.965C449.626 378.43 446.699 369.399 443.392 359.167H444.032C443.418 361.571 442.726 364.094 442.111 366.655C441.327 369.713 440.543 372.693 439.798 375.581C439.615 376.3 439.419 377.019 439.236 377.737C439.065 378.508 438.68 379.215 438.125 379.776C437.815 380.03 437.454 380.214 437.065 380.313C436.677 380.412 436.271 380.425 435.878 380.351C435.162 380.219 434.471 379.981 433.826 379.646C428.899 377.215 424.547 374.915 420.914 372.915C417.28 370.915 414.379 369.243 412.393 368.053L410.119 366.668C409.847 366.517 409.589 366.342 409.348 366.145C409.641 366.248 409.922 366.384 410.184 366.55L412.523 367.857C414.549 368.968 417.49 370.589 421.136 372.523C424.782 374.457 429.173 376.718 434.087 379.057C435.25 379.606 436.701 380.116 437.694 379.253C438.687 378.391 438.74 376.783 439.158 375.333C439.903 372.445 440.661 369.465 441.458 366.407C442.111 363.793 442.765 361.323 443.392 358.918L443.68 357.781L444.032 358.905L452.148 384.834C453.115 388.023 453.913 390.623 454.475 392.492C454.723 393.342 454.932 394.021 455.076 394.557C455.166 394.793 455.228 395.038 455.259 395.289V395.289Z" fill="#D04E3F"/>
<path d="M461.389 371.23C461.389 371.23 461.742 371.504 461.637 372.197C461.516 372.663 461.259 373.083 460.898 373.402C460.537 373.721 460.089 373.925 459.612 373.988C458.914 373.977 458.229 373.802 457.611 373.478C456.994 373.153 456.461 372.687 456.057 372.119C455.064 370.995 454.044 369.753 452.96 368.446C450.79 365.833 448.856 363.454 447.471 361.703C446.676 360.795 445.967 359.815 445.354 358.775C446.27 359.562 447.107 360.437 447.85 361.389C449.313 363.062 451.313 365.401 453.482 368.015L456.527 371.701C456.862 372.209 457.307 372.636 457.83 372.948C458.353 373.26 458.94 373.45 459.546 373.504C459.942 373.476 460.322 373.338 460.645 373.108C460.968 372.877 461.221 372.562 461.376 372.197C461.546 371.583 461.298 371.256 461.389 371.23Z" fill="#D04E3F"/>
<path d="M486.847 462.621C486.634 462.477 486.437 462.31 486.259 462.124L484.625 460.595C483.919 459.929 483.07 459.105 482.142 458.086C481.214 457.066 480.103 455.956 479.019 454.596C477.934 453.237 476.679 451.8 475.49 450.14C474.301 448.48 473.059 446.69 471.792 444.782C469.131 440.565 466.794 436.152 464.8 431.582C462.874 426.988 461.293 422.257 460.069 417.429C459.559 415.181 459.049 413.063 458.762 411.038C458.474 409.012 458.174 407.117 457.978 405.418C457.782 403.719 457.703 402.125 457.612 400.753C457.52 399.38 457.494 398.139 457.507 397.211C457.52 396.283 457.507 395.564 457.507 394.989C457.477 394.729 457.477 394.466 457.507 394.205C457.567 394.462 457.598 394.725 457.599 394.989C457.599 395.564 457.599 396.296 457.703 397.211C457.808 398.126 457.782 399.354 457.925 400.726C458.069 402.099 458.121 403.654 458.396 405.366C458.67 407.078 458.853 408.947 459.258 410.933C459.664 412.92 460.108 415.05 460.631 417.272C463.052 426.885 466.978 436.054 472.262 444.442C473.504 446.363 474.667 448.193 475.895 449.813C477.124 451.434 478.248 452.937 479.345 454.283C480.443 455.629 481.476 456.779 482.377 457.824C483.279 458.87 484.089 459.719 484.756 460.438L486.298 462.046C486.505 462.213 486.689 462.407 486.847 462.621V462.621Z" fill="#DCE6FF"/>
<path d="M545.16 247.795C545.16 247.795 501.876 476.213 485.174 524.555L711.266 508.258C711.266 508.258 751.779 336.807 767.462 262.249L545.16 247.795Z" fill="#294197"/>
<g opacity="0.5">
<path opacity="0.5" d="M668.23 510.975C668.23 510.975 712.219 413.521 723.981 349.588C730.725 313.413 734.018 260.536 734.018 260.536L606.74 251.754C606.74 251.754 567.664 326.795 546.911 395.969C526.158 465.143 521.701 522.45 521.701 522.45L587.542 517.314L605.708 452.845C605.708 452.845 612.687 456.138 621.73 450.885L602.911 516.111L668.23 510.975Z" fill="white"/>
</g>
<path d="M589.986 438.939C590.627 442.089 590.431 450.374 599.448 446.78C608.466 443.186 616.255 426.406 616.255 426.406L623.978 425.687C623.947 427.976 624.074 430.264 624.357 432.535C624.828 436.848 627.298 443.971 633.702 443.605C640.105 443.239 642.85 437.946 650.208 423.492C657.565 409.037 659.238 397.641 663.277 387.631C667.315 377.62 677.548 372.536 681.782 368.236C686.016 363.937 687.271 361.075 692.368 351.43C697.465 341.785 700.066 340.609 703.921 324.416C707.776 308.224 696.981 305.087 696.981 305.087C696.981 305.087 688.931 303.545 683.089 305.466C677.247 307.388 674.085 313.87 672.203 321.149C670.321 328.429 667.916 352.305 665.028 362.669C662.14 373.033 646.901 390.963 639.57 395.341C632.238 399.719 627.389 409.325 627.389 409.325L621.574 409.861C622.711 404.699 610.7 384.468 608.845 377.071C606.989 369.674 612.687 357.677 613.863 354.579C615.039 351.482 623.508 333.499 626.932 323.083C630.356 312.667 621.992 311.151 621.992 311.151L610.635 312.197C601.304 313.073 592.835 328.311 592.835 328.311C590.757 334.089 589.054 339.995 587.738 345.993C586.549 352.75 587.49 366.433 588.17 372.562C588.849 378.691 595.292 384.978 596.455 391.068C597.618 397.158 593.123 409.73 592.116 413.285C591.11 416.84 589.372 435.776 589.986 438.939ZM633.114 419.048C635.074 407.286 642.863 403.784 644.523 403.013C646.758 401.98 649.816 400.987 650.234 402.817L650.103 402.66C650.216 402.815 650.304 402.987 650.365 403.17C650.77 404.215 651.201 406.986 648.352 412.475C644.562 419.793 640.785 428.157 638.42 429.582C636.054 431.006 631.192 430.745 633.074 419.048H633.114ZM597.893 417.14C597.863 413.725 599.007 410.403 601.134 407.731C601.308 407.522 601.501 407.33 601.709 407.156L601.474 407.339C602.977 405.326 605.63 405.783 607.394 406.463C608.701 406.96 614.83 409.22 610.138 421.178C605.447 433.137 600.167 434.247 598.468 433.28C596.769 432.313 597.618 424.132 597.854 417.14H597.893Z" fill="white"/>
<path d="M624.449 405.641C622.528 405.641 623.469 398.257 623.469 398.257C623.095 395.534 622.929 392.786 622.972 390.037C623.129 386.587 621.169 383.502 619.77 380.431C618.372 377.36 619.182 368.787 620.411 364.435C621.639 360.083 620.633 359.769 620.633 359.769C615.628 358.462 619.601 348.007 622.371 338.206C625.142 328.404 628.461 328.966 628.461 328.966C628.461 328.966 630.657 328.757 632.382 336.481C634.107 344.204 636.394 346.831 641.125 346.57L643.647 346.334C648.378 346.152 652.443 342.492 658.69 334.037C664.937 325.581 667.119 325.385 667.119 325.385C667.119 325.385 670.909 324.222 668.191 333.958C665.472 343.695 663.604 353.967 657.553 356.345C657.553 356.345 656.311 356.868 655.096 361.22C653.88 365.572 649.79 374.433 646.509 377.961C643.229 381.49 639.413 385.084 637.596 388.678C635.78 392.272 632.369 397.447 632.369 397.447C632.369 397.447 628.2 405.105 626.161 405.497L624.449 405.641Z" fill="white"/>
<path d="M673.353 259.583C673.353 259.583 675.745 260.131 674.268 264.157C672.792 268.182 673.066 270.482 672.216 271.606C671.238 272.716 670.19 273.764 669.08 274.742C669.08 274.742 671.837 275.527 670.073 279.839C668.309 284.152 668.034 288.321 667.237 290.203C666.44 292.085 664.519 292.817 663.696 293.901C662.872 294.986 666.61 293.627 665.865 297.325C665.12 301.024 662.898 303.86 663.094 307.179C663.29 310.499 661.905 315.021 658.795 316.903C655.684 318.785 656.429 321.019 656.429 322.823C656.401 325.31 656.054 327.782 655.397 330.181C654.404 334.938 647.556 342.57 643.177 342.452C638.799 342.335 634.225 337.329 635.101 334.141C636.67 329.754 638.872 325.62 641.635 321.869C643.4 319.895 644.981 319.739 644.524 317.713C644.066 315.687 641.91 319.02 641.91 316.145C641.643 313.221 642.234 310.283 643.609 307.689C645.242 304.945 645.647 302.318 647.15 298.815C648.653 295.313 651.96 294.476 651.659 293.732C651.359 292.987 649.529 293.405 650.862 289.915C652.195 286.426 652.391 288.739 653.711 283.381C655.031 278.023 655.593 274.912 657.2 275.278C658.808 275.644 658.429 273.357 658.782 269.698C659.135 266.039 657.88 267.45 659.879 263.372C661.879 259.295 673.353 259.583 673.353 259.583Z" fill="white"/>
<path d="M680.345 391.199L677.927 386.233L680.802 375.856C680.802 375.856 674.843 372.667 667.498 384.73C660.154 396.792 660.964 402.255 660.964 402.255L670.426 401.393C671.945 404.663 672.268 408.363 671.341 411.848C669.707 417.18 666.871 416.696 664.806 426.028C662.741 435.359 662.702 439.096 662.702 439.096L637.152 512.282L650.326 511.067L677.966 433.411C677.966 433.411 681.469 430.863 686.696 419.036C691.924 407.208 696.76 391.944 692.708 388.115C688.657 384.285 680.345 391.199 680.345 391.199Z" fill="white"/>
<path d="M575.129 400.934L580.539 395.249L583.519 384.859C583.519 384.859 591.635 380.377 592.406 391.681C593.177 402.986 589.125 408.906 589.125 408.906L579.663 409.782C579.663 409.782 574.044 415.584 572.685 420.89C571.325 426.196 574.593 425.164 571.378 434.586C569.936 439.153 568.162 443.608 566.072 447.917L550.703 520.201L537.529 521.416L553.212 444.898C553.212 444.898 550.99 442.885 552.323 431.411C553.656 419.936 557.381 404.789 563.85 400.045C565.466 398.674 567.559 397.997 569.673 398.164C571.786 398.33 573.747 399.326 575.129 400.934V400.934Z" fill="white"/>
<path d="M545.16 247.793L549.185 248.015L560.947 248.747L605.852 251.596L767.37 261.96H767.697L767.631 262.274C760.143 297.69 751.348 336.466 741.886 377.776C732.424 419.087 722.23 462.933 711.527 508.361L711.461 508.609H711.213L693.858 509.916L485.187 524.854H484.742L484.873 524.409C488.101 514.451 490.767 504.519 493.224 494.769L496.792 480.276C497.907 475.493 499.009 470.757 500.098 466.07C502.281 456.726 504.254 447.564 506.267 438.625L511.873 412.618C519.022 378.953 525.021 349.391 529.921 324.952L545.16 247.715C545.16 247.715 545.094 248.172 544.937 249.022C544.781 249.871 544.532 251.204 544.219 252.942C543.578 256.38 542.611 261.45 541.37 268.063C538.847 281.276 535.11 300.592 530.274 325.043C525.439 349.495 519.492 379.07 512.37 412.762C510.566 421.161 508.706 429.83 506.789 438.769C504.79 447.669 502.869 456.83 500.647 466.214L497.354 480.42C496.177 485.203 494.993 490.038 493.799 494.926C491.342 504.688 488.689 514.621 485.461 524.632L485.147 524.213L693.805 509.145L711.174 507.838L710.86 508.099C721.577 462.698 731.77 418.878 741.284 377.58C750.799 336.283 759.581 297.507 767.096 262.104L767.357 262.457L606.021 251.818L561.065 248.813L549.302 248.015L545.16 247.793Z" fill="#263238"/>
<path d="M457.56 395.329C457.56 395.329 473.883 379.764 477.464 373.752C481.27 366.879 483.502 359.246 483.999 351.404C484.317 346.71 485.321 342.086 486.978 337.682C486.978 337.682 508.202 319.386 513.181 316.288C516.357 314.276 524.525 310.564 530.89 310.852C537.254 311.139 538.3 312.668 538.836 315.439C538.911 316.229 538.819 317.027 538.564 317.779C538.31 318.532 537.899 319.222 537.359 319.804C537.359 319.804 541.698 325.345 536.928 328.952L528.929 329.998L520.644 337.042C520.644 337.042 515.299 344.556 516.2 345.158C517.102 345.759 520.121 343.955 520.121 343.955C520.121 343.955 530.576 334.127 533.543 335.016C536.509 335.905 540.077 338.244 540.691 340.949V341.028C541.009 342.652 540.915 344.33 540.42 345.909C539.925 347.488 539.043 348.919 537.856 350.071L537.568 350.359C537.568 350.359 533.582 351.757 531.909 349.98C530.236 348.203 522.186 357.678 524.564 357.678C526.943 357.678 535.307 352.607 538.587 354.097C541.868 355.587 541.567 359.167 539.476 361.546C537.385 363.924 525.166 378.235 524.564 379.437C523.963 380.64 520.644 391.356 515.037 396.427C509.431 401.498 499.721 404.177 499.721 404.177L469.662 440.547C465.15 432.373 461.907 423.559 460.043 414.41C457.011 399.563 457.56 395.329 457.56 395.329Z" fill="#BF9382"/>
<path d="M539.305 323.932C539.24 323.932 539.162 323.331 538.704 322.351C538.101 320.965 536.987 319.866 535.594 319.28C534.594 319.007 533.557 318.897 532.523 318.953C531.305 318.945 530.087 319.006 528.876 319.136C526.113 319.416 523.418 320.162 520.904 321.344C518.428 322.605 516.141 324.207 514.109 326.101C512.412 327.63 510.794 329.244 509.26 330.937L506.15 334.374C505.787 334.819 505.384 335.23 504.947 335.603C505.223 335.1 505.557 334.631 505.941 334.204C506.62 333.342 507.613 332.1 508.894 330.623C510.393 328.871 511.995 327.208 513.69 325.644C515.742 323.671 518.077 322.015 520.617 320.73C523.196 319.514 525.97 318.762 528.811 318.508C530.045 318.4 531.284 318.36 532.523 318.391C533.631 318.36 534.736 318.519 535.79 318.861C536.522 319.184 537.18 319.653 537.724 320.24C538.267 320.827 538.686 321.518 538.953 322.272C539.11 322.673 539.223 323.089 539.292 323.514C539.317 323.652 539.321 323.793 539.305 323.932V323.932Z" fill="#785143"/>
<path d="M537.096 345.837C537.265 345.903 536.455 347.562 534.587 348.712C533.526 349.504 532.204 349.863 530.889 349.718C530.889 349.509 532.522 349.222 534.234 348.137C535.946 347.053 536.887 345.72 537.096 345.837Z" fill="#785143"/>
<path d="M675.222 510.859C676.045 509.826 668.308 517.916 668.308 517.916L662.532 517.433C658.389 525.365 658.337 535.18 659.016 545.583C659.042 545.987 659.154 546.38 659.344 546.738C659.534 547.095 659.798 547.407 660.118 547.655C660.438 547.902 660.808 548.078 661.201 548.172C661.595 548.265 662.004 548.274 662.401 548.197L670.922 546.537C670.922 546.537 682.201 548.785 689.585 547.347C696.968 545.91 710.299 540.591 710.299 540.591C710.299 540.591 711.318 540.787 716.833 539.153C718.336 538.787 719.666 537.913 720.6 536.68C721.533 535.447 722.012 533.929 721.956 532.383C724.143 532.406 726.285 531.764 728.099 530.541C731.183 528.489 730.608 522.412 730.608 522.412L734.528 518.7C735.381 517.909 736.056 516.945 736.507 515.872C736.957 514.799 737.174 513.643 737.142 512.479C737.127 511.97 737.07 511.463 736.972 510.963C736.227 506.664 730.255 502.456 730.255 502.456C730.255 502.456 731.418 498.966 730.595 496.705C729.771 494.444 714.598 482.565 714.598 482.565C714.253 482.206 713.839 481.92 713.381 481.725C712.923 481.53 712.43 481.43 711.932 481.43C711.434 481.43 710.942 481.53 710.484 481.725C710.025 481.92 709.611 482.206 709.266 482.565C706.653 485.179 711.305 492.223 711.305 492.223C704.901 490.563 704.575 494.928 705.15 498.195C705.316 499.135 705.683 500.029 706.227 500.814C706.771 501.599 707.478 502.257 708.299 502.743L710.129 503.828L708.639 508.232C708.639 508.232 704.548 505.618 702.105 505.997C701.138 506.157 700.221 506.535 699.424 507.104C698.627 507.672 697.97 508.416 697.504 509.278L675.222 510.859Z" fill="#BF9382"/>
<path d="M704.966 496.313C704.86 495.883 704.86 495.435 704.966 495.006C705.162 493.804 705.824 492.728 706.809 492.013C707.515 491.526 708.357 491.274 709.214 491.294C710.166 491.324 711.105 491.528 711.984 491.895C713.814 492.692 715.631 493.699 717.643 494.679C721.085 496.336 724.412 498.222 727.602 500.325C728.817 501.148 729.758 501.88 730.385 502.39C730.728 502.643 731.04 502.937 731.313 503.265C731.248 503.357 729.81 502.259 727.393 500.73C724.975 499.201 721.381 497.28 717.395 495.293C715.408 494.313 713.474 493.254 711.801 492.483C711.09 492.088 710.292 491.874 709.478 491.86C708.665 491.847 707.86 492.034 707.136 492.405C706.225 493.026 705.566 493.954 705.28 495.019C705.032 495.855 705.019 496.313 704.966 496.313Z" fill="#785143"/>
<path d="M721.04 530.76C721.04 530.76 720.896 530.512 720.491 530.159C719.934 529.619 719.35 529.109 718.74 528.63C717.158 527.323 714.819 525.598 711.8 523.533C708.302 521.111 704.672 518.886 700.927 516.868C699.718 516.287 698.718 515.349 698.061 514.18C697.404 513.011 697.122 511.668 697.255 510.333C697.512 508.918 698.308 507.658 699.476 506.818C700.07 506.385 700.748 506.082 701.466 505.929C702.184 505.776 702.927 505.776 703.645 505.929C704.996 506.286 706.308 506.772 707.566 507.38C708.794 507.942 710.01 508.504 711.186 509.092C713.538 510.255 715.773 511.47 717.838 512.725C719.903 513.98 721.824 515.234 723.575 516.476L726.085 518.292C726.884 518.828 727.64 519.427 728.345 520.083C728.987 520.698 729.526 521.413 729.94 522.2C730.292 522.928 730.462 523.731 730.436 524.539C730.429 525.803 730.181 527.054 729.705 528.225C729.397 528.967 728.954 529.645 728.398 530.224C728.212 530.434 727.985 530.603 727.731 530.721C727.731 530.721 727.966 530.551 728.293 530.133C728.772 529.528 729.147 528.848 729.404 528.12C729.821 526.978 730.024 525.768 730.005 524.552C730.012 523.809 729.842 523.074 729.509 522.409C729.101 521.671 728.581 521 727.966 520.423C727.261 519.801 726.51 519.233 725.719 518.724L723.196 516.933C721.445 515.731 719.524 514.489 717.459 513.261C715.394 512.032 713.186 510.843 710.846 509.68C709.67 509.105 708.468 508.543 707.239 508.007C706.027 507.42 704.762 506.948 703.462 506.596C702.842 506.479 702.204 506.485 701.586 506.615C700.968 506.745 700.382 506.995 699.861 507.352C699.34 507.709 698.895 508.166 698.551 508.695C698.207 509.225 697.97 509.817 697.856 510.438C697.701 511.647 697.974 512.872 698.627 513.901C699.276 514.908 700.177 515.728 701.241 516.28C704.988 518.33 708.606 520.609 712.075 523.102C715.041 525.219 717.368 527.022 718.91 528.329C719.505 528.843 720.069 529.393 720.596 529.976C720.741 530.12 720.861 530.288 720.948 530.473C721.027 530.695 721.053 530.747 721.04 530.76Z" fill="#785143"/>
<path d="M705.465 537.989C705.105 537.781 704.772 537.531 704.471 537.244C703.857 536.735 702.981 535.938 701.858 534.97C700.569 533.799 699.343 532.56 698.185 531.259C697.84 530.866 697.522 530.452 697.231 530.017C696.937 529.528 696.725 528.994 696.604 528.436C696.346 527.258 696.396 526.034 696.748 524.881V524.881C696.991 523.927 697.531 523.073 698.289 522.444C699.047 521.815 699.986 521.442 700.969 521.379C701.778 521.33 702.584 521.511 703.295 521.902C703.946 522.283 704.544 522.748 705.072 523.287L707.895 526.254C709.712 528.135 711.372 529.795 712.731 531.246C714.09 532.696 715.135 533.86 715.841 534.748C716.232 535.167 716.57 535.632 716.848 536.134C716.412 535.765 716.009 535.358 715.645 534.918C714.887 534.121 713.776 532.971 712.378 531.573L707.451 526.698L704.602 523.757C704.16 523.233 703.61 522.81 702.99 522.517C702.37 522.224 701.694 522.067 701.008 522.058C700.174 522.112 699.377 522.425 698.73 522.955C698.083 523.485 697.618 524.204 697.401 525.012V525.012C697.079 526.049 697.021 527.149 697.231 528.214C697.328 528.707 697.51 529.18 697.767 529.612C698.041 530.03 698.342 530.423 698.643 530.802C699.949 532.304 701.152 533.546 702.171 534.578L704.602 536.983C704.934 537.278 705.224 537.617 705.465 537.989V537.989Z" fill="#785143"/>
<path d="M701.764 518.543C701.508 518.815 701.213 519.049 700.888 519.235C700.054 519.787 699.181 520.276 698.274 520.699C695.232 522.099 691.913 522.796 688.564 522.738C686.722 522.694 684.892 522.426 683.115 521.941C681.673 521.533 680.28 520.973 678.959 520.268C678.06 519.809 677.207 519.267 676.41 518.647C675.848 518.216 675.548 517.955 675.574 517.915C675.6 517.876 676.881 518.765 679.168 519.836C680.49 520.464 681.868 520.968 683.284 521.339C685.017 521.772 686.792 522.013 688.577 522.058C691.838 522.105 695.074 521.492 698.092 520.255C700.457 519.301 701.764 518.438 701.764 518.543Z" fill="#785143"/>
<path d="M713.07 532.2C713.07 532.265 712.625 531.939 712.495 531.22C712.383 530.324 712.441 529.416 712.665 528.541C712.827 527.278 713.407 526.106 714.311 525.209C714.481 525.3 713.749 526.764 713.331 528.698C713.13 529.508 713.008 530.335 712.965 531.168C712.965 531.782 713.148 532.148 713.07 532.2Z" fill="#785143"/>
<path d="M729.445 519.759C729.38 519.759 729.315 519.276 728.975 518.453C728.458 517.328 727.756 516.299 726.897 515.408C725.617 514.073 724.207 512.869 722.689 511.814C720.875 510.45 718.956 509.231 716.951 508.167C714.821 507.017 712.73 505.972 710.953 504.796C709.352 503.781 707.886 502.569 706.588 501.189C705.763 500.184 705.229 498.973 705.046 497.686C704.942 497.232 704.915 496.764 704.967 496.301C705.119 496.725 705.233 497.163 705.307 497.608C705.576 498.809 706.142 499.923 706.954 500.849C708.267 502.138 709.722 503.274 711.293 504.234C713.057 505.358 715.122 506.39 717.278 507.54C718.35 508.115 719.382 508.716 720.362 509.344C721.343 509.971 722.218 510.65 723.068 511.278C724.596 512.385 725.998 513.656 727.25 515.068C728.119 516.014 728.79 517.125 729.223 518.335C729.332 518.666 729.407 519.008 729.445 519.354C729.471 519.629 729.471 519.759 729.445 519.759Z" fill="#785143"/>
<path d="M704.966 496.313C704.86 495.883 704.86 495.435 704.966 495.006C705.162 493.804 705.824 492.728 706.809 492.013C707.515 491.526 708.357 491.274 709.214 491.294C710.166 491.324 711.105 491.528 711.984 491.895C713.814 492.692 715.631 493.699 717.643 494.679C721.085 496.336 724.412 498.222 727.602 500.325C728.817 501.148 729.758 501.88 730.385 502.39C730.728 502.643 731.04 502.937 731.313 503.265C731.248 503.357 729.81 502.259 727.393 500.73C724.975 499.201 721.381 497.28 717.395 495.293C715.408 494.313 713.474 493.254 711.801 492.483C711.09 492.088 710.292 491.874 709.478 491.86C708.665 491.847 707.86 492.034 707.136 492.405C706.225 493.026 705.566 493.954 705.28 495.019C705.032 495.855 705.019 496.313 704.966 496.313Z" fill="#785143"/>
<path d="M721.04 530.76C721.04 530.76 720.896 530.512 720.491 530.159C719.934 529.619 719.35 529.109 718.74 528.63C717.158 527.323 714.819 525.598 711.8 523.533C708.302 521.111 704.672 518.886 700.927 516.868C699.718 516.287 698.718 515.349 698.061 514.18C697.404 513.011 697.122 511.668 697.255 510.333C697.512 508.918 698.308 507.658 699.476 506.818C700.07 506.385 700.748 506.082 701.466 505.929C702.184 505.776 702.927 505.776 703.645 505.929C704.996 506.286 706.308 506.772 707.566 507.38C708.794 507.942 710.01 508.504 711.186 509.092C713.538 510.255 715.773 511.47 717.838 512.725C719.903 513.98 721.824 515.234 723.575 516.476L726.085 518.292C726.884 518.828 727.64 519.427 728.345 520.083C728.987 520.698 729.526 521.413 729.94 522.2C730.292 522.928 730.462 523.731 730.436 524.539C730.429 525.803 730.181 527.054 729.705 528.225C729.397 528.967 728.954 529.645 728.398 530.224C728.212 530.434 727.985 530.603 727.731 530.721C727.731 530.721 727.966 530.551 728.293 530.133C728.772 529.528 729.147 528.848 729.404 528.12C729.821 526.978 730.024 525.768 730.005 524.552C730.012 523.809 729.842 523.074 729.509 522.409C729.101 521.671 728.581 521 727.966 520.423C727.261 519.801 726.51 519.233 725.719 518.724L723.196 516.933C721.445 515.731 719.524 514.489 717.459 513.261C715.394 512.032 713.186 510.843 710.846 509.68C709.67 509.105 708.468 508.543 707.239 508.007C706.027 507.42 704.762 506.948 703.462 506.596C702.842 506.479 702.204 506.485 701.586 506.615C700.968 506.745 700.382 506.995 699.861 507.352C699.34 507.709 698.895 508.166 698.551 508.695C698.207 509.225 697.97 509.817 697.856 510.438C697.701 511.647 697.974 512.872 698.627 513.901C699.276 514.908 700.177 515.728 701.241 516.28C704.988 518.33 708.606 520.609 712.075 523.102C715.041 525.219 717.368 527.022 718.91 528.329C719.505 528.843 720.069 529.393 720.596 529.976C720.741 530.12 720.861 530.288 720.948 530.473C721.027 530.695 721.053 530.747 721.04 530.76Z" fill="#785143"/>
<path d="M705.465 537.989C705.105 537.781 704.772 537.531 704.471 537.244C703.857 536.735 702.981 535.938 701.858 534.97C700.569 533.799 699.343 532.56 698.185 531.259C697.84 530.866 697.522 530.452 697.231 530.017C696.937 529.528 696.725 528.994 696.604 528.436C696.346 527.258 696.396 526.034 696.748 524.881V524.881C696.991 523.927 697.531 523.073 698.289 522.444C699.047 521.815 699.986 521.442 700.969 521.379C701.778 521.33 702.584 521.511 703.295 521.902C703.946 522.283 704.544 522.748 705.072 523.287L707.895 526.254C709.712 528.135 711.372 529.795 712.731 531.246C714.09 532.696 715.135 533.86 715.841 534.748C716.232 535.167 716.57 535.632 716.848 536.134C716.412 535.765 716.009 535.358 715.645 534.918C714.887 534.121 713.776 532.971 712.378 531.573L707.451 526.698L704.602 523.757C704.16 523.233 703.61 522.81 702.99 522.517C702.37 522.224 701.694 522.067 701.008 522.058C700.174 522.112 699.377 522.425 698.73 522.955C698.083 523.485 697.618 524.204 697.401 525.012V525.012C697.079 526.049 697.021 527.149 697.231 528.214C697.328 528.707 697.51 529.18 697.767 529.612C698.041 530.03 698.342 530.423 698.643 530.802C699.949 532.304 701.152 533.546 702.171 534.578L704.602 536.983C704.934 537.278 705.224 537.617 705.465 537.989V537.989Z" fill="#785143"/>
<path d="M713.07 532.2C713.07 532.265 712.625 531.939 712.495 531.22C712.383 530.324 712.441 529.416 712.665 528.541C712.827 527.278 713.407 526.106 714.311 525.209C714.481 525.3 713.749 526.764 713.331 528.698C713.13 529.508 713.008 530.335 712.965 531.168C712.965 531.782 713.148 532.148 713.07 532.2Z" fill="#785143"/>
<path d="M729.445 519.759C729.38 519.759 729.315 519.276 728.975 518.453C728.458 517.328 727.756 516.299 726.897 515.408C725.617 514.073 724.207 512.869 722.689 511.814C720.875 510.45 718.956 509.231 716.951 508.167C714.821 507.017 712.73 505.972 710.953 504.796C709.352 503.781 707.886 502.569 706.588 501.189C705.763 500.184 705.229 498.973 705.046 497.686C704.942 497.232 704.915 496.764 704.967 496.301C705.119 496.725 705.233 497.163 705.307 497.608C705.576 498.809 706.142 499.923 706.954 500.849C708.267 502.138 709.722 503.274 711.293 504.234C713.057 505.358 715.122 506.39 717.278 507.54C718.35 508.115 719.382 508.716 720.362 509.344C721.343 509.971 722.218 510.65 723.068 511.278C724.596 512.385 725.998 513.656 727.25 515.068C728.119 516.014 728.79 517.125 729.223 518.335C729.332 518.666 729.407 519.008 729.445 519.354C729.471 519.629 729.471 519.759 729.445 519.759Z" fill="#785143"/>
<path d="M352.028 298.189L340.057 277.2C345.528 268.369 348.421 258.184 348.408 247.795C348.441 235.062 344.161 222.694 336.264 212.706C328.367 202.718 317.319 195.699 304.922 192.795C292.525 189.89 279.51 191.27 267.998 196.709C256.486 202.149 247.156 211.328 241.529 222.75C235.902 234.172 234.31 247.163 237.012 259.606C239.714 272.049 246.552 283.209 256.41 291.268C266.268 299.327 278.565 303.809 291.296 303.983C304.028 304.158 316.443 300.015 326.518 292.229V292.229L352.028 298.189Z" fill="#F5F5F5"/>
<path d="M352.029 298.19L326.454 292.374H326.205L326.362 292.165L326.61 292.414C323.022 295.134 319.133 297.432 315.018 299.262C310.108 301.452 304.911 302.93 299.584 303.653C296.632 304.064 293.65 304.217 290.671 304.11C289.129 304.032 287.574 303.98 285.992 303.862L281.235 303.182C267.06 300.44 254.451 292.426 245.949 280.756C241.238 274.287 237.963 266.886 236.344 259.049C234.697 250.762 234.916 242.213 236.984 234.022C237.258 232.976 237.507 231.931 237.807 230.885C238.108 229.84 238.552 228.847 238.931 227.827C239.67 225.777 240.543 223.777 241.545 221.842C242.031 220.855 242.576 219.899 243.179 218.98L244.917 216.144L246.916 213.53C247.558 212.612 248.261 211.739 249.02 210.916L251.334 208.394C252.092 207.531 252.993 206.839 253.817 206.068C254.64 205.296 255.45 204.499 256.365 203.833L259.083 201.82C259.983 201.12 260.935 200.491 261.932 199.938L264.794 198.213C265.775 197.703 266.794 197.246 267.787 196.762C268.765 196.263 269.773 195.827 270.806 195.456C278.825 192.282 287.452 190.943 296.055 191.535C304.186 192.086 312.101 194.396 319.253 198.305C332.085 205.373 341.709 217.103 346.135 231.068C347.892 237.005 348.729 243.175 348.618 249.365C348.471 254.742 347.542 260.069 345.861 265.178C344.46 269.424 342.556 273.487 340.189 277.28V277.123L351.951 298.19C351.363 297.184 347.573 290.649 339.836 277.28V277.201V277.11C342.154 273.324 344.023 269.28 345.403 265.06C347.019 259.984 347.899 254.703 348.017 249.378C348.103 243.238 347.252 237.122 345.495 231.238C341.087 217.425 331.537 205.834 318.821 198.867C311.746 195.006 303.915 192.732 295.872 192.201C287.368 191.635 278.844 192.975 270.924 196.122C269.906 196.499 268.911 196.935 267.944 197.429C266.964 197.913 265.958 198.37 264.991 198.867L262.155 200.579C261.192 201.12 260.27 201.731 259.397 202.408L256.783 204.395C255.868 205.048 255.11 205.858 254.261 206.59C253.411 207.322 252.549 208.054 251.804 208.89L249.582 211.321C248.83 212.147 248.131 213.02 247.491 213.935L245.518 216.549L243.806 219.332C243.211 220.238 242.674 221.181 242.198 222.155C241.2 224.07 240.326 226.047 239.585 228.076L238.474 231.094C238.186 232.114 237.925 233.159 237.663 234.179C235.617 242.275 235.394 250.725 237.01 258.918C238.609 266.663 241.839 273.978 246.485 280.377C254.874 291.932 267.336 299.872 281.353 302.594L286.058 303.326C287.626 303.444 289.168 303.496 290.684 303.575C293.64 303.695 296.6 303.555 299.532 303.156C304.819 302.454 309.98 301.006 314.861 298.857C318.97 297.031 322.851 294.733 326.427 292.009L327.46 291.224L326.663 292.244L326.558 291.982L352.029 298.19Z" fill="#1E1C61"/>
<path d="M265.748 247.168L273.08 239.875L287.233 252.382L315.018 225.787L321.827 233.093L286.188 266.471L265.748 247.168Z" fill="#FFCB67"/>
</g>
</g>
<defs>
<clipPath id="clip0">
<rect width="816" height="728" fill="white"/>
</clipPath>
<clipPath id="clip1">
<rect width="653.445" height="653.445" fill="white" transform="translate(188.158 74.4746)"/>
</clipPath>
</defs>
</svg>
