<svg width="92" height="92" viewBox="0 0 92 92" fill="none" xmlns="http://www.w3.org/2000/svg">
<g clip-path="url(#clip0_1203:28394)">
<rect width="92" height="92" rx="32" fill="#EDF1FA"/>
<g filter="url(#filter0_d_1203:28394)">
<path d="M58.5915 60.215L65.8376 39.6209C65.9943 39.1755 66.6242 39.1755 66.7809 39.6209L74.0269 60.215H77.2765L67.7309 33.203C67.5278 32.5937 66.9185 32.1875 66.3092 32.1875C65.6999 32.1875 65.0906 32.5937 64.8875 33.203L55.342 60.215H58.5915ZM17.972 60.215L25.218 39.6209C25.3747 39.1755 26.0046 39.1755 26.1613 39.6209L33.4074 60.215H36.657L27.1114 33.203C26.9083 32.5937 26.299 32.1875 25.6897 32.1875C25.0804 32.1875 24.4711 32.5937 24.268 33.203L14.7224 60.215H17.972Z" fill="#4B7FFB"/>
<path d="M58.9989 29.5488C57.171 28.7364 55.3432 27.7209 52.0936 27.7209C49.6564 27.7209 47.4223 28.7364 46.0007 30.5643C44.579 28.9395 42.3449 27.7209 39.9077 27.7209C36.6582 27.7209 34.8303 28.7364 33.0024 29.5488C31.1101 30.495 29.0414 31.6175 24.6609 31.7663C24.1089 31.7851 23.6599 32.2306 23.6599 32.7829V35.8449C29.7528 35.8449 32.5962 34.4232 34.8303 33.2046C36.4551 32.3922 37.6737 31.7829 39.9077 31.7829C42.1418 31.7829 43.9697 33.6108 43.9697 35.8449H48.0316C48.0316 33.6108 49.8595 31.7829 52.0936 31.7829C54.3277 31.7829 55.5463 32.3922 57.171 33.2046C59.4051 34.4232 62.2485 35.8449 68.3414 35.8449V32.7829C68.3414 32.2306 67.8924 31.7848 67.3404 31.769C62.9599 31.6433 60.8912 30.6842 58.9989 29.5488Z" fill="#4B7FFB"/>
<path d="M37.8766 58.1858H13.5049V60.2168C15.1297 65.0911 20.004 68.3407 25.6907 68.3407C31.3775 68.3407 36.2518 65.0911 37.8766 60.2168V58.1858ZM45.5652 24.5269C45.7459 24.1619 46.2552 24.1619 46.4359 24.5269C47.4842 26.6447 50.0625 32.0342 50.0625 33.8141C50.0625 36.0481 48.2346 37.876 46.0005 37.876C43.7664 37.876 41.9386 36.0481 41.9386 33.8141C41.9386 32.0342 44.5169 26.6447 45.5652 24.5269ZM78.4962 58.1858H54.1244V60.2168C55.7492 65.0911 60.6236 68.3407 66.3103 68.3407C71.997 68.3407 76.8714 65.0911 78.4962 60.2168V58.1858Z" fill="#4B7FFB"/>
</g>
<path d="M58.5915 60.215L65.8376 39.6209C65.9943 39.1755 66.6242 39.1755 66.7809 39.6209L74.0269 60.215H77.2765L67.7309 33.203C67.5278 32.5937 66.9185 32.1875 66.3092 32.1875C65.6999 32.1875 65.0906 32.5937 64.8875 33.203L55.342 60.215H58.5915ZM17.972 60.215L25.218 39.6209C25.3747 39.1755 26.0046 39.1755 26.1613 39.6209L33.4074 60.215H36.657L27.1114 33.203C26.9083 32.5937 26.299 32.1875 25.6897 32.1875C25.0804 32.1875 24.4711 32.5937 24.268 33.203L14.7224 60.215H17.972Z" fill="#4B7FFB"/>
<path d="M58.9989 29.5488C57.171 28.7364 55.3432 27.7209 52.0936 27.7209C49.6564 27.7209 47.4223 28.7364 46.0007 30.5643C44.579 28.9395 42.3449 27.7209 39.9077 27.7209C36.6582 27.7209 34.8303 28.7364 33.0024 29.5488C31.1101 30.495 29.0414 31.6175 24.6609 31.7663C24.1089 31.7851 23.6599 32.2306 23.6599 32.7829V35.8449C29.7528 35.8449 32.5962 34.4232 34.8303 33.2046C36.4551 32.3922 37.6737 31.7829 39.9077 31.7829C42.1418 31.7829 43.9697 33.6108 43.9697 35.8449H48.0316C48.0316 33.6108 49.8595 31.7829 52.0936 31.7829C54.3277 31.7829 55.5463 32.3922 57.171 33.2046C59.4051 34.4232 62.2485 35.8449 68.3414 35.8449V32.7829C68.3414 32.2306 67.8924 31.7848 67.3404 31.769C62.9599 31.6433 60.8912 30.6842 58.9989 29.5488Z" fill="#4B7FFB"/>
<path d="M37.8766 58.1858H13.5049V60.2168C15.1297 65.0911 20.004 68.3407 25.6907 68.3407C31.3775 68.3407 36.2518 65.0911 37.8766 60.2168V58.1858ZM45.5652 24.5269C45.7459 24.1619 46.2552 24.1619 46.4359 24.5269C47.4842 26.6447 50.0625 32.0342 50.0625 33.8141C50.0625 36.0481 48.2346 37.876 46.0005 37.876C43.7664 37.876 41.9386 36.0481 41.9386 33.8141C41.9386 32.0342 44.5169 26.6447 45.5652 24.5269ZM78.4962 58.1858H54.1244V60.2168C55.7492 65.0911 60.6236 68.3407 66.3103 68.3407C71.997 68.3407 76.8714 65.0911 78.4962 60.2168V58.1858Z" fill="#4B7FFB"/>
</g>
<defs>
<filter id="filter0_d_1203:28394" x="-2.49512" y="14.2532" width="96.9912" height="76.0874" filterUnits="userSpaceOnUse" color-interpolation-filters="sRGB">
<feFlood flood-opacity="0" result="BackgroundImageFix"/>
<feColorMatrix in="SourceAlpha" type="matrix" values="0 0 0 0 0 0 0 0 0 0 0 0 0 0 0 0 0 0 127 0" result="hardAlpha"/>
<feOffset dy="6"/>
<feGaussianBlur stdDeviation="8"/>
<feColorMatrix type="matrix" values="0 0 0 0 0.294118 0 0 0 0 0.501961 0 0 0 0 0.984314 0 0 0 0.24 0"/>
<feBlend mode="normal" in2="BackgroundImageFix" result="effect1_dropShadow_1203:28394"/>
<feBlend mode="normal" in="SourceGraphic" in2="effect1_dropShadow_1203:28394" result="shape"/>
</filter>
<clipPath id="clip0_1203:28394">
<rect width="92" height="92" fill="white"/>
</clipPath>
</defs>
</svg>
